aileron_black.sfdir

StartChar: exclam
Encoding: 33 33 249
Width: 280
Flags: MW
HStem: -14 179<113.5 166.5> 670 20G<59 221 221 221>
VStem: 50 180<48.5 101.5> 65 150
LayerCount: 2
Fore
SplineSet
209 210 m 1xd0
 71 210 l 1
 59 690 l 1
 221 690 l 1
 209 210 l 1xd0
140 165 m 0xe0
 193 165 230 128 230 75 c 0
 230 22 193 -14 140 -14 c 0
 87 -14 50 22 50 75 c 0
 50 128 87 165 140 165 c 0xe0
EndSplineSet
EndChar

StartChar: quotedbl
Encoding: 34 34 256
Width: 410
Flags: MW
HStem: 439 296<45 163 45 45 235 235 235 353>
VStem: 37 134 227 134
LayerCount: 2
Fore
SplineSet
163 439 m 1
 45 439 l 1
 29 735 l 1
 179 735 l 1
 163 439 l 1
353 439 m 1
 235 439 l 1
 219 735 l 1
 369 735 l 1
 353 439 l 1
EndSplineSet
EndChar

StartChar: numbersign
Encoding: 35 35 251
Width: 662
Flags: MW
HStem: 0 21G<112 214 112 112 301 403 301 301> 201 96<71 155 71 175 277 344 71 257 466 561> 393 96<101 196 101 216 101 297 318 384 507 591> 670 20G<259 361 361 361 448 550 550 550>
VStem: 71 520<201 489 297 489>
LayerCount: 2
Fore
SplineSet
487 393 m 1
 466 297 l 1
 561 297 l 1
 561 201 l 1
 446 201 l 1
 403 0 l 1
 301 0 l 1
 344 201 l 1
 257 201 l 1
 214 0 l 1
 112 0 l 1
 155 201 l 1
 71 201 l 1
 71 297 l 1
 175 297 l 1
 196 393 l 1
 101 393 l 1
 101 489 l 1
 216 489 l 1
 259 690 l 1
 361 690 l 1
 318 489 l 1
 405 489 l 1
 448 690 l 1
 550 690 l 1
 507 489 l 1
 591 489 l 1
 591 393 l 1
 487 393 l 1
384 393 m 1
 297 393 l 1
 277 297 l 1
 364 297 l 1
 384 393 l 1
EndSplineSet
EndChar

StartChar: dollar
Encoding: 36 36 283
Width: 662
Flags: MW
HStem: -12 21G<286 286 386 386> 681 20G<286 286 386 386>
VStem: 71 163<490.5 526 490.5 556.5> 286 100<-90 -12 -90 -12 115 251 440 573 701 780> 447 172<159.5 194>
LayerCount: 2
Fore
SplineSet
619 188 m 0
 619 69 521 1 386 -12 c 1
 386 -90 l 1
 286 -90 l 1
 286 -12 l 1
 150 0 56 63 42 201 c 1
 212 201 l 1
 220 155 248 128 286 115 c 1
 286 275 l 1
 149 323 71 378 71 491 c 0
 71 622 173 687 286 701 c 1
 286 780 l 1
 386 780 l 1
 386 701 l 1
 533 686 604 602 617 487 c 1
 447 487 l 1
 441 527 424 558 386 573 c 1
 386 419 l 1
 549 368 619 307 619 188 c 0
234 509 m 0
 234 472 252 453 286 440 c 1
 286 576 l 1
 254 566 234 543 234 509 c 0
386 251 m 1
 386 112 l 1
 426 120 447 140 447 179 c 0
 447 209 433 232 386 251 c 1
EndSplineSet
EndChar

StartChar: percent
Encoding: 37 37 303
Width: 782
Flags: MW
HStem: -14 84<573 609 573 641> 0 21G<111 234 111 111> 240 84<573 609> 366 84<173 209 173 241> 620 84<173 209> 670 20G<558 681 681 681>
VStem: 31 108<508 562.5 508 589> 243 108<508 562.5> 431 108<128 182.5 128 209> 643 108<128 182.5>
LayerCount: 2
Fore
SplineSet
191 704 m 0xbbc0
 291 704 351 643 351 535 c 0
 351 428 291 366 191 366 c 0
 91 366 31 428 31 535 c 0
 31 643 91 704 191 704 c 0xbbc0
234 0 m 1x77c0
 111 0 l 1
 558 690 l 1
 681 690 l 1
 234 0 l 1x77c0
191 620 m 0xbbc0
 155 620 139 590 139 535 c 0
 139 481 155 450 191 450 c 0
 227 450 243 481 243 535 c 0
 243 590 227 620 191 620 c 0xbbc0
591 324 m 0
 691 324 751 263 751 155 c 0
 751 48 691 -14 591 -14 c 0
 491 -14 431 48 431 155 c 0
 431 263 491 324 591 324 c 0
591 240 m 0
 555 240 539 210 539 155 c 0
 539 101 555 70 591 70 c 0
 627 70 643 101 643 155 c 0
 643 210 627 240 591 240 c 0
EndSplineSet
EndChar

StartChar: ampersand
Encoding: 38 38 311
Width: 688
Flags: MW
HStem: -14 132<303 346.5 303 380.5> 280 140<376 420 403 420 403 420 600 692> 572 132<331.5 375.5 269.5 376.5> 674 20G<456 456>
VStem: 44 188<167.5 225 167.5 228> 86 188<472.5 523.5 472.5 572> 420 180<125 280 13 280 420 497>
LayerCount: 2
Fore
SplineSet
692 420 m 1xe6
 692 280 l 1
 600 280 l 1
 600 13 l 1
 524 -3 434 -14 327 -14 c 0
 166 -14 44 32 44 178 c 0xea
 44 278 111 337 212 353 c 1
 137 375 86 435 86 508 c 0
 86 636 183 704 356 704 c 0xe6
 395 704 428 701 456 694 c 1xd6
 456 565 l 1
 415 571 392 572 361 572 c 0
 302 572 274 549 274 498 c 0
 274 447 306 423 347 421 c 0
 365 420 387 420 403 420 c 2
 420 420 l 1
 420 497 l 1
 600 497 l 1
 600 420 l 1
 692 420 l 1xe6
232 200 m 0
 232 135 274 118 332 118 c 0
 361 118 382 119 420 125 c 1
 420 280 l 1
 387 280 l 2
 365 280 356 280 336 279 c 0
 270 276 232 250 232 200 c 0
EndSplineSet
EndChar

StartChar: quotesingle
Encoding: 39 39 257
Width: 220
Flags: MW
HStem: 439 296<45 163 45 45>
VStem: 37 134
LayerCount: 2
Fore
SplineSet
163 439 m 1
 45 439 l 1
 29 735 l 1
 179 735 l 1
 163 439 l 1
EndSplineSet
EndChar

StartChar: parenleft
Encoding: 40 40 265
Width: 403
Flags: MW
HStem: -80 860<275 364 275 364>
VStem: 119 108<265 435 265 444>
LayerCount: 2
Fore
SplineSet
275 780 m 1
 364 780 l 1
 274 652 227 520 227 350 c 0
 227 180 274 48 364 -80 c 1
 275 -80 l 1
 174 26 119 162 119 350 c 0
 119 538 174 674 275 780 c 1
EndSplineSet
EndChar

StartChar: parenright
Encoding: 41 41 266
Width: 400
Flags: MW
HStem: -80 860<36 125 36 125>
VStem: 173 108<265 435>
LayerCount: 2
Fore
SplineSet
36 780 m 1
 125 780 l 1
 226 674 281 538 281 350 c 0
 281 162 226 26 125 -80 c 1
 36 -80 l 1
 126 48 173 180 173 350 c 0
 173 520 126 652 36 780 c 1
EndSplineSet
EndChar

StartChar: asterisk
Encoding: 42 42 243
Width: 630
Flags: MW
HStem: 66 409<241 373 257 389>
VStem: 264 102
LayerCount: 2
Fore
SplineSet
359 331 m 1
 482 386 l 1
 517 275 l 1
 384 246 l 1
 483 134 l 1
 389 66 l 1
 315 191 l 1
 241 66 l 1
 147 134 l 1
 246 246 l 1
 113 275 l 1
 148 386 l 1
 271 331 l 1
 257 475 l 1
 373 475 l 1
 359 331 l 1
EndSplineSet
EndChar

StartChar: plus
Encoding: 43 43 305
Width: 662
Flags: MW
HStem: 273 88<106 281 106 281 381 556>
VStem: 281 100<76 273 76 273 361 558>
LayerCount: 2
Fore
SplineSet
556 273 m 1
 381 273 l 1
 381 76 l 1
 281 76 l 1
 281 273 l 1
 106 273 l 1
 106 361 l 1
 281 361 l 1
 281 558 l 1
 381 558 l 1
 381 361 l 1
 556 361 l 1
 556 273 l 1
EndSplineSet
EndChar

StartChar: comma
Encoding: 44 44 247
Width: 266
Flags: MW
HStem: -124 296<54 112 -26 221>
VStem: -26 247
LayerCount: 2
Fore
SplineSet
221 162 m 1
 112 -124 l 1
 -26 -124 l 1
 54 172 l 1
 221 172 l 1
 221 162 l 1
EndSplineSet
EndChar

StartChar: hyphen
Encoding: 45 45 269
Width: 314
Flags: MW
HStem: 235 96<32 282 32 282>
VStem: 32 250<235 331 235 331>
LayerCount: 2
Fore
SplineSet
282 235 m 1
 32 235 l 1
 32 331 l 1
 282 331 l 1
 282 235 l 1
EndSplineSet
EndChar

StartChar: period
Encoding: 46 46 252
Width: 266
Flags: MW
HStem: -14 200<110.5 169.5>
VStem: 40 200<56.5 115.5>
LayerCount: 2
Fore
SplineSet
140 186 m 0
 199 186 240 145 240 86 c 0
 240 27 199 -14 140 -14 c 0
 81 -14 40 27 40 86 c 0
 40 145 81 186 140 186 c 0
EndSplineSet
EndChar

StartChar: zero
Encoding: 48 48 232
Width: 662
Flags: MW
HStem: -14 132<299.5 362.5 299.5 431> 572 132<299.5 362.5>
VStem: 46 188<260 430.5 260 460.5> 428 188<260 430.5>
LayerCount: 2
Fore
SplineSet
331 704 m 0
 531 704 616 576 616 345 c 0
 616 115 531 -14 331 -14 c 0
 131 -14 46 115 46 345 c 0
 46 576 131 704 331 704 c 0
331 118 m 0
 394 118 428 175 428 345 c 0
 428 516 394 572 331 572 c 0
 268 572 234 516 234 345 c 0
 234 175 268 118 331 118 c 0
EndSplineSet
EndChar

StartChar: one
Encoding: 49 49 233
Width: 662
Flags: MW
HStem: 0 21G<328 508 328 328> 670 20G<430 508 508 508>
VStem: 328 180<0 502 502 502>
LayerCount: 2
Fore
SplineSet
508 690 m 1
 508 0 l 1
 328 0 l 1
 328 502 l 1
 118 392 l 1
 118 553 l 1
 289 651 l 2
 333 676 379 690 430 690 c 2
 508 690 l 1
EndSplineSet
EndChar

StartChar: two
Encoding: 50 50 234
Width: 662
Flags: MW
HStem: 0 140<339 593 339 593> 574 132<309 359.5>
VStem: 413 188<460 519>
LayerCount: 2
Fore
SplineSet
339 140 m 1
 593 140 l 1
 593 0 l 1
 58 0 l 1
 58 78 l 1
 275 282 l 2
 378 379 413 427 413 493 c 0
 413 545 384 574 335 574 c 0
 283 574 257 541 250 469 c 2
 249 459 l 1
 69 459 l 1
 70 469 l 2
 85 621 181 706 350 706 c 0
 511 706 601 629 601 500 c 0
 601 419 564 357 431 229 c 2
 339 140 l 1
EndSplineSet
EndChar

StartChar: three
Encoding: 51 51 235
Width: 662
Flags: MW
HStem: -14 132<288.5 349 288.5 412> -14 233<33 412> 292.5 117.5 572 132<299.5 351>
VStem: 403 188<479.5 521.5> 419 188<176.5 229.5>
LayerCount: 2
Fore
SplineSet
460 363 m 1xb4
 558 344 607 294 607 205 c 0
 607 73 499 -14 325 -14 c 0xb4
 150 -14 48 71 34 209 c 2
 33 219 l 1x74
 213 219 l 1
 215 209 l 2
 225 161 259 118 318 118 c 0
 380 118 419 153 419 200 c 0xb4
 419 259 376 289 304 292 c 2
 277 293 l 1
 277 409 l 1
 304 411 l 2
 370 416 403 452 403 499 c 0
 403 544 376 572 326 572 c 0
 273 572 251 529 247 484 c 2
 246 474 l 1
 66 474 l 1
 67 484 l 2
 79 600 165 704 344 704 c 0
 513 704 591 618 591 520 c 0xb8
 591 439 550 385 460 363 c 1xb4
EndSplineSet
EndChar

StartChar: four
Encoding: 52 52 236
Width: 662
Flags: MW
HStem: 0 21G<362 542 362 362> 154 140<223 362 223 362 542 626> 670 20G<346 542 542 542>
VStem: 362 180<0 154 0 154 294 500 500 500>
LayerCount: 2
Fore
SplineSet
626 154 m 1
 542 154 l 1
 542 0 l 1
 362 0 l 1
 362 154 l 1
 38 154 l 1
 38 253 l 1
 346 690 l 1
 542 690 l 1
 542 294 l 1
 626 294 l 1
 626 154 l 1
362 294 m 1
 362 500 l 1
 348 475 336 454 325 439 c 2
 223 294 l 1
 362 294 l 1
EndSplineSet
EndChar

StartChar: five
Encoding: 53 53 237
Width: 662
Flags: MW
HStem: -14 132<295.5 353.5 295.5 403> 338 132<300 448> 550 140<268 580 268 268>
VStem: 419 188<197 259.5>
LayerCount: 2
Fore
SplineSet
379 470 m 0
 517 470 607 384 607 233 c 0
 607 71 474 -14 332 -14 c 0
 166 -14 73 47 58 194 c 2
 57 204 l 1
 237 204 l 1
 238 194 l 2
 243 147 271 118 320 118 c 0
 387 118 419 166 419 228 c 0
 419 291 385 338 323 338 c 0
 277 338 251 318 235 276 c 1
 69 276 l 1
 120 690 l 1
 580 690 l 1
 580 550 l 1
 268 550 l 1
 246 399 l 1
 272 445 l 1
 304 463 341 470 379 470 c 0
EndSplineSet
EndChar

StartChar: six
Encoding: 54 54 238
Width: 662
Flags: MW
HStem: -14 132<305.5 364.5 305.5 408> 330 132<307.5 466.5> 572 132<309.5 364>
VStem: 54 181<364 364 364 451> 425 188<194 254.5>
LayerCount: 2
Fore
SplineSet
388 462 m 0
 545 462 613 361 613 243 c 0
 613 73 480 -14 336 -14 c 0
 148 -14 54 93 54 332 c 0
 54 570 173 704 353 704 c 0
 507 704 589 627 605 504 c 1
 606 494 l 1
 426 494 l 1
 424 504 l 1
 410 552 385 572 343 572 c 0
 276 572 240 508 235 364 c 1
 267 426 l 1
 304 455 340 462 388 462 c 0
334 118 m 0
 395 118 425 167 425 221 c 0
 425 288 391 330 332 330 c 0
 283 330 242 292 242 225 c 0
 242 160 277 118 334 118 c 0
EndSplineSet
EndChar

StartChar: seven
Encoding: 55 55 239
Width: 662
Flags: MW
HStem: 0 21G<101 298 101 101> 550 140<57 405 57 618>
VStem: 57 561<590 690 590 690 590 690>
LayerCount: 2
Fore
SplineSet
618 690 m 1
 618 590 l 1
 298 0 l 1
 101 0 l 1
 405 550 l 1
 57 550 l 1
 57 690 l 1
 618 690 l 1
EndSplineSet
EndChar

StartChar: eight
Encoding: 56 56 240
Width: 662
Flags: MW
HStem: -15 132<301.5 364 301.5 409.5> 297 129<316.5 358 316.5 360> 572 132<318.5 360>
VStem: 51 186<177.5 235 177.5 242.5> 85 183<476 524 476 566> 412 183<476 524> 425 186<176.5 232>
LayerCount: 2
Fore
SplineSet
480 366 m 1xf2
 548 343 611 290 611 196 c 0
 611 46 490 -15 329 -15 c 0
 158 -15 51 46 51 196 c 0xf2
 51 289 115 342 183 366 c 1
 128 385 85 426 85 509 c 0
 85 623 176 704 341 704 c 0
 506 704 595 623 595 509 c 0xec
 595 425 540 385 480 366 c 1xf2
338 572 m 0xec
 299 572 268 547 268 501 c 0
 268 451 296 426 337 426 c 0
 379 426 412 451 412 501 c 0
 412 547 382 572 338 572 c 0xec
331 117 m 0xf2
 397 117 425 150 425 203 c 0
 425 261 390 297 330 297 c 0
 279 297 237 264 237 206 c 0
 237 149 272 117 331 117 c 0xf2
EndSplineSet
EndChar

StartChar: nine
Encoding: 57 57 241
Width: 662
Flags: MW
HStem: -14 132<296 352.5 296 401> 228 132<195.5 354.5> 572 132<297.5 356.5>
VStem: 49 188<435.5 496 435.5 532> 427 181<326 326>
LayerCount: 2
Fore
SplineSet
326 704 m 0
 514 704 608 597 608 358 c 0
 608 120 493 -14 309 -14 c 0
 151 -14 69 63 57 186 c 2
 56 196 l 1
 236 196 l 1
 238 186 l 2
 248 138 273 118 319 118 c 0
 386 118 422 182 427 326 c 1
 395 264 l 1
 358 235 322 228 274 228 c 0
 117 228 49 329 49 447 c 0
 49 617 182 704 326 704 c 0
330 360 m 0
 379 360 420 398 420 465 c 0
 420 530 385 572 328 572 c 0
 267 572 237 523 237 469 c 0
 237 402 271 360 330 360 c 0
EndSplineSet
EndChar

StartChar: colon
Encoding: 58 58 246
Width: 266
Flags: MW
HStem: -14 21G<110.5 169.5> -14 200<110.5 169.5> 348 200<110.5 169.5> 528 20G<110.5 169.5>
VStem: 40 200<56.5 115.5 418.5 477.5>
LayerCount: 2
Fore
SplineSet
140 548 m 0x98
 199 548 240 507 240 448 c 0
 240 389 199 348 140 348 c 0xa8
 81 348 40 389 40 448 c 0
 40 507 81 548 140 548 c 0x98
140 186 m 0x58
 199 186 240 145 240 86 c 0
 240 27 199 -14 140 -14 c 0
 81 -14 40 27 40 86 c 0
 40 145 81 186 140 186 c 0x58
EndSplineSet
EndChar

StartChar: semicolon
Encoding: 59 59 258
Width: 266
Flags: MW
HStem: -124 296<54 112 -26 221> 348 200<110.5 169.5> 528 20G<110.5 169.5>
VStem: 40 200<418.5 477.5>
LayerCount: 2
Fore
SplineSet
140 548 m 0xb0
 199 548 240 507 240 448 c 0
 240 389 199 348 140 348 c 0xd0
 81 348 40 389 40 448 c 0
 40 507 81 548 140 548 c 0xb0
221 152 m 1
 112 -124 l 1
 -26 -124 l 1
 54 172 l 1
 221 172 l 1
 221 152 l 1
EndSplineSet
EndChar

StartChar: less
Encoding: 60 60 296
Width: 662
Flags: MW
HStem: 20 490<578 578>
VStem: 107 471<20 333 20 333>
LayerCount: 2
Fore
SplineSet
578 392 m 1
 223 266 l 1
 578 139 l 1
 578 20 l 1
 107 197 l 1
 107 333 l 1
 578 510 l 1
 578 392 l 1
EndSplineSet
EndChar

StartChar: equal
Encoding: 61 61 291
Width: 662
Flags: MW
HStem: 173 88<86 576 86 576> 373 88<86 576 86 576>
VStem: 86 490<173 261 173 261 373 461 173 461>
LayerCount: 2
Fore
SplineSet
576 373 m 1
 86 373 l 1
 86 461 l 1
 576 461 l 1
 576 373 l 1
576 173 m 1
 86 173 l 1
 86 261 l 1
 576 261 l 1
 576 173 l 1
EndSplineSet
EndChar

StartChar: greater
Encoding: 62 62 292
Width: 662
Flags: MW
HStem: 20 490<70 70>
VStem: 70 471<20 333 138 333 197 510 197 510>
LayerCount: 2
Fore
SplineSet
541 333 m 1
 541 197 l 1
 70 20 l 1
 70 138 l 1
 425 265 l 1
 70 391 l 1
 70 510 l 1
 541 333 l 1
EndSplineSet
EndChar

StartChar: question
Encoding: 63 63 254
Width: 589
Flags: MW
HStem: -14 179<262.5 315.5> 572 132<261 307>
VStem: 30 180<474 474> 199 180<48.5 101.5> 214 146<210 210> 353 188<478.5 521>
LayerCount: 2
Fore
SplineSet
296 704 m 0xe4
 450 704 541 634 541 511 c 0xc4
 541 431 507 386 435 328 c 0
 385 287 366 263 360 210 c 1
 214 210 l 1xc8
 216 291 236 327 279 373 c 0
 333 430 353 461 353 496 c 0
 353 546 331 572 283 572 c 0
 239 572 213 541 210 474 c 1
 30 474 l 1
 34 618 135 704 296 704 c 0xe4
289 165 m 0xd0
 342 165 379 128 379 75 c 0
 379 22 342 -14 289 -14 c 0
 236 -14 199 22 199 75 c 0
 199 128 236 165 289 165 c 0xd0
EndSplineSet
EndChar

StartChar: at
Encoding: 64 64 313
Width: 930
Flags: MW
HStem: -134 96<353.5 482.5> 68 96<678 717 678 718> 74 122<347 457.5> 368 122<381 491.5> 606 96<412 588>
VStem: 44 108<168.5 368 168.5 381.5> 247 164<233.5 288.5 233.5 314.5> 506 145<209 319> 783 108<284 424.5>
LayerCount: 2
Fore
SplineSet
702 472 m 1xbe80
 670 339 l 2
 653 267 651 248 651 229 c 0
 651 189 664 164 692 164 c 0
 742 164 783 226 783 342 c 0
 783 507 676 606 500 606 c 0
 324 606 152 478 152 258 c 0
 152 79 254 -38 453 -38 c 0
 539 -38 615 -17 676 27 c 1
 713 -57 l 1
 628 -112 526 -134 439 -134 c 0
 260 -134 44 -31 44 251 c 0
 44 512 244 702 504 702 c 0
 759 702 891 530 891 352 c 0
 891 144 783 68 653 68 c 0
 575 68 523 101 501 167 c 1xdf80
 470 104 l 1
 441 81 411 74 382 74 c 0
 312 74 247 113 247 243 c 0
 247 386 325 490 437 490 c 0
 476 490 503 477 514 462 c 1
 531 409 l 1
 551 472 l 1
 702 472 l 1xbe80
445 196 m 0xbf80
 470 196 483 219 490 248 c 2
 506 319 l 2
 512 347 504 368 479 368 c 0
 442 368 411 322 411 255 c 0
 411 212 424 196 445 196 c 0xbf80
EndSplineSet
EndChar

StartChar: B
Encoding: 66 66 12
Width: 681
GlyphClass: 2
Flags: MW
HStem: 0 140<260 355> 288 130<260 341 341 349 260 352 260 341> 550 140<260 260 260 341>
VStem: 80 180<140 288 418 550> 441 188<478.5 503.5> 467 188<191.5 237>
LayerCount: 2
Fore
SplineSet
528 375 m 1xf4
 615 350 655 292 655 208 c 0xf4
 655 79 550 15 457 4 c 0
 422 0 399 0 355 0 c 2
 80 0 l 1
 80 690 l 1
 363 690 l 2
 400 690 416 690 451 686 c 0
 565 672 629 600 629 510 c 0xf8
 629 447 596 399 528 375 c 1xf4
260 550 m 1
 260 418 l 1
 341 418 l 2
 357 418 372 419 385 421 c 0
 418 426 441 443 441 484 c 0
 441 523 420 542 386 547 c 0
 373 549 357 550 341 550 c 2xf8
 260 550 l 1
402 141 m 0xf4
 434 143 467 169 467 214 c 0
 467 260 434 284 397 287 c 0
 384 288 368 288 352 288 c 2
 260 288 l 1
 260 140 l 1
 357 140 l 2
 373 140 389 140 402 141 c 0xf4
EndSplineSet
Position2: "'cpsp' Capital Spacing in Latin lookup 0 subtable" dx=5 dy=0 dh=10 dv=0
EndChar

StartChar: D
Encoding: 68 68 18
Width: 749
GlyphClass: 2
Flags: MW
HStem: 0 140<260 316 316 329 260 341> 550 140<260 316 260 260>
VStem: 80 180<140 550 140 690 140 690> 533 188<289.5 412.5>
LayerCount: 2
Fore
SplineSet
429 686 m 0
 589 668 721 570 721 354 c 0
 721 138 589 22 429 4 c 0
 394 0 378 0 341 0 c 2
 80 0 l 1
 80 690 l 1
 341 690 l 2
 378 690 394 690 429 686 c 0
381 142 m 0
 471 150 533 228 533 351 c 0
 533 474 471 540 381 548 c 0
 358 550 342 550 316 550 c 2
 260 550 l 1
 260 140 l 1
 316 140 l 2
 342 140 358 140 381 142 c 0
EndSplineSet
Position2: "'cpsp' Capital Spacing in Latin lookup 0 subtable" dx=5 dy=0 dh=10 dv=0
EndChar

StartChar: F
Encoding: 70 70 31
Width: 615
GlyphClass: 2
Flags: MW
HStem: 0 21G<80 260 80 80> 276 140<260 569 260 569> 550 140<260 260 260 599>
VStem: 80 180<0 276 416 550>
LayerCount: 2
Fore
SplineSet
260 550 m 1
 260 416 l 1
 569 416 l 1
 569 276 l 1
 260 276 l 1
 260 0 l 1
 80 0 l 1
 80 690 l 1
 599 690 l 1
 599 550 l 1
 260 550 l 1
EndSplineSet
Position2: "'cpsp' Capital Spacing in Latin lookup 0 subtable" dx=5 dy=0 dh=10 dv=0
EndChar

StartChar: H
Encoding: 72 72 36
Width: 770
GlyphClass: 2
Flags: MW
HStem: 0 21G<80 260 80 80 536 716 536 536> 268 140<260 536 260 536> 670 20G<80 260 260 260 536 716 716 716>
VStem: 80 180<0 268 0 408 408 690> 536 180<0 268 268 268 408 690 0 690>
LayerCount: 2
Fore
SplineSet
716 690 m 1
 716 0 l 1
 536 0 l 1
 536 268 l 1
 260 268 l 1
 260 0 l 1
 80 0 l 1
 80 690 l 1
 260 690 l 1
 260 408 l 1
 536 408 l 1
 536 690 l 1
 716 690 l 1
EndSplineSet
Position2: "'cpsp' Capital Spacing in Latin lookup 0 subtable" dx=5 dy=0 dh=10 dv=0
EndChar

StartChar: J
Encoding: 74 74 47
Width: 638
GlyphClass: 2
Flags: MW
HStem: -14 132<297.5 348 297.5 407.5> 670 20G<406 586 586 586>
VStem: 49 180 406 180<283 299 299 690>
LayerCount: 2
Fore
SplineSet
586 690 m 1
 586 299 l 2
 586 267 586 245 583 194 c 0
 576 73 497 -14 318 -14 c 0
 131 -14 54 84 49 234 c 2
 48 264 l 1
 228 264 l 1
 230 234 l 2
 236 144 272 118 323 118 c 0
 373 118 399 150 404 205 c 0
 406 228 406 250 406 271 c 2
 406 690 l 1
 586 690 l 1
EndSplineSet
Position2: "'cpsp' Capital Spacing in Latin lookup 0 subtable" dx=5 dy=0 dh=10 dv=0
EndChar

StartChar: L
Encoding: 76 76 50
Width: 628
GlyphClass: 2
Flags: MW
HStem: 0 152<260 609 260 609> 670 20G<80 260 260 260>
VStem: 80 180<152 690 152 690 152 690>
AnchorPoint: "Anchor-0" 339 0 basechar 0
LayerCount: 2
Fore
SplineSet
609 152 m 1
 609 0 l 1
 80 0 l 1
 80 690 l 1
 260 690 l 1
 260 152 l 1
 609 152 l 1
EndSplineSet
Position2: "'cpsp' Capital Spacing in Latin lookup 0 subtable" dx=5 dy=0 dh=10 dv=0
EndChar

StartChar: M
Encoding: 77 77 56
Width: 923
GlyphClass: 2
Flags: MW
HStem: 0 21G<80 260 80 80 382 567 382 382 689 869 689 689> 0 175<478 478 478 567 382 478> 509 181 670 20G<80 361 361 361 595 869 869 869>
VStem: 80 180<0 290 0 690> 689 180<0 290 290 320>
LayerCount: 2
Fore
SplineSet
869 690 m 1x9c
 869 0 l 1
 689 0 l 1
 689 290 l 2
 689 350 689 439 691 509 c 1
 679 439 659 351 643 290 c 2
 567 0 l 1
 382 0 l 1
 305 290 l 2
 289 350 269 439 258 509 c 1xac
 260 439 260 350 260 290 c 2
 260 0 l 1
 80 0 l 1
 80 690 l 1
 361 690 l 1
 478 175 l 1x5c
 595 690 l 1
 869 690 l 1x9c
EndSplineSet
Position2: "'cpsp' Capital Spacing in Latin lookup 0 subtable" dx=5 dy=0 dh=10 dv=0
EndChar

StartChar: N
Encoding: 78 78 57
Width: 794
GlyphClass: 2
Flags: MW
HStem: 0 21G<80 260 80 80 505 740 505 505> 670 20G<80 304 304 304 560 740 740 740>
VStem: 80 180<0 285 0 690> 560 180<395 690>
AnchorPoint: "Anchor-0" 405 0 basechar 0
LayerCount: 2
Fore
SplineSet
740 0 m 1
 505 0 l 1
 254 456 l 1
 260 386 260 325 260 285 c 2
 260 0 l 1
 80 0 l 1
 80 690 l 1
 304 690 l 1
 566 214 l 1
 561 284 560 355 560 395 c 2
 560 690 l 1
 740 690 l 1
 740 0 l 1
EndSplineSet
Position2: "'cpsp' Capital Spacing in Latin lookup 0 subtable" dx=5 dy=0 dh=10 dv=0
EndChar

StartChar: O
Encoding: 79 79 63
Width: 788
GlyphClass: 2
Flags: MW
HStem: -14 132<355 459 355 514.5> 572 132<355 459>
VStem: 54 184<272 418.5 272 456> 576 184<272 418.5>
LayerCount: 2
Fore
SplineSet
407 704 m 0
 622 704 760 567 760 345 c 0
 760 124 622 -14 407 -14 c 0
 192 -14 54 124 54 345 c 0
 54 567 192 704 407 704 c 0
407 118 m 0
 511 118 576 199 576 345 c 0
 576 492 511 572 407 572 c 0
 303 572 238 492 238 345 c 0
 238 199 303 118 407 118 c 0
EndSplineSet
Position2: "'cpsp' Capital Spacing in Latin lookup 0 subtable" dx=5 dy=0 dh=10 dv=0
EndChar

StartChar: P
Encoding: 80 80 73
Width: 644
GlyphClass: 2
Flags: MW
HStem: 0 21G<80 260 80 80> 242 140<260 330 330 339.5 260 340 260 330> 550 140<260 330 260 260>
VStem: 80 180<0 242 0 382 382 550> 451 188<440 492>
LayerCount: 2
Fore
SplineSet
448 685 m 0
 548 673 639 602 639 466 c 0
 639 330 548 259 448 247 c 0
 411 243 383 242 340 242 c 2
 260 242 l 1
 260 0 l 1
 80 0 l 1
 80 690 l 1
 340 690 l 2
 383 690 411 689 448 685 c 0
378 383 m 0
 424 387 451 414 451 466 c 0
 451 518 424 545 378 549 c 0
 365 550 349 550 330 550 c 2
 260 550 l 1
 260 382 l 1
 330 382 l 2
 349 382 365 382 378 383 c 0
EndSplineSet
Position2: "'cpsp' Capital Spacing in Latin lookup 0 subtable" dx=5 dy=0 dh=10 dv=0
EndChar

StartChar: Q
Encoding: 81 81 75
Width: 791
GlyphClass: 2
Flags: MW
HStem: -14 132<355 420> 2 116<355 574.5> 573 132<355 459>
VStem: 54 184<272 418.5 272 456> 576 184<303 418.5>
LayerCount: 2
Fore
SplineSet
672 127 m 1xb8
 709 116 742 97 779 66 c 1
 693 -48 l 1
 629 -9 598 2 551 2 c 0x78
 523 2 506 -1 478 -7 c 0
 456 -12 433 -14 407 -14 c 0
 192 -14 54 124 54 345 c 0
 54 567 192 705 407 705 c 0
 622 705 760 567 760 345 c 0
 760 261 731 182 672 127 c 1xb8
238 345 m 0
 238 199 303 118 407 118 c 0
 511 118 576 199 576 345 c 0
 576 492 511 573 407 573 c 0
 303 573 238 492 238 345 c 0
EndSplineSet
Position2: "'cpsp' Capital Spacing in Latin lookup 0 subtable" dx=5 dy=0 dh=10 dv=0
EndChar

StartChar: V
Encoding: 86 86 99
Width: 742
GlyphClass: 2
Flags: MW
HStem: 0 21G<281 501 281 281> 0 139<393 393 393 501 281 393> 670 20G<32 228 228 228 559 750 750 750>
VStem: 32 718<690 690>
LayerCount: 2
Fore
SplineSet
501 0 m 1xb0
 281 0 l 1
 32 690 l 1
 228 690 l 1
 393 139 l 1x70
 559 690 l 1
 750 690 l 1
 501 0 l 1xb0
EndSplineSet
Position2: "'cpsp' Capital Spacing in Latin lookup 0 subtable" dx=5 dy=0 dh=10 dv=0
EndChar

StartChar: W
Encoding: 87 87 100
Width: 1016
GlyphClass: 2
Flags: MW
HStem: 0 21G<192 433 192 192 613 853 613 613> 0 138<745 745 745 853 613 745> 670 20G<26 217 217 217 845 1029 1029 1029>
VStem: 26 1003<690 690>
LayerCount: 2
Fore
SplineSet
1029 690 m 1xb0
 853 0 l 1
 613 0 l 1
 526 537 l 1
 433 0 l 1
 192 0 l 1
 26 690 l 1
 217 690 l 1
 309 140 l 1
 400 680 l 1
 658 680 l 1
 745 138 l 1x70
 845 690 l 1
 1029 690 l 1xb0
EndSplineSet
Position2: "'cpsp' Capital Spacing in Latin lookup 0 subtable" dx=5 dy=0 dh=10 dv=0
EndChar

StartChar: X
Encoding: 88 88 105
Width: 717
GlyphClass: 2
Flags: MW
HStem: 0 21G<14 231 14 14 510 720 510 510> 670 20G<31 241 241 241 511 718 718 718>
VStem: 14 706<0 0>
LayerCount: 2
Fore
SplineSet
510 0 m 1
 365 233 l 1
 231 0 l 1
 14 0 l 1
 261 348 l 1
 31 690 l 1
 241 690 l 1
 371 460 l 1
 511 690 l 1
 718 690 l 1
 477 351 l 1
 720 0 l 1
 510 0 l 1
EndSplineSet
Position2: "'cpsp' Capital Spacing in Latin lookup 0 subtable" dx=5 dy=0 dh=10 dv=0
EndChar

StartChar: Y
Encoding: 89 89 106
Width: 663
GlyphClass: 2
Flags: MW
HStem: 0 21G<257 437 257 257> 670 20G<14 216 216 216 483 680 680 680>
VStem: 257 180<0 264 0 264>
LayerCount: 2
Fore
SplineSet
437 264 m 1
 437 0 l 1
 257 0 l 1
 257 264 l 1
 14 690 l 1
 216 690 l 1
 352 417 l 1
 483 690 l 1
 680 690 l 1
 437 264 l 1
EndSplineSet
Position2: "'cpsp' Capital Spacing in Latin lookup 0 subtable" dx=5 dy=0 dh=10 dv=0
EndChar

StartChar: Z
Encoding: 90 90 111
Width: 648
GlyphClass: 2
Flags: MW
HStem: 0 140<276 618 276 618> 550 140<81 394 81 614>
VStem: 53 565<0 136 136 136>
LayerCount: 2
Fore
SplineSet
618 140 m 1
 618 0 l 1
 53 0 l 1
 53 136 l 1
 394 550 l 1
 81 550 l 1
 81 690 l 1
 614 690 l 1
 614 551 l 1
 276 140 l 1
 618 140 l 1
EndSplineSet
Position2: "'cpsp' Capital Spacing in Latin lookup 0 subtable" dx=5 dy=0 dh=10 dv=0
EndChar

StartChar: bracketleft
Encoding: 91 91 263
Width: 410
Flags: MW
HStem: -80 96<209 382 209 382> 684 96<209 382 209 209>
VStem: 109 100<16 684 16 780 16 780>
LayerCount: 2
Fore
SplineSet
382 780 m 1
 382 684 l 1
 209 684 l 1
 209 16 l 1
 382 16 l 1
 382 -80 l 1
 109 -80 l 1
 109 780 l 1
 382 780 l 1
EndSplineSet
EndChar

StartChar: backslash
Encoding: 92 92 244
Width: 346
Flags: MW
HStem: -30 750<-5 351 -5 246>
VStem: -5 356
LayerCount: 2
Fore
SplineSet
351 -30 m 1
 246 -30 l 1
 -5 720 l 1
 100 720 l 1
 351 -30 l 1
EndSplineSet
EndChar

StartChar: bracketright
Encoding: 93 93 264
Width: 410
Flags: MW
HStem: -80 96<28 201 28 301 28 201> 684 96<28 201 28 301>
VStem: 201 100<16 684 684 684>
LayerCount: 2
Fore
SplineSet
301 -80 m 1
 28 -80 l 1
 28 16 l 1
 201 16 l 1
 201 684 l 1
 28 684 l 1
 28 780 l 1
 301 780 l 1
 301 -80 l 1
EndSplineSet
EndChar

StartChar: asciicircum
Encoding: 94 94 312
Width: 662
Flags: MW
HStem: 215 401<104 388 104 388 273 557 273 445>
VStem: 104 453<215 215>
LayerCount: 2
Fore
SplineSet
445 215 m 1
 329 518 l 1
 213 215 l 1
 104 215 l 1
 273 616 l 1
 388 616 l 1
 557 215 l 1
 445 215 l 1
EndSplineSet
EndChar

StartChar: underscore
Encoding: 95 95 260
Width: 500
Flags: MW
HStem: -88 96<50 450 50 450>
VStem: 50 400<-88 8 -88 8>
LayerCount: 2
Fore
SplineSet
450 -88 m 1
 50 -88 l 1
 50 8 l 1
 450 8 l 1
 450 -88 l 1
EndSplineSet
EndChar

StartChar: grave
Encoding: 96 96 331
Width: 300
Flags: MW
HStem: 571 125<123 128 -32 219 123 123>
VStem: -32 251<571 696>
LayerCount: 2
Fore
SplineSet
219 571 m 1
 123 571 l 1
 -32 696 l 1
 128 696 l 1
 219 571 l 1
EndSplineSet
EndChar

StartChar: b
Encoding: 98 98 126
Width: 669
GlyphClass: 2
Flags: MW
HStem: -14 122<370 378 316 460.5> 0 108<54 378> 426 122<315 482.5> 715 20G<54 234 234 234>
VStem: 54 180<0 69 197.5 251 251 274 456 735> 461 184<215.5 320>
LayerCount: 2
Fore
SplineSet
410 548 m 0xbc
 555 548 645 437 645 279 c 0
 645 89 529 -14 392 -14 c 0
 348 -14 296 -4 269 12 c 1
 234 69 l 1xbc
 234 0 l 1
 54 0 l 1x7c
 54 735 l 1
 234 735 l 1
 234 456 l 1
 274 515 l 1
 304 537 356 548 410 548 c 0xbc
343 108 m 0
 413 108 461 161 461 270 c 0
 461 370 411 426 348 426 c 0
 282 426 234 386 234 274 c 2
 234 251 l 2
 234 144 289 108 343 108 c 0
EndSplineSet
EndChar

StartChar: c
Encoding: 99 99 127
Width: 587
GlyphClass: 2
Flags: MW
HStem: -14 122<272.5 323.5 272.5 365.5> 426 122<271 323.5>
VStem: 24 184<215 323.5 215 353> 389 174<330 330>
AnchorPoint: "Anchor-0" 293 0 basechar 0
LayerCount: 2
Fore
SplineSet
305 548 m 0
 462 548 558 450 563 330 c 1
 389 330 l 1
 381 400 346 426 301 426 c 0
 241 426 208 375 208 272 c 0
 208 158 242 108 303 108 c 0
 344 108 378 138 388 196 c 1
 565 196 l 1
 545 58 438 -14 293 -14 c 0
 140 -14 24 85 24 261 c 0
 24 445 148 548 305 548 c 0
EndSplineSet
EndChar

StartChar: f
Encoding: 102 102 145
Width: 378
GlyphClass: 2
Flags: MW
HStem: 0 21G<76 256 76 76> 418 112<19 76 19 76 256 365> 631.73 122.27 726 20G<374 374>
VStem: 76 180<0 418 0 418 530 534 0 542>
LayerCount: 2
Fore
SplineSet
257 574 m 0xe8
 256 560 256 547 256 534 c 2
 256 530 l 1
 365 530 l 1
 365 418 l 1
 256 418 l 1
 256 0 l 1
 76 0 l 1
 76 418 l 1
 19 418 l 1
 19 530 l 1
 76 530 l 1
 76 534 l 2
 76 550 76 574 77 592 c 0
 85 692 149 754 314 754 c 0
 335 754 356 751 374 746 c 1xd8
 374 629 l 1
 309 640 262 621 257 574 c 0xe8
EndSplineSet
EndChar

StartChar: g
Encoding: 103 103 146
Width: 669
GlyphClass: 2
Flags: MW
HStem: -220 132<284 345.5 284 397.5> 6 122<289.5 296> 426 108<291 615> 426 122<291 299 208.5 353>
VStem: 24 184<226 330.5 226 358> 37 174<-33 -33> 435 180<83 136 98 136 280 283 283 336.5 465 534>
LayerCount: 2
Fore
SplineSet
615 534 m 1xea
 615 136 l 2
 615 103 615 62 614 33 c 0
 608 -142 488 -220 307 -220 c 0
 147 -220 50 -155 37 -33 c 2
 36 -23 l 1
 210 -23 l 1
 211 -33 l 2xd6
 215 -68 256 -88 312 -88 c 0
 379 -88 428 -59 433 13 c 0
 434 29 435 54 435 83 c 2
 435 98 l 1
 395 39 l 1
 365 17 323 6 269 6 c 0
 124 6 24 105 24 263 c 0
 24 453 140 548 277 548 c 0
 321 548 373 538 400 522 c 1
 435 465 l 1xda
 435 534 l 1
 615 534 l 1xea
321 128 m 0
 387 128 435 168 435 280 c 2
 435 283 l 2
 435 390 380 426 326 426 c 0
 256 426 208 385 208 276 c 0xda
 208 176 258 128 321 128 c 0
EndSplineSet
EndChar

StartChar: h
Encoding: 104 104 150
Width: 644
GlyphClass: 2
Flags: MW
HStem: 0 21G<54 234 54 54 416 596 416 416> 426 122<300.5 457> 720 20G<54 234 234 234>
VStem: 54 180<0 252 451 740> 416 180<0 272 272 280.5>
LayerCount: 2
Fore
SplineSet
591 403 m 0
 595 376 596 345 596 302 c 2
 596 0 l 1
 416 0 l 1
 416 272 l 2
 416 289 416 318 414 345 c 0
 410 396 382 426 328 426 c 0
 273 426 234 373 234 252 c 2
 234 0 l 1
 54 0 l 1
 54 740 l 1
 234 740 l 1
 234 451 l 1
 282 517 l 1
 315 537 353 548 402 548 c 0
 512 548 577 496 591 403 c 0
EndSplineSet
EndChar

StartChar: i
Encoding: 105 105 152
Width: 288
GlyphClass: 2
Flags: MW
HStem: 0 21G<54 234 54 54> 514 20G<54 234 234 234> 575 176<116 172>
VStem: 51 186<636 690> 54 180<0 534>
LayerCount: 2
Fore
SplineSet
144 751 m 0xf0
 200 751 237 717 237 663 c 0
 237 609 200 575 144 575 c 0
 88 575 51 609 51 663 c 0
 51 717 88 751 144 751 c 0xf0
234 0 m 1xe8
 54 0 l 1
 54 534 l 1
 234 534 l 1
 234 0 l 1xe8
EndSplineSet
EndChar

StartChar: j
Encoding: 106 106 161
Width: 282
GlyphClass: 2
Flags: MW
HStem: -210 125<-50 87.5> 514 20G<52 232 232 232> 575 176<110 174>
VStem: 49 186<632 694> 52 180<15 16 16 534>
LayerCount: 2
Fore
SplineSet
142 751 m 0xf0
 206 751 235 725 235 663 c 0
 235 601 206 575 142 575 c 0
 78 575 49 601 49 663 c 0
 49 725 78 751 142 751 c 0xf0
232 534 m 1xe8
 232 16 l 2
 232 -4 231 -30 230 -48 c 0
 223 -148 165 -210 10 -210 c 0
 -11 -210 -32 -209 -50 -206 c 1
 -50 -85 l 1
 15 -91 45 -80 50 -33 c 0
 51 -19 52 0 52 15 c 2
 52 534 l 1
 232 534 l 1xe8
EndSplineSet
EndChar

StartChar: k
Encoding: 107 107 162
Width: 632
GlyphClass: 2
Flags: MW
HStem: 0 21G<54 234 54 54 415 415 415 636> 514 20G<422 633 633 633> 715 20G<54 234 234 234>
VStem: 54 180<0 156 0 310 310 735>
AnchorPoint: "Anchor-0" 322 0 basechar 0
LayerCount: 2
Fore
SplineSet
272 198 m 1
 234 156 l 1
 234 0 l 1
 54 0 l 1
 54 735 l 1
 234 735 l 1
 234 310 l 1
 422 534 l 1
 633 534 l 1
 407 289 l 1
 636 0 l 1
 415 0 l 1
 272 198 l 1
EndSplineSet
EndChar

StartChar: m
Encoding: 109 109 170
Width: 966
GlyphClass: 2
Flags: MW
HStem: 0 21G<54 234 54 54 396 576 396 396 738 918 738 738> 426 108<54 338.5> 426 122<286 437.5>
VStem: 54 180<0 282 0 448 448 534> 396 180<0 272 272 280.5> 738 180<0 272 272 280.5>
LayerCount: 2
Fore
SplineSet
913 413 m 0xdc
 917 386 918 355 918 312 c 2
 918 0 l 1
 738 0 l 1
 738 272 l 2
 738 289 737 318 734 345 c 0
 728 396 704 426 657 426 c 0
 599 426 576 373 576 282 c 2
 576 0 l 1
 396 0 l 1
 396 272 l 2
 396 289 395 318 392 345 c 0
 386 396 362 426 315 426 c 0
 257 426 234 373 234 282 c 2
 234 0 l 1
 54 0 l 1
 54 534 l 1
 234 534 l 1
 234 448 l 1xdc
 277 517 l 1
 310 537 343 548 392 548 c 0
 483 548 540 503 563 444 c 1
 619 517 l 1
 652 537 685 548 734 548 c 0xbc
 841 548 901 486 913 413 c 0xdc
EndSplineSet
EndChar

StartChar: p
Encoding: 112 112 187
Width: 669
GlyphClass: 2
Flags: MW
HStem: -14 122<370 378 316 460.5> 426 108<54 379.5> 426 122<315 482.5>
VStem: 54 180<-196 69 197.5 251 251 274 456 534> 461 184<215.5 320>
LayerCount: 2
Fore
SplineSet
410 548 m 0xb8
 555 548 645 437 645 279 c 0
 645 89 529 -14 392 -14 c 0
 348 -14 296 -4 269 12 c 1
 234 69 l 1
 234 -196 l 1
 54 -196 l 1
 54 534 l 1
 234 534 l 1
 234 456 l 1xd8
 274 515 l 1
 304 537 356 548 410 548 c 0xb8
343 108 m 0
 413 108 461 161 461 270 c 0
 461 370 411 426 348 426 c 0
 282 426 234 386 234 274 c 2
 234 251 l 2
 234 144 289 108 343 108 c 0
EndSplineSet
EndChar

StartChar: q
Encoding: 113 113 189
Width: 669
GlyphClass: 2
Flags: MW
HStem: -14 122<186.5 354> 426 108<291 615> 426 122<291 299 208.5 353>
VStem: 24 184<214 318.5 214 350> 435 180<-196 78 78 78 260 283 283 336.5 465 534 -196 534>
LayerCount: 2
Fore
SplineSet
615 534 m 1xd8
 615 -196 l 1
 435 -196 l 1
 435 78 l 1
 395 19 l 1
 365 -3 313 -14 259 -14 c 0
 114 -14 24 97 24 255 c 0
 24 445 140 548 277 548 c 0
 321 548 373 538 400 522 c 1
 435 465 l 1xb8
 435 534 l 1
 615 534 l 1xd8
321 108 m 0
 387 108 435 148 435 260 c 2
 435 283 l 2
 435 390 380 426 326 426 c 0
 256 426 208 373 208 264 c 0
 208 164 258 108 321 108 c 0
EndSplineSet
EndChar

StartChar: r
Encoding: 114 114 190
Width: 420
GlyphClass: 2
Flags: MW
HStem: 0 21G<54 234 54 54> 514 20G<54 234 234 234> 525 20G<418 418> 528 20G<360 385.5>
VStem: 54 180<0 196 426 534>
AnchorPoint: "Anchor-0" 144 0 basechar 0
LayerCount: 2
Fore
SplineSet
377 548 m 0x98
 394 548 405 547 418 545 c 1xa8
 418 398 l 1
 283 407 234 357 234 196 c 2
 234 0 l 1
 54 0 l 1
 54 534 l 1
 234 534 l 1xc8
 234 426 l 1
 272 501 l 1
 301 533 343 548 377 548 c 0x98
EndSplineSet
EndChar

StartChar: v
Encoding: 118 118 214
Width: 608
GlyphClass: 2
Flags: MW
HStem: 0 21G<211 405 211 211> 0 143<310 310 310 405 211 310> 514 20G<0 200 200 200 419 616 616 616>
VStem: 0 616<534 534>
LayerCount: 2
Fore
SplineSet
616 534 m 1xb0
 405 0 l 1
 211 0 l 1
 0 534 l 1
 200 534 l 1
 310 143 l 1x70
 419 534 l 1
 616 534 l 1xb0
EndSplineSet
EndChar

StartChar: w
Encoding: 119 119 215
Width: 868
GlyphClass: 2
Flags: MW
HStem: 0 21G<169 370 169 169 506 707 506 506> 0 151<614 614 614 707 506 614> 514 20G<0 198 198 198 682 876 876 876>
VStem: 0 876<534 534>
LayerCount: 2
Fore
SplineSet
876 534 m 1xb0
 707 0 l 1
 506 0 l 1
 438 360 l 1
 370 0 l 1
 169 0 l 1
 0 534 l 1
 198 534 l 1
 268 152 l 1
 332 530 l 1
 546 530 l 1
 614 151 l 1x70
 682 534 l 1
 876 534 l 1xb0
EndSplineSet
EndChar

StartChar: x
Encoding: 120 120 220
Width: 590
GlyphClass: 2
Flags: MW
HStem: 0 21G<-1 206 -1 -1 381 591 381 381> 514 20G<6 216 216 216 382 589 589 589>
VStem: -1 592<0 0>
LayerCount: 2
Fore
SplineSet
407 269 m 1
 591 0 l 1
 381 0 l 1
 296 161 l 1
 206 0 l 1
 -1 0 l 1
 185 271 l 1
 6 534 l 1
 216 534 l 1
 300 380 l 1
 382 534 l 1
 589 534 l 1
 407 269 l 1
EndSplineSet
EndChar

StartChar: z
Encoding: 122 122 226
Width: 526
GlyphClass: 2
Flags: MW
HStem: 0 112<227 497 227 497> 418 112<49 304 49 494>
VStem: 34 463<0 105 105 105>
LayerCount: 2
Fore
SplineSet
497 112 m 1
 497 0 l 1
 34 0 l 1
 34 105 l 1
 304 418 l 1
 49 418 l 1
 49 530 l 1
 494 530 l 1
 494 420 l 1
 227 112 l 1
 497 112 l 1
EndSplineSet
EndChar

StartChar: braceleft
Encoding: 123 123 261
Width: 430
Flags: MW
HStem: -80 96<259 360 338 360 338 360> 302 96<113 113> 684 96<313.5 338 338 360>
VStem: 174 100<38.5 53 647 661.5> 195 100<240 258 442 460>
LayerCount: 2
Fore
SplineSet
360 684 m 1xb0
 338 684 l 2
 289 684 274 679 274 644 c 0xb0
 274 630 276 609 284 555 c 0
 291 510 295 468 295 452 c 0
 295 397 268 365 210 353 c 1
 268 339 295 303 295 248 c 0xa8
 295 232 291 190 284 145 c 0
 276 91 274 70 274 56 c 0
 274 21 289 16 338 16 c 2
 360 16 l 1
 360 -80 l 1
 309 -80 l 2
 209 -80 174 -43 174 36 c 0xb0
 174 70 178 103 186 155 c 0
 192 195 195 222 195 245 c 0
 195 271 182 298 113 302 c 1
 113 398 l 1
 182 402 195 429 195 455 c 0xe8
 195 478 192 505 186 545 c 0
 178 597 174 630 174 664 c 0
 174 743 209 780 309 780 c 2
 360 780 l 1
 360 684 l 1xb0
EndSplineSet
EndChar

StartChar: bar
Encoding: 124 124 314
Width: 312
Flags: MW
HStem: -200 1000<98 214 98 214>
VStem: 98 116<-200 800>
LayerCount: 2
Fore
SplineSet
214 -200 m 1
 98 -200 l 1
 98 800 l 1
 214 800 l 1
 214 -200 l 1
EndSplineSet
EndChar

StartChar: braceright
Encoding: 125 125 262
Width: 430
Flags: MW
HStem: -80 96<70 92 92 116.5 70 121 70 92> 302 96<317 317> 684 96<70 92 70 121>
VStem: 135 100<240 258 233.5 275.5 442 460> 156 100<38.5 53 -3.5 63 647 661.5>
LayerCount: 2
Fore
SplineSet
317 398 m 1xf0
 317 302 l 1
 248 298 235 271 235 245 c 0xf0
 235 222 238 195 244 155 c 0
 252 103 256 70 256 36 c 0
 256 -43 221 -80 121 -80 c 2
 70 -80 l 1
 70 16 l 1
 92 16 l 2
 141 16 156 21 156 56 c 0xa8
 156 70 154 91 146 145 c 0
 139 190 135 232 135 248 c 0
 135 303 162 335 220 347 c 1
 162 361 135 397 135 452 c 0xb0
 135 468 139 510 146 555 c 0
 154 609 156 630 156 644 c 0
 156 679 141 684 92 684 c 2
 70 684 l 1
 70 780 l 1
 121 780 l 2
 221 780 256 743 256 664 c 0xa8
 256 630 252 597 244 545 c 0
 238 505 235 478 235 455 c 0
 235 429 248 402 317 398 c 1xf0
EndSplineSet
EndChar

StartChar: asciitilde
Encoding: 126 126 288
Width: 662
Flags: MW
HStem: 223 183<176.5 183 87 241.5 480 486.5>
VStem: 87 96<223 248 223 286> 480 96<377.5 406>
LayerCount: 2
Fore
SplineSet
480 406 m 1
 576 406 l 1
 576 281 529 223 444 223 c 0
 401 223 369 238 318 264 c 0
 268 290 248 299 228 299 c 0
 194 299 183 273 183 223 c 1
 87 223 l 1
 87 349 134 406 219 406 c 0
 264 406 297 390 345 365 c 0
 390 341 412 330 435 330 c 0
 465 330 480 349 480 406 c 1
EndSplineSet
EndChar

StartChar: exclamdown
Encoding: 161 161 250
Width: 280
Flags: MW
HStem: 365 179<113.5 166.5>
VStem: 50 180<428.5 481.5> 65 150
LayerCount: 2
Fore
SplineSet
140 365 m 0xc0
 87 365 50 402 50 455 c 0
 50 508 87 544 140 544 c 0
 193 544 230 508 230 455 c 0
 230 402 193 365 140 365 c 0xc0
71 320 m 1xa0
 209 320 l 1
 221 -160 l 1
 59 -160 l 1
 71 320 l 1xa0
EndSplineSet
EndChar

StartChar: cent
Encoding: 162 162 281
Width: 662
Flags: MW
HStem: -11 21G<288 288> -10 21G<388 388> 519 20G<288 288> 521 20G<388 388>
VStem: 63 164<231 305.5 231 339.5> 288 100<-90 -11 -11 -11 123 408 408 408 541 620> 448 154<326 326>
LayerCount: 2
Fore
SplineSet
447 196 m 1x5e
 604 196 l 1
 587 76 504 6 388 -10 c 1
 388 -90 l 1
 288 -90 l 1x5e
 288 -11 l 1
 157 7 63 108 63 259 c 0
 63 420 159 518 288 539 c 1
 288 620 l 1
 388 620 l 1xae
 388 541 l 1
 519 525 597 434 602 326 c 1
 448 326 l 1
 443 372 417 399 388 412 c 1
 388 119 l 1
 416 133 441 159 447 196 c 1x5e
227 270 m 0
 227 192 252 145 288 123 c 1
 288 408 l 1
 252 387 227 341 227 270 c 0
EndSplineSet
EndChar

StartChar: sterling
Encoding: 163 163 285
Width: 662
Flags: MW
HStem: 0 140<268 600 268 600> 289 88<71 116 71 153 71 116 341 341 341 505> 572 132<325.5 366>
VStem: 94 188<481 520.5 481 556> 162 182<228.5 238.5> 413 180<493 493>
LayerCount: 2
Fore
SplineSet
600 140 m 1xf4
 600 0 l 1
 62 0 l 1
 62 124 l 1
 136 137 162 177 162 230 c 0
 162 247 160 266 153 289 c 1
 71 289 l 1
 71 377 l 1xec
 116 377 l 1
 101 415 94 444 94 488 c 0
 94 624 195 704 344 704 c 0
 513 704 585 602 593 493 c 1
 413 493 l 1
 410 537 388 572 344 572 c 0
 307 572 282 541 282 500 c 0
 282 462 288 434 311 377 c 1xf4
 505 377 l 1
 505 289 l 1
 341 289 l 1
 343 276 344 265 344 251 c 0
 344 206 317 164 268 140 c 1xec
 600 140 l 1xf4
EndSplineSet
EndChar

StartChar: currency
Encoding: 164 164 282
Width: 662
Flags: MW
HStem: 121 94<313 349> 387 94<313 349 313 354>
VStem: 151 104<283.5 318.5> 407 104<283.5 318.5 283.5 327>
LayerCount: 2
Fore
SplineSet
511 301 m 0
 511 266 501 233 484 206 c 1
 536 154 l 1
 479 97 l 1
 427 149 l 1
 400 131 367 121 331 121 c 0
 295 121 262 131 235 149 c 1
 183 97 l 1
 126 154 l 1
 178 206 l 1
 161 233 151 266 151 301 c 0
 151 336 161 369 178 396 c 1
 126 448 l 1
 183 505 l 1
 235 453 l 1
 262 471 295 481 331 481 c 0
 367 481 400 471 427 453 c 1
 479 505 l 1
 536 448 l 1
 484 396 l 1
 501 369 511 336 511 301 c 0
331 215 m 0
 377 215 407 249 407 301 c 0
 407 353 377 387 331 387 c 0
 285 387 255 353 255 301 c 0
 255 249 285 215 331 215 c 0
EndSplineSet
EndChar

StartChar: yen
Encoding: 165 165 286
Width: 662
Flags: MW
HStem: 0 227<91 421 91 241> 131 96<91 241 91 241 421 571> 284 96<91 196 91 241 91 196 466 571> 670 20G<24 210 210 210 457 638 638 638>
VStem: 241 180<0 131 0 131 227 284 0 284>
LayerCount: 2
Fore
SplineSet
466 380 m 1xb8
 571 380 l 1
 571 284 l 1
 421 284 l 1
 421 227 l 1
 571 227 l 1xb8
 571 131 l 1
 421 131 l 1x78
 421 0 l 1
 241 0 l 1xb8
 241 131 l 1
 91 131 l 1x78
 91 227 l 1
 241 227 l 1
 241 284 l 1
 91 284 l 1
 91 380 l 1
 196 380 l 1
 24 690 l 1
 210 690 l 1
 335 390 l 1
 457 690 l 1
 638 690 l 1
 466 380 l 1xb8
EndSplineSet
EndChar

StartChar: brokenbar
Encoding: 166 166 315
Width: 296
Flags: MW
HStem: 670 20G<98 198 198 198>
VStem: 98 100<-160 180 350 690>
LayerCount: 2
Fore
SplineSet
198 350 m 1
 98 350 l 1
 98 690 l 1
 198 690 l 1
 198 350 l 1
198 -160 m 1
 98 -160 l 1
 98 180 l 1
 198 180 l 1
 198 -160 l 1
EndSplineSet
EndChar

StartChar: section
Encoding: 167 167 322
Width: 630
Flags: MW
HStem: -174 112<289 324 289 373.5> 526 178<364 384.5 247 541 364 364> 592 112<295.5 324>
VStem: 22 180<280.5 312 280.5 327> 83 180<510.5 554 510.5 563> 365 180<-26.5 12> 427 180<208 240>
LayerCount: 2
Fore
SplineSet
607 234 m 0xaa
 607 166 574 117 523 87 c 1
 538 65 545 39 545 8 c 0
 545 -107 441 -174 306 -174 c 0
 167 -174 65 -114 51 6 c 1
 228 6 l 1
 238 -35 270 -62 308 -62 c 0
 340 -62 365 -44 365 -9 c 0
 365 33 337 63 211 102 c 0
 91 139 22 183 22 296 c 0xd4
 22 358 50 408 98 441 c 1
 88 460 83 481 83 505 c 0
 83 621 176 704 318 704 c 0
 451 704 527 631 541 526 c 1
 364 526 l 1xcc
 356 571 340 592 308 592 c 0
 283 592 263 572 263 536 c 0
 263 485 284 465 386 438 c 0
 537 398 607 341 607 234 c 0xaa
303 214 m 0
 342 201 377 188 407 174 c 1
 419 184 427 198 427 218 c 0
 427 262 398 290 313 314 c 0
 276 324 245 335 217 347 c 1
 207 337 202 322 202 302 c 0xd2
 202 259 235 237 303 214 c 0
EndSplineSet
EndChar

StartChar: dieresis
Encoding: 168 168 329
Width: 300
Flags: MW
HStem: 569 146<27.5 72.5 227.5 272.5>
VStem: -25 150<619.5 664.5> 175 150<619.5 664.5>
LayerCount: 2
Fore
SplineSet
50 715 m 0
 95 715 125 687 125 642 c 0
 125 597 95 569 50 569 c 0
 5 569 -25 597 -25 642 c 0
 -25 687 5 715 50 715 c 0
250 715 m 0
 295 715 325 687 325 642 c 0
 325 597 295 569 250 569 c 0
 205 569 175 597 175 642 c 0
 175 687 205 715 250 715 c 0
EndSplineSet
EndChar

StartChar: guillemotleft
Encoding: 171 171 270
Width: 697
Flags: MW
HStem: 82 332<284 413 284 413 284 524 524 653>
VStem: 147 506<82 248>
LayerCount: 2
Fore
SplineSet
413 414 m 1
 276 248 l 1
 413 82 l 1
 284 82 l 1
 147 248 l 1
 284 414 l 1
 413 414 l 1
653 414 m 1
 516 248 l 1
 653 82 l 1
 524 82 l 1
 387 248 l 1
 524 414 l 1
 653 414 l 1
EndSplineSet
EndChar

StartChar: logicalnot
Encoding: 172 172 298
Width: 662
Flags: MW
HStem: 302 96<120 432 120 532>
VStem: 432 100<172 302 302 302>
LayerCount: 2
Fore
SplineSet
532 172 m 1
 432 172 l 1
 432 302 l 1
 120 302 l 1
 120 398 l 1
 532 398 l 1
 532 172 l 1
EndSplineSet
EndChar

StartChar: registered
Encoding: 174 174 321
Width: 486
Flags: MW
HStem: 344 56<199 287 199 305> 523 46<222 231 231 235 222 231> 622 45<222 232 222 222> 708 56<199 287>
VStem: 33 60<509 599 509 615.5> 162 60<453 523 453 569 569 622> 251 85 393 60<509 599>
LayerCount: 2
Fore
SplineSet
243 764 m 0
 367 764 453 677 453 554 c 0
 453 431 367 344 243 344 c 0
 119 344 33 431 33 554 c 0
 33 677 119 764 243 764 c 0
243 400 m 0
 331 400 393 464 393 554 c 0
 393 644 331 708 243 708 c 0
 155 708 93 644 93 554 c 0
 93 464 155 400 243 400 c 0
297 553 m 1xff
 316 547 323 529 325 507 c 0
 328 480 333 464 338 453 c 1
 271 453 l 1
 268 465 266 479 264 494 c 0xff
 261 513 253 523 235 523 c 2
 222 523 l 1
 222 453 l 1
 162 453 l 1
 162 667 l 1
 239 667 l 2xfd
 249 667 257 667 266 666 c 0
 315 661 336 637 336 605 c 0
 336 577 319 560 297 553 c 1xff
251 570 m 0xfd
 264 572 271 584 271 595 c 0xfd
 271 609 263 619 251 621 c 0xff
 244 622 240 622 232 622 c 2
 222 622 l 1
 222 569 l 1
 231 569 l 2
 239 569 244 569 251 570 c 0xfd
EndSplineSet
EndChar

StartChar: macron
Encoding: 175 175 333
Width: 300
Flags: MW
HStem: 586 96<0 300 0 300>
VStem: 0 300<586 682 586 682>
LayerCount: 2
Fore
SplineSet
300 586 m 1
 0 586 l 1
 0 682 l 1
 300 682 l 1
 300 586 l 1
EndSplineSet
EndChar

StartChar: degree
Encoding: 176 176 319
Width: 320
Flags: MW
HStem: 434 88<148 172 148 201> 616 88<148 172>
VStem: 20 94<555 583 555 608.5> 206 94<555 583>
LayerCount: 2
Fore
SplineSet
160 704 m 0
 242 704 300 648 300 569 c 0
 300 490 242 434 160 434 c 0
 78 434 20 490 20 569 c 0
 20 648 78 704 160 704 c 0
160 616 m 0
 136 616 114 597 114 569 c 0
 114 541 136 522 160 522 c 0
 184 522 206 541 206 569 c 0
 206 597 184 616 160 616 c 0
EndSplineSet
EndChar

StartChar: plusminus
Encoding: 177 177 306
Width: 662
Flags: MW
HStem: 0 88<131 531 131 531> 270 96<131 281 131 281 381 531>
VStem: 281 100<126 270 126 270 366 508>
LayerCount: 2
Fore
SplineSet
381 366 m 1
 531 366 l 1
 531 270 l 1
 381 270 l 1
 381 126 l 1
 281 126 l 1
 281 270 l 1
 131 270 l 1
 131 366 l 1
 281 366 l 1
 281 508 l 1
 381 508 l 1
 381 366 l 1
531 0 m 1
 131 0 l 1
 131 88 l 1
 531 88 l 1
 531 0 l 1
EndSplineSet
EndChar

StartChar: acute
Encoding: 180 180 324
Width: 300
Flags: MW
HStem: 571 125<187 192 96 347>
VStem: 96 251<571 696>
LayerCount: 2
Fore
SplineSet
192 571 m 1
 96 571 l 1
 187 696 l 1
 347 696 l 1
 192 571 l 1
EndSplineSet
EndChar

StartChar: paragraph
Encoding: 182 182 320
Width: 618
Flags: MW
HStem: 594 96<351 464 351 351>
VStem: 251 100<-110 320 320 320 -110 690> 464 100<-110 594 594 594>
LayerCount: 2
Fore
SplineSet
564 690 m 1
 564 -110 l 1
 464 -110 l 1
 464 594 l 1
 351 594 l 1
 351 -110 l 1
 251 -110 l 1
 251 320 l 1
 233 320 212 320 195 321 c 0
 93 327 38 410 38 505 c 0
 38 600 93 683 195 689 c 0
 212 690 233 690 251 690 c 2
 564 690 l 1
EndSplineSet
EndChar

StartChar: periodcentered
Encoding: 183 183 253
Width: 280
Flags: MW
HStem: 205 200<110.5 169.5>
VStem: 40 200<275.5 334.5>
LayerCount: 2
Fore
SplineSet
140 405 m 0
 199 405 240 364 240 305 c 0
 240 246 199 205 140 205 c 0
 81 205 40 246 40 305 c 0
 40 364 81 405 140 405 c 0
EndSplineSet
EndChar

StartChar: cedilla
Encoding: 184 184 327
Width: 300
Flags: MW
HStem: -210 69<89.5 117.5 89.5 141> -88 97<59 194>
VStem: 156 108<-123 -104>
LayerCount: 2
Fore
SplineSet
194 9 m 1
 169 -42 l 1
 232 -49 264 -74 264 -119 c 0
 264 -188 187 -210 95 -210 c 0
 75 -210 57 -209 38 -204 c 1
 38 -134 l 1
 63 -140 83 -141 96 -141 c 0
 139 -141 156 -132 156 -114 c 0
 156 -94 134 -83 59 -88 c 1
 106 9 l 1
 194 9 l 1
EndSplineSet
EndChar

StartChar: guillemotright
Encoding: 187 187 271
Width: 664
Flags: MW
HStem: 82 332<44 173 44 173 44 284 284 413>
VStem: 44 506<82 248 248 414>
LayerCount: 2
Fore
SplineSet
310 248 m 1
 173 82 l 1
 44 82 l 1
 181 248 l 1
 44 414 l 1
 173 414 l 1
 310 248 l 1
550 248 m 1
 413 82 l 1
 284 82 l 1
 421 248 l 1
 284 414 l 1
 413 414 l 1
 550 248 l 1
EndSplineSet
EndChar

StartChar: questiondown
Encoding: 191 191 255
Width: 559
Flags: MW
HStem: -170 132<282 328 282 373.5> 369 179<273.5 326.5>
VStem: 48 188<13 55.5 13 63> 210 180<432.5 485.5> 229 146<324 324> 379 180<60 60>
LayerCount: 2
Fore
SplineSet
300 369 m 0xd0
 247 369 210 406 210 459 c 0
 210 512 247 548 300 548 c 0
 353 548 390 512 390 459 c 0
 390 406 353 369 300 369 c 0xd0
293 -170 m 0xe4
 139 -170 48 -100 48 23 c 0xe0
 48 103 82 148 154 206 c 0
 204 247 223 271 229 324 c 1
 375 324 l 1xc8
 373 243 353 207 310 161 c 0
 256 104 236 73 236 38 c 0
 236 -12 258 -38 306 -38 c 0
 350 -38 376 -7 379 60 c 1
 559 60 l 1
 555 -84 454 -170 293 -170 c 0xe4
EndSplineSet
EndChar

StartChar: Agrave
Encoding: 192 192 6
Width: 707
GlyphClass: 2
Flags: MW
HStem: 0 21G<4 195 4 4 526 526 526 722> 179 140<297 425 297 468 253 425> 531 159<361 361> 670 20G<253 473 473 473> 735 125<328 328 328 333 173 424>
VStem: 4 718<0 0>
LayerCount: 2
Fore
SplineSet
328 735 m 1xdc
 173 860 l 1
 333 860 l 1
 424 735 l 1
 328 735 l 1xdc
468 179 m 1
 253 179 l 1
 195 0 l 1
 4 0 l 1
 253 690 l 1
 473 690 l 1
 722 0 l 1
 526 0 l 1
 468 179 l 1
361 531 m 1xec
 297 319 l 1
 425 319 l 1
 361 531 l 1xec
EndSplineSet
Position2: "'cpsp' Capital Spacing in Latin lookup 0 subtable" dx=5 dy=0 dh=10 dv=0
EndChar

StartChar: Aacute
Encoding: 193 193 2
Width: 707
GlyphClass: 2
Flags: MW
HStem: 0 21G<4 195 4 4 526 526 526 722> 179 140<297 425 297 468 253 425> 531 159<361 361> 670 20G<253 473 473 473> 735 125<400 405 309 560>
VStem: 4 718<0 0>
LayerCount: 2
Fore
SplineSet
405 735 m 1xdc
 309 735 l 1
 400 860 l 1
 560 860 l 1
 405 735 l 1xdc
468 179 m 1
 253 179 l 1
 195 0 l 1
 4 0 l 1
 253 690 l 1
 473 690 l 1
 722 0 l 1
 526 0 l 1
 468 179 l 1
361 531 m 1xec
 297 319 l 1
 425 319 l 1
 361 531 l 1xec
EndSplineSet
Position2: "'cpsp' Capital Spacing in Latin lookup 0 subtable" dx=5 dy=0 dh=10 dv=0
EndChar

StartChar: Acircumflex
Encoding: 194 194 4
Width: 707
GlyphClass: 2
Flags: MW
HStem: 0 21G<4 195 4 4 526 526 526 722> 179 140<297 425 297 468 253 425> 531 159<361 361> 670 20G<253 473 473 473> 735 125<289 330 227 438 396 396 396 438 289 500>
VStem: 4 718<0 0>
LayerCount: 2
Fore
SplineSet
330 735 m 1xdc
 227 735 l 1
 289 860 l 1
 438 860 l 1
 500 735 l 1
 396 735 l 1
 362 811 l 1
 330 735 l 1xdc
468 179 m 1
 253 179 l 1
 195 0 l 1
 4 0 l 1
 253 690 l 1
 473 690 l 1
 722 0 l 1
 526 0 l 1
 468 179 l 1
361 531 m 1xec
 297 319 l 1
 425 319 l 1
 361 531 l 1xec
EndSplineSet
Position2: "'cpsp' Capital Spacing in Latin lookup 0 subtable" dx=5 dy=0 dh=10 dv=0
EndChar

StartChar: Atilde
Encoding: 195 195 10
Width: 707
GlyphClass: 2
Flags: MW
HStem: 0 21G<4 195 4 4 526 526 526 722> 179 140<297 425 297 468 253 425> 531 159<361 361> 670 20G<253 473 473 473> 739 134<431 468> 742 134<258 295 199 303.5>
VStem: 199 96<742 753 742 788.5> 431 96<862 873>
LayerCount: 2
Fore
SplineSet
310 773 m 0xd7
 299 773 295 764 295 742 c 1
 199 742 l 1
 199 835 227 876 289 876 c 0xd7
 318 876 335 873 371 857 c 0
 395 846 408 842 416 842 c 0
 427 842 431 851 431 873 c 1
 527 873 l 1
 527 780 499 739 437 739 c 0xdb
 408 739 392 742 355 758 c 0
 331 768 318 773 310 773 c 0xd7
468 179 m 1
 253 179 l 1
 195 0 l 1
 4 0 l 1
 253 690 l 1
 473 690 l 1
 722 0 l 1
 526 0 l 1
 468 179 l 1
361 531 m 1xe7
 297 319 l 1
 425 319 l 1
 361 531 l 1xe7
EndSplineSet
Position2: "'cpsp' Capital Spacing in Latin lookup 0 subtable" dx=5 dy=0 dh=10 dv=0
EndChar

StartChar: Adieresis
Encoding: 196 196 5
Width: 707
GlyphClass: 2
Flags: MW
HStem: 0 21G<4 195 4 4 526 526 526 722> 179 140<297 425 297 468 253 425> 531 159<361 361> 670 20G<253 473 473 473> 722 146<240.5 285.5 440.5 485.5>
VStem: 188 150<772.5 817.5> 388 150<772.5 817.5>
LayerCount: 2
Fore
SplineSet
263 722 m 0xde
 218 722 188 750 188 795 c 0
 188 840 218 868 263 868 c 0
 308 868 338 840 338 795 c 0
 338 750 308 722 263 722 c 0xde
463 722 m 0
 418 722 388 750 388 795 c 0
 388 840 418 868 463 868 c 0
 508 868 538 840 538 795 c 0
 538 750 508 722 463 722 c 0
468 179 m 1
 253 179 l 1
 195 0 l 1
 4 0 l 1
 253 690 l 1
 473 690 l 1
 722 0 l 1
 526 0 l 1
 468 179 l 1
361 531 m 1xee
 297 319 l 1
 425 319 l 1
 361 531 l 1xee
EndSplineSet
Position2: "'cpsp' Capital Spacing in Latin lookup 0 subtable" dx=5 dy=0 dh=10 dv=0
EndChar

StartChar: Aring
Encoding: 197 197 9
Width: 707
GlyphClass: 2
Flags: MW
HStem: 0 21G<4 195 4 4 526 526 526 722> 179 140<297 425 297 468 253 425> 531 159<361 361> 670 20G<253 473 473 473> 722 66<352.5 373.5 352.5 398> 866 66<352.5 373.5>
VStem: 244 83<815.5 838.5 815.5 858> 399 83<815.5 838.5>
LayerCount: 2
Fore
SplineSet
363 722 m 0xdf
 293 722 244 765 244 827 c 0
 244 889 293 932 363 932 c 0
 433 932 482 889 482 827 c 0
 482 765 433 722 363 722 c 0xdf
363 866 m 0
 342 866 327 850 327 827 c 0
 327 804 342 788 363 788 c 0
 384 788 399 804 399 827 c 0
 399 850 384 866 363 866 c 0
468 179 m 1
 253 179 l 1
 195 0 l 1
 4 0 l 1
 253 690 l 1
 473 690 l 1
 722 0 l 1
 526 0 l 1
 468 179 l 1
361 531 m 1xef
 297 319 l 1
 425 319 l 1
 361 531 l 1xef
EndSplineSet
Position2: "'cpsp' Capital Spacing in Latin lookup 0 subtable" dx=5 dy=0 dh=10 dv=0
EndChar

StartChar: AE
Encoding: 198 198 11
Width: 996
GlyphClass: 2
Flags: MW
HStem: 0 140<634 966 634 966> 209 140<315 430 315 446 248 430> 276 140<618 936 618 618> 550 140<591 956 591 591>
VStem: -42 1008<0 140>
LayerCount: 2
Fore
SplineSet
966 140 m 1xb8
 966 0 l 1
 470 0 l 1
 446 209 l 1
 248 209 l 1xd8
 149 0 l 1
 -42 0 l 1
 317 690 l 1
 956 690 l 1
 956 550 l 1
 591 550 l 1
 585 560 l 1
 602 416 l 1
 936 416 l 1
 936 276 l 1
 618 276 l 1
 634 140 l 1
 966 140 l 1xb8
430 349 m 1
 407 543 l 1
 315 349 l 1
 430 349 l 1
EndSplineSet
Position2: "'cpsp' Capital Spacing in Latin lookup 0 subtable" dx=5 dy=0 dh=10 dv=0
EndChar

StartChar: Ccedilla
Encoding: 199 199 16
Width: 734
GlyphClass: 2
Flags: MW
HStem: -210 69<317.5 345.5 317.5 369> -9 21G<325 325> 572 132<350 429.5>
VStem: 54 188<264 425.5 264 460> 384 108<-123 -104>
AnchorPoint: "Anchor-0" 378 0 basechar 0
LayerCount: 2
Fore
SplineSet
526 247 m 1
 706 247 l 1
 705 237 l 2
 689 78 572 -6 411 -13 c 1
 397 -42 l 1
 460 -49 492 -74 492 -119 c 0
 492 -188 415 -210 323 -210 c 0
 303 -210 285 -209 266 -204 c 1
 266 -134 l 1
 291 -140 311 -141 324 -141 c 0
 367 -141 384 -132 384 -114 c 0
 384 -94 362 -83 287 -88 c 1
 325 -9 l 1
 170 15 54 133 54 340 c 0
 54 580 208 704 395 704 c 0
 592 704 693 599 707 463 c 2
 708 453 l 1
 528 453 l 1
 526 463 l 2
 511 537 466 572 393 572 c 0
 307 572 242 500 242 351 c 0
 242 177 314 118 394 118 c 0
 464 118 509 161 524 237 c 2
 526 247 l 1
EndSplineSet
Position2: "'cpsp' Capital Spacing in Latin lookup 0 subtable" dx=5 dy=0 dh=10 dv=0
EndChar

StartChar: Ecircumflex
Encoding: 202 202 25
Width: 639
GlyphClass: 2
Flags: MW
HStem: 0 140<260 609 260 609> 276 140<260 579 260 579> 550 140<260 599 260 260> 735 125<266 307 204 415 373 373 373 415 266 477>
VStem: 80 180<140 276 416 550>
AnchorPoint: "Anchor-0" 328 0 basechar 0
LayerCount: 2
Fore
SplineSet
307 735 m 1
 204 735 l 1
 266 860 l 1
 415 860 l 1
 477 735 l 1
 373 735 l 1
 339 811 l 1
 307 735 l 1
609 140 m 1
 609 0 l 1
 80 0 l 1
 80 690 l 1
 599 690 l 1
 599 550 l 1
 260 550 l 1
 260 416 l 1
 579 416 l 1
 579 276 l 1
 260 276 l 1
 260 140 l 1
 609 140 l 1
EndSplineSet
Position2: "'cpsp' Capital Spacing in Latin lookup 0 subtable" dx=5 dy=0 dh=10 dv=0
EndChar

StartChar: Edieresis
Encoding: 203 203 26
Width: 639
GlyphClass: 2
Flags: MW
HStem: 0 140<260 609 260 609> 276 140<260 579 260 579> 550 140<260 599 260 260> 722 146<217.5 262.5 417.5 462.5>
VStem: 80 180<140 276 416 550> 165 150<772.5 817.5> 365 150<772.5 817.5>
AnchorPoint: "Anchor-0" 328 0 basechar 0
LayerCount: 2
Fore
SplineSet
240 722 m 0xf6
 195 722 165 750 165 795 c 0
 165 840 195 868 240 868 c 0
 285 868 315 840 315 795 c 0
 315 750 285 722 240 722 c 0xf6
440 722 m 0
 395 722 365 750 365 795 c 0
 365 840 395 868 440 868 c 0
 485 868 515 840 515 795 c 0
 515 750 485 722 440 722 c 0
609 140 m 1
 609 0 l 1
 80 0 l 1
 80 690 l 1
 599 690 l 1
 599 550 l 1
 260 550 l 1
 260 416 l 1
 579 416 l 1
 579 276 l 1
 260 276 l 1
 260 140 l 1xe8
 609 140 l 1
EndSplineSet
Position2: "'cpsp' Capital Spacing in Latin lookup 0 subtable" dx=5 dy=0 dh=10 dv=0
EndChar

StartChar: Igrave
Encoding: 204 204 44
Width: 314
GlyphClass: 2
Flags: MW
HStem: 0 21G<80 260 80 80> 670 20G<80 260 260 260> 735 125<135 140 -20 231 135 135>
VStem: 80 180<0 690>
LayerCount: 2
Fore
SplineSet
231 735 m 1
 135 735 l 1
 -20 860 l 1
 140 860 l 1
 231 735 l 1
260 0 m 1
 80 0 l 1
 80 690 l 1
 260 690 l 1
 260 0 l 1
EndSplineSet
Position2: "'cpsp' Capital Spacing in Latin lookup 0 subtable" dx=5 dy=0 dh=10 dv=0
EndChar

StartChar: Iacute
Encoding: 205 205 40
Width: 314
GlyphClass: 2
Flags: MW
HStem: 0 21G<80 260 80 80> 670 20G<80 260 260 260> 735 125<207 212 116 367>
VStem: 80 180<0 690>
LayerCount: 2
Fore
SplineSet
212 735 m 1
 116 735 l 1
 207 860 l 1
 367 860 l 1
 212 735 l 1
260 0 m 1
 80 0 l 1
 80 690 l 1
 260 690 l 1
 260 0 l 1
EndSplineSet
Position2: "'cpsp' Capital Spacing in Latin lookup 0 subtable" dx=5 dy=0 dh=10 dv=0
EndChar

StartChar: Icircumflex
Encoding: 206 206 41
Width: 314
GlyphClass: 2
Flags: MW
HStem: 0 21G<80 260 80 80> 670 20G<80 260 260 260> 735 125<96 137 34 245 203 203 203 245 96 307>
VStem: 80 180<0 690 0 690>
LayerCount: 2
Fore
SplineSet
137 735 m 1
 34 735 l 1
 96 860 l 1
 245 860 l 1
 307 735 l 1
 203 735 l 1
 169 811 l 1
 137 735 l 1
80 690 m 1
 260 690 l 1
 260 0 l 1
 80 0 l 1
 80 690 l 1
EndSplineSet
Position2: "'cpsp' Capital Spacing in Latin lookup 0 subtable" dx=5 dy=0 dh=10 dv=0
EndChar

StartChar: Idieresis
Encoding: 207 207 42
Width: 314
GlyphClass: 2
Flags: MW
HStem: 0 21G<80 260 80 80> 670 20G<80 260 260 260> 722 146<47.5 92.5 247.5 292.5>
VStem: -5 150<772.5 817.5> 80 180<0 690> 195 150<772.5 817.5>
LayerCount: 2
Fore
SplineSet
70 868 m 0xe8
 115 868 145 840 145 795 c 0xe8
 145 750 115 722 70 722 c 0
 25 722 -5 750 -5 795 c 0xf0
 -5 840 25 868 70 868 c 0xe8
270 868 m 0
 315 868 345 840 345 795 c 0xe4
 345 750 315 722 270 722 c 0
 225 722 195 750 195 795 c 0
 195 840 225 868 270 868 c 0
260 0 m 1
 80 0 l 1
 80 690 l 1
 260 690 l 1
 260 0 l 1
EndSplineSet
Position2: "'cpsp' Capital Spacing in Latin lookup 0 subtable" dx=5 dy=0 dh=10 dv=0
EndChar

StartChar: Eth
Encoding: 208 208 19
Width: 759
GlyphClass: 2
Flags: MW
HStem: 0 140<270 326 326 339 270 351> 293 96<31 90 31 90 270 372> 550 140<270 326 270 270>
VStem: 90 180<140 293 140 293 140 293 389 550> 543 188<289.5 412.5>
LayerCount: 2
Fore
SplineSet
439 686 m 0
 599 668 731 570 731 354 c 0
 731 138 599 22 439 4 c 0
 404 0 388 0 351 0 c 2
 90 0 l 1
 90 293 l 1
 31 293 l 1
 31 389 l 1
 90 389 l 1
 90 690 l 1
 351 690 l 2
 388 690 404 690 439 686 c 0
391 142 m 0
 481 150 543 228 543 351 c 0
 543 474 481 540 391 548 c 0
 368 550 352 550 326 550 c 2
 270 550 l 1
 270 389 l 1
 372 389 l 1
 372 293 l 1
 270 293 l 1
 270 140 l 1
 326 140 l 2
 352 140 368 140 391 142 c 0
EndSplineSet
Position2: "'cpsp' Capital Spacing in Latin lookup 0 subtable" dx=5 dy=0 dh=10 dv=0
EndChar

StartChar: Ntilde
Encoding: 209 209 62
Width: 794
GlyphClass: 2
Flags: MW
HStem: 0 21G<80 260 80 80 505 740 505 505> 670 20G<80 304 304 304 560 740 740 740> 739 134<473 510> 742 134<300 337 241 345.5>
VStem: 80 180<0 285 0 690> 241 96<742 753 742 788.5> 473 96<862 873> 560 180<395 690>
AnchorPoint: "Anchor-0" 405 0 basechar 0
LayerCount: 2
Fore
SplineSet
331 876 m 0xd5
 360 876 377 873 413 857 c 0
 437 846 450 842 458 842 c 0
 469 842 473 851 473 873 c 1
 569 873 l 1
 569 780 541 739 479 739 c 0xea
 450 739 434 742 397 758 c 0
 373 768 360 773 352 773 c 0
 341 773 337 764 337 742 c 1
 241 742 l 1
 241 835 269 876 331 876 c 0xd5
740 0 m 1xd9
 505 0 l 1
 254 456 l 1
 260 386 260 325 260 285 c 2
 260 0 l 1
 80 0 l 1
 80 690 l 1
 304 690 l 1
 566 214 l 1
 561 284 560 355 560 395 c 2
 560 690 l 1
 740 690 l 1
 740 0 l 1xd9
EndSplineSet
Position2: "'cpsp' Capital Spacing in Latin lookup 0 subtable" dx=5 dy=0 dh=10 dv=0
EndChar

StartChar: Ograve
Encoding: 210 210 67
Width: 788
GlyphClass: 2
Flags: MW
HStem: -14 132<355 459 355 514.5> 572 132<355 459> 735 125<372 372 372 377 217 468>
VStem: 54 184<272 418.5 272 456> 576 184<272 418.5>
LayerCount: 2
Fore
SplineSet
372 735 m 1
 217 860 l 1
 377 860 l 1
 468 735 l 1
 372 735 l 1
407 704 m 0
 622 704 760 567 760 345 c 0
 760 124 622 -14 407 -14 c 0
 192 -14 54 124 54 345 c 0
 54 567 192 704 407 704 c 0
407 118 m 0
 511 118 576 199 576 345 c 0
 576 492 511 572 407 572 c 0
 303 572 238 492 238 345 c 0
 238 199 303 118 407 118 c 0
EndSplineSet
Position2: "'cpsp' Capital Spacing in Latin lookup 0 subtable" dx=5 dy=0 dh=10 dv=0
EndChar

StartChar: Ocircumflex
Encoding: 212 212 65
Width: 788
GlyphClass: 2
Flags: MW
HStem: -14 132<355 459 355 514.5> 572 132<355 459> 735 125<333 374 271 482 440 440 440 482 333 544>
VStem: 54 184<272 418.5 272 456> 576 184<272 418.5>
LayerCount: 2
Fore
SplineSet
374 735 m 1
 271 735 l 1
 333 860 l 1
 482 860 l 1
 544 735 l 1
 440 735 l 1
 406 811 l 1
 374 735 l 1
407 704 m 0
 622 704 760 567 760 345 c 0
 760 124 622 -14 407 -14 c 0
 192 -14 54 124 54 345 c 0
 54 567 192 704 407 704 c 0
407 118 m 0
 511 118 576 199 576 345 c 0
 576 492 511 572 407 572 c 0
 303 572 238 492 238 345 c 0
 238 199 303 118 407 118 c 0
EndSplineSet
Position2: "'cpsp' Capital Spacing in Latin lookup 0 subtable" dx=5 dy=0 dh=10 dv=0
EndChar

StartChar: Otilde
Encoding: 213 213 71
Width: 788
GlyphClass: 2
Flags: MW
HStem: -14 132<355 459 355 514.5> 572 132<355 459> 739 134<475 512> 742 134<302 339 243 347.5>
VStem: 54 184<272 418.5 272 456> 243 96<742 753 742 788.5> 475 96<862 873> 576 184<272 418.5>
LayerCount: 2
Fore
SplineSet
354 773 m 0xd5
 343 773 339 764 339 742 c 1
 243 742 l 1
 243 835 271 876 333 876 c 0xd5
 362 876 379 873 415 857 c 0
 439 846 452 842 460 842 c 0
 471 842 475 851 475 873 c 1
 571 873 l 1
 571 780 543 739 481 739 c 0xea
 452 739 436 742 399 758 c 0
 375 768 362 773 354 773 c 0xd5
407 704 m 0xd9
 622 704 760 567 760 345 c 0
 760 124 622 -14 407 -14 c 0
 192 -14 54 124 54 345 c 0
 54 567 192 704 407 704 c 0xd9
407 118 m 0
 511 118 576 199 576 345 c 0
 576 492 511 572 407 572 c 0
 303 572 238 492 238 345 c 0
 238 199 303 118 407 118 c 0
EndSplineSet
Position2: "'cpsp' Capital Spacing in Latin lookup 0 subtable" dx=5 dy=0 dh=10 dv=0
EndChar

StartChar: Odieresis
Encoding: 214 214 66
Width: 788
GlyphClass: 2
Flags: MW
HStem: -14 132<355 459 355 514.5> 572 132<355 459> 722 146<284.5 329.5 484.5 529.5>
VStem: 54 184<272 418.5 272 456> 232 150<772.5 817.5> 432 150<772.5 817.5> 576 184<272 418.5>
LayerCount: 2
Fore
SplineSet
307 722 m 0xec
 262 722 232 750 232 795 c 0
 232 840 262 868 307 868 c 0
 352 868 382 840 382 795 c 0
 382 750 352 722 307 722 c 0xec
507 722 m 0
 462 722 432 750 432 795 c 0
 432 840 462 868 507 868 c 0
 552 868 582 840 582 795 c 0
 582 750 552 722 507 722 c 0
407 704 m 0xd2
 622 704 760 567 760 345 c 0
 760 124 622 -14 407 -14 c 0
 192 -14 54 124 54 345 c 0
 54 567 192 704 407 704 c 0xd2
407 118 m 0
 511 118 576 199 576 345 c 0
 576 492 511 572 407 572 c 0
 303 572 238 492 238 345 c 0
 238 199 303 118 407 118 c 0
EndSplineSet
Position2: "'cpsp' Capital Spacing in Latin lookup 0 subtable" dx=5 dy=0 dh=10 dv=0
EndChar

StartChar: multiply
Encoding: 215 215 300
Width: 662
Flags: MW
HStem: 105 448<177 177 177 485>
VStem: 107 448<175 175 175 483>
LayerCount: 2
Fore
SplineSet
401 329 m 1
 555 175 l 1
 485 105 l 1
 331 259 l 1
 177 105 l 1
 107 175 l 1
 261 329 l 1
 107 483 l 1
 177 553 l 1
 331 399 l 1
 485 553 l 1
 555 483 l 1
 401 329 l 1
EndSplineSet
EndChar

StartChar: Oslash
Encoding: 216 216 70
Width: 790
GlyphClass: 2
Flags: MW
HStem: -14 132<385 460 385 515.5> 572 132<356 431>
VStem: 55 184<328.5 418.5 328.5 456> 577 184<272 361.5>
LayerCount: 2
Fore
SplineSet
766 633 m 1
 699 566 l 1
 739 508 761 433 761 345 c 0
 761 124 623 -14 408 -14 c 0
 319 -14 244 9 186 53 c 1
 120 -13 l 1
 50 57 l 1
 117 124 l 1
 77 182 55 257 55 345 c 0
 55 567 193 704 408 704 c 0
 497 704 572 681 631 638 c 1
 696 703 l 1
 766 633 l 1
239 345 m 0
 239 312 242 282 249 256 c 1
 520 527 l 1
 492 557 454 572 408 572 c 0
 304 572 239 492 239 345 c 0
577 345 m 0
 577 378 574 408 567 434 c 1
 296 163 l 1
 324 133 362 118 408 118 c 0
 512 118 577 199 577 345 c 0
EndSplineSet
Position2: "'cpsp' Capital Spacing in Latin lookup 0 subtable" dx=5 dy=0 dh=10 dv=0
EndChar

StartChar: Uacute
Encoding: 218 218 91
Width: 718
GlyphClass: 2
Flags: MW
HStem: -14 132<334.5 413.5 334.5 480.5> 670 20G<68 248 248 248 500 680 680 680> 735 125<411 416 320 571>
VStem: 68 180<303 690> 500 180<285.5 303 303 690>
LayerCount: 2
Fore
SplineSet
416 735 m 1
 320 735 l 1
 411 860 l 1
 571 860 l 1
 416 735 l 1
680 690 m 1
 680 303 l 2
 680 268 680 247 677 206 c 0
 669 90 587 -14 374 -14 c 0
 161 -14 79 90 71 206 c 0
 68 247 68 268 68 303 c 2
 68 690 l 1
 248 690 l 1
 248 270 l 2
 248 251 248 241 249 229 c 0
 254 157 295 118 374 118 c 0
 453 118 494 157 499 229 c 0
 500 241 500 251 500 270 c 2
 500 690 l 1
 680 690 l 1
EndSplineSet
Position2: "'cpsp' Capital Spacing in Latin lookup 0 subtable" dx=5 dy=0 dh=10 dv=0
EndChar

StartChar: Udieresis
Encoding: 220 220 93
Width: 718
GlyphClass: 2
Flags: MW
HStem: -14 132<334.5 413.5 334.5 480.5> 670 20G<68 248 248 248 500 680 680 680> 722 146<251.5 296.5 451.5 496.5>
VStem: 68 180<303 690> 199 150<772.5 817.5> 399 150<772.5 817.5> 500 180<285.5 303 303 690>
LayerCount: 2
Fore
SplineSet
274 868 m 0xf2
 319 868 349 840 349 795 c 0xea
 349 750 319 722 274 722 c 0
 229 722 199 750 199 795 c 0
 199 840 229 868 274 868 c 0xf2
474 868 m 0
 519 868 549 840 549 795 c 0xf2
 549 750 519 722 474 722 c 0
 429 722 399 750 399 795 c 0xf4
 399 840 429 868 474 868 c 0
680 690 m 1
 680 303 l 2
 680 268 680 247 677 206 c 0
 669 90 587 -14 374 -14 c 0
 161 -14 79 90 71 206 c 0
 68 247 68 268 68 303 c 2
 68 690 l 1
 248 690 l 1
 248 270 l 2
 248 251 248 241 249 229 c 0
 254 157 295 118 374 118 c 0
 453 118 494 157 499 229 c 0
 500 241 500 251 500 270 c 2
 500 690 l 1
 680 690 l 1
EndSplineSet
Position2: "'cpsp' Capital Spacing in Latin lookup 0 subtable" dx=5 dy=0 dh=10 dv=0
EndChar

StartChar: Yacute
Encoding: 221 221 107
Width: 663
GlyphClass: 2
Flags: MW
HStem: 0 21G<257 437 257 257> 670 20G<14 216 216 216 483 680 680 680> 735 125<384 389 293 544>
VStem: 257 180<0 264 0 264>
LayerCount: 2
Fore
SplineSet
389 735 m 1
 293 735 l 1
 384 860 l 1
 544 860 l 1
 389 735 l 1
437 264 m 1
 437 0 l 1
 257 0 l 1
 257 264 l 1
 14 690 l 1
 216 690 l 1
 352 417 l 1
 483 690 l 1
 680 690 l 1
 437 264 l 1
EndSplineSet
Position2: "'cpsp' Capital Spacing in Latin lookup 0 subtable" dx=5 dy=0 dh=10 dv=0
EndChar

StartChar: Thorn
Encoding: 222 222 74
Width: 653
GlyphClass: 2
Flags: MW
HStem: 0 21G<80 260 80 80> 174 140<260 330 330 339.5 260 349 260 330> 462 140<260 330 260 349> 670 20G<80 260 260 260>
VStem: 80 180<0 174 0 314 314 462 602 690> 451 188<364.5 411.5>
LayerCount: 2
Fore
SplineSet
457 597 m 0
 557 585 639 521 639 388 c 0
 639 255 557 191 457 179 c 0
 420 175 392 174 349 174 c 2
 260 174 l 1
 260 0 l 1
 80 0 l 1
 80 690 l 1
 260 690 l 1
 260 602 l 1
 349 602 l 2
 392 602 420 601 457 597 c 0
378 315 m 0
 424 319 451 341 451 388 c 0
 451 435 424 457 378 461 c 0
 365 462 349 462 330 462 c 2
 260 462 l 1
 260 314 l 1
 330 314 l 2
 349 314 365 314 378 315 c 0
EndSplineSet
Position2: "'cpsp' Capital Spacing in Latin lookup 0 subtable" dx=5 dy=0 dh=10 dv=0
EndChar

StartChar: germandbls
Encoding: 223 223 199
Width: 666
GlyphClass: 2
Flags: MW
HStem: -4 132<403.5 414 385 491.5> 0 21G<54 234 54 54> 622 132<299.5 357.5>
VStem: 54 180<0 430 430 438 0 460> 332 188<384.5 414 384.5 423> 413 188<550 578.5> 452 188<160 188.5>
LayerCount: 2
Fore
SplineSet
335 754 m 0x74
 504 754 601 675 601 560 c 0x74
 601 525 592 501 575 476 c 1
 535 453 520 430 520 398 c 0x78
 520 371 535 347 568 312 c 0
 620 257 640 228 640 152 c 0
 640 46 543 -4 440 -4 c 0
 367 -4 341 -2 302 6 c 1
 302 141 l 1
 346 130 374 128 396 128 c 0
 432 128 452 145 452 175 c 0xb2
 452 202 438 226 408 257 c 0
 356 311 332 341 332 398 c 0x78
 332 448 353 484 400 514 c 1
 410 527 413 542 413 558 c 0
 413 599 386 622 329 622 c 0
 270 622 240 588 236 532 c 0
 235 518 234 499 234 438 c 2
 234 0 l 1
 54 0 l 1
 54 430 l 2
 54 490 55 516 56 534 c 0
 65 671 166 754 335 754 c 0x74
EndSplineSet
EndChar

StartChar: agrave
Encoding: 224 224 120
Width: 587
GlyphClass: 2
Flags: MW
HStem: -14 21G<157 225.5> 0 108<257 367 257 543> 226 102<319 353> 426 122<266 306.5> 571 125<266 266 266 271 111 362>
VStem: 30 184<142 184.5 142 201> 48 170<352 353> 353 180<191 226 226 226>
LayerCount: 2
Fore
SplineSet
266 571 m 1xad
 111 696 l 1
 271 696 l 1
 362 571 l 1
 266 571 l 1xad
367 0 m 1x7b
 355 78 l 1x6d
 333 22 l 1
 295 -2 250 -14 201 -14 c 0
 113 -14 30 41 30 144 c 0xad
 30 258 138 328 319 328 c 2
 353 328 l 1
 353 336 l 2
 353 347 353 358 351 375 c 0
 348 402 326 426 287 426 c 0
 245 426 221 399 218 353 c 1
 48 352 l 1
 49 477 160 548 295 548 c 0
 464 548 522 473 530 376 c 0
 532 349 533 318 533 285 c 2
 533 135 l 2
 533 95 535 59 543 0 c 1
 367 0 l 1x7b
275 108 m 0
 311 108 353 135 353 191 c 2
 353 226 l 1
 272 232 214 211 214 158 c 0
 214 126 239 108 275 108 c 0
EndSplineSet
EndChar

StartChar: atilde
Encoding: 227 227 124
Width: 587
GlyphClass: 2
Flags: MW
HStem: -14 21G<157 225.5> 0 108<257 367 257 543> 226 102<319 353> 426 122<266 306.5> 571 103<342 398> 571 134<361 398> 574 134<188 225 129 233.5>
VStem: 30 184<142 184.5 142 201> 48 170<352 353> 129 96<574 585 574 620.5> 353 180<191 226 226 226> 361 96<694 705>
LayerCount: 2
Fore
SplineSet
240 605 m 0xb260
 229 605 225 596 225 574 c 1
 129 574 l 1
 129 667 157 708 219 708 c 0xb260
 248 708 265 705 301 689 c 0
 325 678 338 674 346 674 c 0xb910
 357 674 361 683 361 705 c 1
 457 705 l 1
 457 612 429 571 367 571 c 0xb510
 338 571 322 574 285 590 c 0
 261 600 248 605 240 605 c 0xb260
367 0 m 1x70a0
 355 78 l 1x7120
 333 22 l 1
 295 -2 250 -14 201 -14 c 0
 113 -14 30 41 30 144 c 0xb120
 30 258 138 328 319 328 c 2
 353 328 l 1
 353 336 l 2
 353 347 353 358 351 375 c 0
 348 402 326 426 287 426 c 0
 245 426 221 399 218 353 c 1
 48 352 l 1
 49 477 160 548 295 548 c 0
 464 548 522 473 530 376 c 0
 532 349 533 318 533 285 c 2
 533 135 l 2
 533 95 535 59 543 0 c 1
 367 0 l 1x70a0
275 108 m 0
 311 108 353 135 353 191 c 2
 353 226 l 1
 272 232 214 211 214 158 c 0
 214 126 239 108 275 108 c 0
EndSplineSet
EndChar

StartChar: adieresis
Encoding: 228 228 119
Width: 587
GlyphClass: 2
Flags: MW
HStem: -14 21G<157 225.5> 0 108<257 367 257 543> 226 102<319 353> 426 122<266 306.5> 569 146<170.5 215.5 370.5 415.5>
VStem: 30 184<142 184.5 142 201> 48 170<352 353> 118 150<619.5 664.5> 318 150<619.5 664.5> 353 180<191 226 226 226>
LayerCount: 2
Fore
SplineSet
193 569 m 0x7980
 148 569 118 597 118 642 c 0
 118 687 148 715 193 715 c 0
 238 715 268 687 268 642 c 0
 268 597 238 569 193 569 c 0x7980
393 569 m 0
 348 569 318 597 318 642 c 0
 318 687 348 715 393 715 c 0
 438 715 468 687 468 642 c 0
 468 597 438 569 393 569 c 0
367 0 m 1
 355 78 l 1x7440
 333 22 l 1
 295 -2 250 -14 201 -14 c 0
 113 -14 30 41 30 144 c 0xb440
 30 258 138 328 319 328 c 2
 353 328 l 1
 353 336 l 2
 353 347 353 358 351 375 c 0
 348 402 326 426 287 426 c 0
 245 426 221 399 218 353 c 1
 48 352 l 1
 49 477 160 548 295 548 c 0
 464 548 522 473 530 376 c 0
 532 349 533 318 533 285 c 2
 533 135 l 2
 533 95 535 59 543 0 c 1x7240
 367 0 l 1
275 108 m 0
 311 108 353 135 353 191 c 2
 353 226 l 1
 272 232 214 211 214 158 c 0
 214 126 239 108 275 108 c 0
EndSplineSet
EndChar

StartChar: aring
Encoding: 229 229 123
Width: 587
GlyphClass: 2
Flags: MW
HStem: -14 21G<157 225.5> 0 108<257 367 257 543> 226 102<319 353> 426 122<266 306.5> 567 66<282.5 303.5 282.5 328> 715 66<282.5 303.5>
VStem: 30 184<142 184.5 142 201> 48 170<352 353> 174 83<661 687 661 706> 329 83<661 687> 353 180<191 226 226 226>
LayerCount: 2
Fore
SplineSet
293 567 m 0x7cc0
 223 567 174 610 174 674 c 0
 174 738 223 781 293 781 c 0
 363 781 412 738 412 674 c 0
 412 610 363 567 293 567 c 0x7cc0
293 715 m 0
 272 715 257 700 257 674 c 0
 257 648 272 633 293 633 c 0
 314 633 329 648 329 674 c 0
 329 700 314 715 293 715 c 0
367 0 m 1
 355 78 l 1x7620
 333 22 l 1
 295 -2 250 -14 201 -14 c 0
 113 -14 30 41 30 144 c 0xb620
 30 258 138 328 319 328 c 2
 353 328 l 1
 353 336 l 2
 353 347 353 358 351 375 c 0
 348 402 326 426 287 426 c 0
 245 426 221 399 218 353 c 1
 48 352 l 1
 49 477 160 548 295 548 c 0
 464 548 522 473 530 376 c 0
 532 349 533 318 533 285 c 2
 533 135 l 2
 533 95 535 59 543 0 c 1x7520
 367 0 l 1
275 108 m 0
 311 108 353 135 353 191 c 2
 353 226 l 1
 272 232 214 211 214 158 c 0
 214 126 239 108 275 108 c 0
EndSplineSet
EndChar

StartChar: ae
Encoding: 230 230 125
Width: 974
GlyphClass: 2
Flags: MW
HStem: -14 122<262.5 265.5 648.5 699.5> 222 110<319 378 581 762> 426 122<276 324 650 697.5>
VStem: 30 184<144.5 186.5 144.5 210>
LayerCount: 2
Fore
SplineSet
950 274 m 0
 950 258 949 240 947 222 c 1
 575 222 l 1
 584 133 623 108 674 108 c 0
 725 108 756 134 763 175 c 1
 940 175 l 1
 909 54 809 -14 672 -14 c 0
 574 -14 496 23 449 100 c 1
 383 22 l 1
 345 -2 290 -14 241 -14 c 0
 113 -14 30 41 30 149 c 0
 30 271 148 332 319 332 c 2
 377 332 l 1
 377 338 l 2
 377 397 351 426 297 426 c 0
 255 426 221 399 218 352 c 1
 48 352 l 1
 49 477 160 548 295 548 c 0
 392 548 456 514 486 455 c 1
 530 517 605 548 692 548 c 0
 860 548 950 412 950 274 c 0
581 332 m 1
 762 332 l 1
 753 394 722 426 673 426 c 0
 627 426 594 397 581 332 c 1
378 214 m 2
 378 222 l 1
 264 228 214 210 214 163 c 0
 214 126 239 108 286 108 c 0
 341 108 378 146 378 214 c 2
EndSplineSet
EndChar

StartChar: ccedilla
Encoding: 231 231 130
Width: 587
GlyphClass: 2
Flags: MW
HStem: -210 69<232.5 260.5 232.5 284> -10 21G<240 240> 426 122<271 323.5>
VStem: 24 184<215 323.5 215 353> 299 108<-123 -104> 389 174<330 330>
AnchorPoint: "Anchor-0" 293 0 basechar 0
LayerCount: 2
Fore
SplineSet
388 196 m 1xf8
 565 196 l 1
 547 69 454 -2 326 -13 c 1
 312 -42 l 1
 375 -49 407 -74 407 -119 c 0
 407 -188 330 -210 238 -210 c 0
 218 -210 200 -209 181 -204 c 1
 181 -134 l 1
 206 -140 226 -141 239 -141 c 0
 282 -141 299 -132 299 -114 c 0
 299 -94 277 -83 202 -88 c 1xf8
 240 -10 l 1
 114 11 24 106 24 261 c 0
 24 445 148 548 305 548 c 0
 462 548 558 450 563 330 c 1
 389 330 l 1xf4
 381 400 346 426 301 426 c 0
 241 426 208 375 208 272 c 0
 208 158 242 108 303 108 c 0
 344 108 378 138 388 196 c 1xf8
EndSplineSet
EndChar

StartChar: egrave
Encoding: 232 232 142
Width: 601
GlyphClass: 2
Flags: MW
HStem: -14 122<275.5 326.5 275.5 367.5> 222 110<208 389 208 574 202 389> 426 122<276.5 324> 571 125<275 275 275 280 120 371>
VStem: 24 178<222 222 222 343>
AnchorPoint: "Anchor-0" 300 0 basechar 0
LayerCount: 2
Fore
SplineSet
275 571 m 1
 120 696 l 1
 280 696 l 1
 371 571 l 1
 275 571 l 1
577 274 m 0
 577 258 576 240 574 222 c 1
 202 222 l 1
 211 133 250 108 301 108 c 0
 352 108 383 134 390 175 c 1
 567 175 l 1
 536 54 436 -14 299 -14 c 0
 146 -14 24 77 24 265 c 0
 24 421 131 548 309 548 c 0xf8
 487 548 577 412 577 274 c 0
300 426 m 0xf8
 253 426 220 398 208 332 c 1
 389 332 l 1
 379 395 348 426 300 426 c 0xf8
EndSplineSet
EndChar

StartChar: ecircumflex
Encoding: 234 234 139
Width: 601
GlyphClass: 2
Flags: MW
HStem: -14 122<275.5 326.5 275.5 367.5> 222 110<208 389 208 574 202 389> 426 122<276.5 324> 571 125<228 269 166 377 335 335 335 377 228 439> 647 49<301 301>
VStem: 24 178<222 222 222 343>
AnchorPoint: "Anchor-0" 300 0 basechar 0
LayerCount: 2
Fore
SplineSet
269 571 m 1xd4
 166 571 l 1
 228 696 l 1
 377 696 l 1
 439 571 l 1
 335 571 l 1xd4
 301 647 l 1xcc
 269 571 l 1xd4
577 274 m 0
 577 258 576 240 574 222 c 1
 202 222 l 1
 211 133 250 108 301 108 c 0
 352 108 383 134 390 175 c 1
 567 175 l 1
 536 54 436 -14 299 -14 c 0
 146 -14 24 77 24 265 c 0
 24 421 131 548 309 548 c 0xf4
 487 548 577 412 577 274 c 0
300 426 m 0xf4
 253 426 220 398 208 332 c 1
 389 332 l 1
 379 395 348 426 300 426 c 0xf4
EndSplineSet
EndChar

StartChar: edieresis
Encoding: 235 235 140
Width: 601
GlyphClass: 2
Flags: MW
HStem: -14 122<275.5 326.5 275.5 367.5> 222 110<208 389 208 574 202 389> 426 122<276.5 324> 569 146<179.5 224.5 379.5 424.5>
VStem: 24 178<222 222 222 343> 127 150<619.5 664.5> 327 150<619.5 664.5>
AnchorPoint: "Anchor-0" 300 0 basechar 0
LayerCount: 2
Fore
SplineSet
202 569 m 0xf6
 157 569 127 597 127 642 c 0
 127 687 157 715 202 715 c 0
 247 715 277 687 277 642 c 0
 277 597 247 569 202 569 c 0xf6
402 569 m 0
 357 569 327 597 327 642 c 0
 327 687 357 715 402 715 c 0
 447 715 477 687 477 642 c 0
 477 597 447 569 402 569 c 0
577 274 m 0
 577 258 576 240 574 222 c 1
 202 222 l 1
 211 133 250 108 301 108 c 0
 352 108 383 134 390 175 c 1
 567 175 l 1
 536 54 436 -14 299 -14 c 0
 146 -14 24 77 24 265 c 0
 24 421 131 548 309 548 c 0xea
 487 548 577 412 577 274 c 0
300 426 m 0xe6
 253 426 220 398 208 332 c 1
 389 332 l 1
 379 395 348 426 300 426 c 0xe6
EndSplineSet
EndChar

StartChar: igrave
Encoding: 236 236 157
Width: 288
GlyphClass: 2
Flags: MW
HStem: 0 21G<54 234 54 54> 514 20G<54 234 234 234> 571 125<117 122 -38 213 117 117>
VStem: 54 180<0 534>
LayerCount: 2
Fore
SplineSet
213 571 m 1
 117 571 l 1
 -38 696 l 1
 122 696 l 1
 213 571 l 1
234 0 m 1
 54 0 l 1
 54 534 l 1
 234 534 l 1
 234 0 l 1
EndSplineSet
EndChar

StartChar: iacute
Encoding: 237 237 154
Width: 288
GlyphClass: 2
Flags: MW
HStem: 0 21G<54 234 54 54> 514 20G<54 234 234 234> 571 125<181 186 90 341>
VStem: 54 180<0 534>
LayerCount: 2
Fore
SplineSet
186 571 m 1
 90 571 l 1
 181 696 l 1
 341 696 l 1
 186 571 l 1
234 0 m 1
 54 0 l 1
 54 534 l 1
 234 534 l 1
 234 0 l 1
EndSplineSet
EndChar

StartChar: icircumflex
Encoding: 238 238 155
Width: 288
GlyphClass: 2
Flags: MW
HStem: 0 21G<54 234 54 54> 514 20G<54 234 234 234> 571 125<70 111 8 219 177 177 177 219 70 281> 647 49<143 143>
VStem: 54 180<0 534 0 534>
LayerCount: 2
Fore
SplineSet
111 571 m 1xe8
 8 571 l 1
 70 696 l 1
 219 696 l 1
 281 571 l 1
 177 571 l 1xe8
 143 647 l 1xd8
 111 571 l 1xe8
54 534 m 1
 234 534 l 1
 234 0 l 1
 54 0 l 1
 54 534 l 1
EndSplineSet
EndChar

StartChar: idieresis
Encoding: 239 239 156
Width: 288
GlyphClass: 2
Flags: MW
HStem: 0 21G<54 234 54 54> 514 20G<54 234 234 234> 569 146<21.5 66.5 221.5 266.5>
VStem: -31 150<619.5 664.5> 54 180<0 534> 169 150<619.5 664.5>
LayerCount: 2
Fore
SplineSet
44 715 m 0xe8
 89 715 119 687 119 642 c 0xe8
 119 597 89 569 44 569 c 0
 -1 569 -31 597 -31 642 c 0xf0
 -31 687 -1 715 44 715 c 0xe8
244 715 m 0
 289 715 319 687 319 642 c 0xe4
 319 597 289 569 244 569 c 0
 199 569 169 597 169 642 c 0
 169 687 199 715 244 715 c 0
234 0 m 1
 54 0 l 1
 54 534 l 1
 234 534 l 1
 234 0 l 1
EndSplineSet
EndChar

StartChar: eth
Encoding: 240 240 133
Width: 662
GlyphClass: 2
Flags: MW
HStem: -14 132<291.5 365 291.5 395.5> 416 132<289 302.5 214.5 361> 676 20G<581 581> 725 20G<391 391>
VStem: 24 188<215 313 215 358.5> 435 184<260 289 289 326.5>
LayerCount: 2
Fore
SplineSet
593 623 m 1
 551 615 l 1
 597 544 619 447 619 307 c 0
 619 67 464 -14 327 -14 c 0
 123 -14 24 102 24 267 c 0
 24 450 141 548 288 548 c 0
 317 548 343 541 380 519 c 1
 423 465 l 1
 418 506 402 546 373 582 c 1
 249 559 l 1
 237 632 l 1
 302 644 l 1
 283 657 261 668 236 679 c 1
 391 745 l 1
 431 727 466 705 495 680 c 1
 581 696 l 1
 593 623 l 1
435 260 m 2
 435 289 l 2
 435 364 394 416 328 416 c 0
 250 416 212 359 212 267 c 0
 212 163 256 118 327 118 c 0
 403 118 435 178 435 260 c 2
EndSplineSet
EndChar

StartChar: ntilde
Encoding: 241 241 176
Width: 644
GlyphClass: 2
Flags: MW
HStem: 0 21G<54 234 54 54 416 596 416 416> 426 108<54 355> 426 122<300.5 457> 571 103<370 426> 571 134<389 426> 574 134<216 253 157 261.5>
VStem: 54 180<0 252 451 534> 157 96<574 585 574 620.5> 389 96<694 705> 416 180<0 272 272 280.5>
AnchorPoint: "Anchor-0" 321 0 basechar 0
LayerCount: 2
Fore
SplineSet
268 605 m 0xc540
 257 605 253 596 253 574 c 1xc540
 157 574 l 1
 157 667 185 708 247 708 c 0xc640
 276 708 293 705 329 689 c 0
 353 678 366 674 374 674 c 0xd280
 385 674 389 683 389 705 c 1
 485 705 l 1
 485 612 457 571 395 571 c 0xca80
 366 571 350 574 313 590 c 0
 289 600 276 605 268 605 c 0xc540
591 403 m 0xaa40
 595 376 596 345 596 302 c 2
 596 0 l 1
 416 0 l 1
 416 272 l 2
 416 289 416 318 414 345 c 0
 410 396 382 426 328 426 c 0
 273 426 234 373 234 252 c 2
 234 0 l 1
 54 0 l 1
 54 534 l 1
 234 534 l 1
 234 451 l 1xca40
 282 517 l 1
 315 537 353 548 402 548 c 0
 512 548 577 496 591 403 c 0xaa40
EndSplineSet
EndChar

StartChar: ograve
Encoding: 242 242 181
Width: 622
GlyphClass: 2
Flags: MW
HStem: -14 122<279 343 279 398.5> 426 122<279 343> 571 125<284 284 284 289 129 380>
VStem: 24 184<214 320.5 214 353> 414 184<214 320.5>
LayerCount: 2
Fore
SplineSet
284 571 m 1
 129 696 l 1
 289 696 l 1
 380 571 l 1
 284 571 l 1
311 548 m 0xf8
 486 548 598 439 598 267 c 0
 598 96 486 -14 311 -14 c 0
 136 -14 24 96 24 267 c 0
 24 439 136 548 311 548 c 0xf8
311 108 m 0
 375 108 414 161 414 267 c 0
 414 374 375 426 311 426 c 0
 247 426 208 374 208 267 c 0
 208 161 247 108 311 108 c 0
EndSplineSet
EndChar

StartChar: otilde
Encoding: 245 245 185
Width: 622
GlyphClass: 2
Flags: MW
HStem: -14 122<279 343 279 398.5> 426 122<279 343> 571 103<360 416> 571 134<379 416> 574 134<206 243 147 251.5>
VStem: 24 184<214 320.5 214 353> 147 96<574 585 574 620.5> 379 96<694 705> 414 184<214 320.5>
LayerCount: 2
Fore
SplineSet
258 605 m 0xca80
 247 605 243 596 243 574 c 1
 147 574 l 1
 147 667 175 708 237 708 c 0xca80
 266 708 283 705 319 689 c 0
 343 678 356 674 364 674 c 0xe5
 375 674 379 683 379 705 c 1
 475 705 l 1
 475 612 447 571 385 571 c 0xd5
 356 571 340 574 303 590 c 0
 279 600 266 605 258 605 c 0xca80
311 548 m 0xc480
 486 548 598 439 598 267 c 0
 598 96 486 -14 311 -14 c 0
 136 -14 24 96 24 267 c 0
 24 439 136 548 311 548 c 0xc480
311 108 m 0
 375 108 414 161 414 267 c 0
 414 374 375 426 311 426 c 0
 247 426 208 374 208 267 c 0
 208 161 247 108 311 108 c 0
EndSplineSet
EndChar

StartChar: odieresis
Encoding: 246 246 180
Width: 622
GlyphClass: 2
Flags: MW
HStem: -14 122<279 343 279 398.5> 426 122<279 343> 569 146<188.5 233.5 388.5 433.5>
VStem: 24 184<214 320.5 214 353> 136 150<619.5 664.5> 336 150<619.5 664.5> 414 184<214 320.5>
LayerCount: 2
Fore
SplineSet
211 569 m 0xec
 166 569 136 597 136 642 c 0
 136 687 166 715 211 715 c 0
 256 715 286 687 286 642 c 0
 286 597 256 569 211 569 c 0xec
411 569 m 0
 366 569 336 597 336 642 c 0
 336 687 366 715 411 715 c 0
 456 715 486 687 486 642 c 0
 486 597 456 569 411 569 c 0
311 548 m 0xd2
 486 548 598 439 598 267 c 0
 598 96 486 -14 311 -14 c 0
 136 -14 24 96 24 267 c 0
 24 439 136 548 311 548 c 0xd2
311 108 m 0
 375 108 414 161 414 267 c 0
 414 374 375 426 311 426 c 0
 247 426 208 374 208 267 c 0
 208 161 247 108 311 108 c 0
EndSplineSet
EndChar

StartChar: divide
Encoding: 247 247 289
Width: 662
Flags: MW
HStem: 49 160<308.5 353.5> 269 96<86 576 86 576> 425 160<308.5 353.5>
VStem: 251 160<106.5 151.5 482.5 527.5>
LayerCount: 2
Fore
SplineSet
331 585 m 0
 376 585 411 550 411 505 c 0
 411 460 376 425 331 425 c 0
 286 425 251 460 251 505 c 0
 251 550 286 585 331 585 c 0
576 269 m 1
 86 269 l 1
 86 365 l 1
 576 365 l 1
 576 269 l 1
331 209 m 0
 376 209 411 174 411 129 c 0
 411 84 376 49 331 49 c 0
 286 49 251 84 251 129 c 0
 251 174 286 209 331 209 c 0
EndSplineSet
EndChar

StartChar: oslash
Encoding: 248 248 184
Width: 638
GlyphClass: 2
Flags: MW
HStem: -14 122<303 347 303 402.5> 426 122<283 328>
VStem: 28 184<261 320.5 261 353> 418 184<214 271.5>
LayerCount: 2
Fore
SplineSet
618 495 m 1
 556 433 l 1
 586 389 602 332 602 267 c 0
 602 96 490 -14 315 -14 c 0
 251 -14 195 1 151 28 c 1
 91 -32 l 1
 20 39 l 1
 77 96 l 1
 45 142 28 200 28 267 c 0
 28 439 140 548 315 548 c 0
 381 548 439 532 484 503 c 1
 547 566 l 1
 618 495 l 1
212 267 m 0
 212 255 213 243 214 233 c 1
 380 399 l 1
 363 417 341 426 315 426 c 0
 251 426 212 374 212 267 c 0
418 267 m 0
 418 276 418 285 417 294 c 1
 254 131 l 1
 270 116 291 108 315 108 c 0
 379 108 418 161 418 267 c 0
EndSplineSet
EndChar

StartChar: ugrave
Encoding: 249 249 209
Width: 640
GlyphClass: 2
Flags: MW
HStem: -14 122<183 343.5> 0 108<286.5 586 286.5 406> 514 20G<44 224 224 224 406 586 586 586> 571 125<288 288 288 293 133 384>
VStem: 44 180<253.5 262 262 534> 406 180<0 90 90 90 232 534 0 534>
LayerCount: 2
Fore
SplineSet
288 571 m 1x7c
 133 696 l 1
 293 696 l 1
 384 571 l 1
 288 571 l 1x7c
586 534 m 1
 586 0 l 1
 406 0 l 1
 406 90 l 1x7c
 358 17 l 1
 325 -3 287 -14 238 -14 c 0xbc
 128 -14 61 48 49 121 c 0
 45 148 44 179 44 222 c 2
 44 534 l 1
 224 534 l 1
 224 262 l 2
 224 245 225 216 228 189 c 0
 234 138 258 108 315 108 c 0
 372 108 406 161 406 232 c 2
 406 534 l 1
 586 534 l 1
EndSplineSet
EndChar

StartChar: ucircumflex
Encoding: 251 251 207
Width: 640
GlyphClass: 2
Flags: MW
HStem: -14 122<183 343.5> 0 108<286.5 586 286.5 406> 514 20G<44 224 224 224 406 586 586 586> 571 125<241 282 179 390 348 348 348 390 241 452> 647 49<314 314>
VStem: 44 180<253.5 262 262 534> 406 180<0 90 90 90 232 534 0 534>
LayerCount: 2
Fore
SplineSet
282 571 m 1x76
 179 571 l 1
 241 696 l 1
 390 696 l 1
 452 571 l 1
 348 571 l 1x76
 314 647 l 1x6e
 282 571 l 1x76
586 534 m 1
 586 0 l 1
 406 0 l 1
 406 90 l 1x76
 358 17 l 1
 325 -3 287 -14 238 -14 c 0xb6
 128 -14 61 48 49 121 c 0
 45 148 44 179 44 222 c 2
 44 534 l 1
 224 534 l 1
 224 262 l 2
 224 245 225 216 228 189 c 0
 234 138 258 108 315 108 c 0
 372 108 406 161 406 232 c 2
 406 534 l 1
 586 534 l 1
EndSplineSet
EndChar

StartChar: udieresis
Encoding: 252 252 208
Width: 640
GlyphClass: 2
Flags: MW
HStem: -14 122<183 343.5> 0 108<286.5 586 286.5 406> 514 20G<44 224 224 224 406 586 586 586> 569 146<192.5 237.5 392.5 437.5>
VStem: 44 180<253.5 262 262 534> 140 150<619.5 664.5> 340 150<619.5 664.5> 406 180<0 90 90 90 232 534 0 534>
LayerCount: 2
Fore
SplineSet
215 569 m 0x79
 170 569 140 597 140 642 c 0x79
 140 687 170 715 215 715 c 0
 260 715 290 687 290 642 c 0x75
 290 597 260 569 215 569 c 0x79
415 569 m 0
 370 569 340 597 340 642 c 0x7a
 340 687 370 715 415 715 c 0
 460 715 490 687 490 642 c 0
 490 597 460 569 415 569 c 0
586 534 m 1
 586 0 l 1
 406 0 l 1
 406 90 l 1x79
 358 17 l 1
 325 -3 287 -14 238 -14 c 0xb9
 128 -14 61 48 49 121 c 0
 45 148 44 179 44 222 c 2
 44 534 l 1
 224 534 l 1
 224 262 l 2
 224 245 225 216 228 189 c 0
 234 138 258 108 315 108 c 0
 372 108 406 161 406 232 c 2
 406 534 l 1
 586 534 l 1
EndSplineSet
EndChar

StartChar: yacute
Encoding: 253 253 222
Width: 608
GlyphClass: 2
Flags: MW
HStem: -210 119<138.5 147 117 216.5> 514 20G<0 200 200 200 419 616 616 616> 571 125<336 341 245 496>
VStem: 0 616<534 534>
LayerCount: 2
Fore
SplineSet
341 571 m 1
 245 571 l 1
 336 696 l 1
 496 696 l 1
 341 571 l 1
616 534 m 1
 405 0 l 2
 338 -169 280 -210 153 -210 c 0
 124 -210 103 -209 77 -205 c 1
 77 -89 l 1
 92 -91 108 -91 126 -91 c 0
 168 -91 197 -77 214 -39 c 2
 221 -24 l 1
 0 534 l 1
 200 534 l 1
 310 143 l 1
 419 534 l 1
 616 534 l 1
EndSplineSet
EndChar

StartChar: ydieresis
Encoding: 255 255 224
Width: 608
GlyphClass: 2
Flags: MW
HStem: -210 119<138.5 147 117 216.5> 514 20G<0 200 200 200 419 616 616 616> 569 146<176.5 221.5 376.5 421.5>
VStem: 124 150<619.5 664.5> 324 150<619.5 664.5>
LayerCount: 2
Fore
SplineSet
199 569 m 0
 154 569 124 597 124 642 c 0
 124 687 154 715 199 715 c 0
 244 715 274 687 274 642 c 0
 274 597 244 569 199 569 c 0
399 569 m 0
 354 569 324 597 324 642 c 0
 324 687 354 715 399 715 c 0
 444 715 474 687 474 642 c 0
 474 597 444 569 399 569 c 0
616 534 m 1
 405 0 l 2
 338 -169 280 -210 153 -210 c 0
 124 -210 103 -209 77 -205 c 1
 77 -89 l 1
 92 -91 108 -91 126 -91 c 0
 168 -91 197 -77 214 -39 c 2
 221 -24 l 1
 0 534 l 1
 200 534 l 1
 310 143 l 1
 419 534 l 1
 616 534 l 1
EndSplineSet
EndChar

StartChar: Amacron
Encoding: 256 256 7
Width: 707
GlyphClass: 2
Flags: MW
HStem: 0 21G<4 195 4 4 526 526 526 722> 179 140<297 425 297 468 253 425> 531 159<361 361> 670 20G<253 473 473 473> 760 96<213 513 213 513>
VStem: 213 300<760 856 760 856>
LayerCount: 2
Fore
SplineSet
513 760 m 1xdc
 213 760 l 1
 213 856 l 1
 513 856 l 1
 513 760 l 1xdc
468 179 m 1
 253 179 l 1
 195 0 l 1
 4 0 l 1
 253 690 l 1
 473 690 l 1
 722 0 l 1
 526 0 l 1
 468 179 l 1
361 531 m 1xec
 297 319 l 1
 425 319 l 1
 361 531 l 1xec
EndSplineSet
Position2: "'cpsp' Capital Spacing in Latin lookup 0 subtable" dx=5 dy=0 dh=10 dv=0
EndChar

StartChar: amacron
Encoding: 257 257 121
Width: 587
GlyphClass: 2
Flags: MW
HStem: -14 21G<157 225.5> 0 108<257 367 257 543> 226 102<319 353> 426 122<266 306.5> 586 96<143 443 143 443>
VStem: 30 184<142 184.5 142 201> 48 170<352 353> 143 300<586 682 586 682> 353 180<191 226 226 226>
LayerCount: 2
Fore
SplineSet
443 586 m 1x79
 143 586 l 1
 143 682 l 1
 443 682 l 1
 443 586 l 1x79
367 0 m 1
 355 78 l 1x7c80
 333 22 l 1
 295 -2 250 -14 201 -14 c 0
 113 -14 30 41 30 144 c 0xbc80
 30 258 138 328 319 328 c 2
 353 328 l 1
 353 336 l 2
 353 347 353 358 351 375 c 0
 348 402 326 426 287 426 c 0
 245 426 221 399 218 353 c 1
 48 352 l 1
 49 477 160 548 295 548 c 0
 464 548 522 473 530 376 c 0
 532 349 533 318 533 285 c 2
 533 135 l 2
 533 95 535 59 543 0 c 1x7a80
 367 0 l 1
275 108 m 0
 311 108 353 135 353 191 c 2
 353 226 l 1
 272 232 214 211 214 158 c 0
 214 126 239 108 275 108 c 0
EndSplineSet
EndChar

StartChar: Abreve
Encoding: 258 258 3
Width: 707
GlyphClass: 2
Flags: MW
HStem: 0 21G<4 195 4 4 526 526 526 722> 179 140<297 425 297 468 253 425> 531 159<361 361> 670 20G<253 473 473 473> 728 132<228 398.5>
VStem: 228 90<810.5 860> 408 90<810.5 860>
LayerCount: 2
Fore
SplineSet
363 728 m 0xde
 291 728 228 761 228 860 c 1
 318 860 l 1
 320 829 334 813 363 813 c 0
 392 813 406 829 408 860 c 1
 498 860 l 1
 498 761 434 728 363 728 c 0xde
468 179 m 1
 253 179 l 1
 195 0 l 1
 4 0 l 1
 253 690 l 1
 473 690 l 1
 722 0 l 1
 526 0 l 1
 468 179 l 1
361 531 m 1xee
 297 319 l 1
 425 319 l 1
 361 531 l 1xee
EndSplineSet
Position2: "'cpsp' Capital Spacing in Latin lookup 0 subtable" dx=5 dy=0 dh=10 dv=0
EndChar

StartChar: Aogonek
Encoding: 260 260 8
Width: 707
GlyphClass: 2
Flags: MW
HStem: -223 102<521 652> 0 21G<4 195 4 4 636.5 649 649 722> 179 140<297 425 297 468 253 425> 531 159<361 361> 670 20G<253 473 473 473>
VStem: 4 718<0 0> 440 249<-169 -107.5>
LayerCount: 2
Fore
SplineSet
604 -70 m 0xea
 604 -108 625 -121 645 -121 c 0
 659 -121 673 -115 689 -100 c 1
 689 -173 l 1
 660 -202 618 -223 554 -223 c 0
 488 -223 440 -201 440 -137 c 0
 440 -78 480 -21 525 4 c 1
 468 179 l 1
 253 179 l 1
 195 0 l 1
 4 0 l 1
 253 690 l 1
 473 690 l 1
 722 0 l 1
 649 0 l 2
 624 0 604 -32 604 -70 c 0xea
361 531 m 1x74
 297 319 l 1
 425 319 l 1
 361 531 l 1x74
EndSplineSet
Position2: "'cpsp' Capital Spacing in Latin lookup 0 subtable" dx=5 dy=0 dh=10 dv=0
EndChar

StartChar: aogonek
Encoding: 261 261 122
Width: 587
GlyphClass: 2
Flags: MW
HStem: -223 102<362 493> -14 21G<157 225.5> -14 122<157 293> 0 21G<477.5 490 490 543> 226 102<319 353> 426 122<266 306.5>
VStem: 30 184<142 184.5 142 201> 48 170<352 353> 281 249<-169 -107> 353 180<191 226 226 226>
LayerCount: 2
Fore
SplineSet
445 -70 m 0x9e80
 445 -108 466 -121 486 -121 c 0
 500 -121 514 -115 530 -100 c 1
 530 -173 l 1
 501 -202 459 -223 395 -223 c 0
 329 -223 281 -201 281 -137 c 0
 281 -77 322 -21 366 5 c 1
 355 78 l 1
 333 22 l 1
 295 -2 250 -14 201 -14 c 0
 113 -14 30 41 30 144 c 0xce80
 30 258 138 328 319 328 c 2
 353 328 l 1
 353 336 l 2
 353 347 353 358 351 375 c 0
 348 402 326 426 287 426 c 0
 245 426 221 399 218 353 c 1
 48 352 l 1
 49 477 160 548 295 548 c 0
 464 548 522 473 530 376 c 0
 532 349 533 318 533 285 c 2
 533 135 l 2
 533 95 535 59 543 0 c 1x1d40
 490 0 l 2
 465 0 445 -32 445 -70 c 0x9e80
275 108 m 0x2e40
 311 108 353 135 353 191 c 2
 353 226 l 1
 272 232 214 211 214 158 c 0
 214 126 239 108 275 108 c 0x2e40
EndSplineSet
EndChar

StartChar: Cacute
Encoding: 262 262 14
Width: 734
GlyphClass: 2
Flags: MW
HStem: -14 132<354 429 354 474.5> 572 132<350 429.5> 735 125<421 426 330 581>
VStem: 54 188<264 425.5 264 460>
AnchorPoint: "Anchor-0" 378 0 basechar 0
LayerCount: 2
Fore
SplineSet
426 735 m 1
 330 735 l 1
 421 860 l 1
 581 860 l 1
 426 735 l 1
395 704 m 0
 592 704 693 599 707 463 c 2
 708 453 l 1
 528 453 l 1
 526 463 l 2
 511 537 466 572 393 572 c 0
 307 572 242 500 242 351 c 0
 242 177 314 118 394 118 c 0
 464 118 509 161 524 237 c 2
 526 247 l 1
 706 247 l 1
 705 237 l 2
 688 71 561 -14 388 -14 c 0
 203 -14 54 106 54 340 c 0
 54 580 208 704 395 704 c 0
EndSplineSet
Position2: "'cpsp' Capital Spacing in Latin lookup 0 subtable" dx=5 dy=0 dh=10 dv=0
EndChar

StartChar: Cdotaccent
Encoding: 266 266 17
Width: 734
GlyphClass: 2
Flags: MW
HStem: -14 132<354 429 354 474.5> 572 132<350 429.5> 725 176<356 412>
VStem: 54 188<264 425.5 264 460> 291 186<786 840>
AnchorPoint: "Anchor-0" 378 0 basechar 0
LayerCount: 2
Fore
SplineSet
384 901 m 0
 440 901 477 867 477 813 c 0
 477 759 440 725 384 725 c 0
 328 725 291 759 291 813 c 0
 291 867 328 901 384 901 c 0
395 704 m 0xd0
 592 704 693 599 707 463 c 2
 708 453 l 1
 528 453 l 1
 526 463 l 2
 511 537 466 572 393 572 c 0
 307 572 242 500 242 351 c 0
 242 177 314 118 394 118 c 0
 464 118 509 161 524 237 c 2
 526 247 l 1
 706 247 l 1
 705 237 l 2
 688 71 561 -14 388 -14 c 0
 203 -14 54 106 54 340 c 0
 54 580 208 704 395 704 c 0xd0
EndSplineSet
Position2: "'cpsp' Capital Spacing in Latin lookup 0 subtable" dx=5 dy=0 dh=10 dv=0
EndChar

StartChar: cdotaccent
Encoding: 267 267 131
Width: 587
GlyphClass: 2
Flags: MW
HStem: -14 122<272.5 323.5 272.5 365.5> 426 122<271 323.5> 575 176<265 321>
VStem: 24 184<215 323.5 215 353> 200 186<636 690> 389 174<330 330>
AnchorPoint: "Anchor-0" 293 0 basechar 0
LayerCount: 2
Fore
SplineSet
293 751 m 0xe8
 349 751 386 717 386 663 c 0
 386 609 349 575 293 575 c 0
 237 575 200 609 200 663 c 0
 200 717 237 751 293 751 c 0xe8
305 548 m 0xd4
 462 548 558 450 563 330 c 1
 389 330 l 1
 381 400 346 426 301 426 c 0
 241 426 208 375 208 272 c 0
 208 158 242 108 303 108 c 0
 344 108 378 138 388 196 c 1
 565 196 l 1
 545 58 438 -14 293 -14 c 0
 140 -14 24 85 24 261 c 0
 24 445 148 548 305 548 c 0xd4
EndSplineSet
EndChar

StartChar: Ccaron
Encoding: 268 268 15
Width: 734
GlyphClass: 2
Flags: MW
HStem: -14 132<354 429 354 474.5> 572 132<350 429.5> 735 125<310 310 310 352 418 459>
VStem: 54 188<264 425.5 264 460>
AnchorPoint: "Anchor-0" 378 0 basechar 0
LayerCount: 2
Fore
SplineSet
310 735 m 1
 248 860 l 1
 352 860 l 1
 386 784 l 1
 418 860 l 1
 521 860 l 1
 459 735 l 1
 310 735 l 1
526 247 m 1
 706 247 l 1
 705 237 l 2
 688 71 561 -14 388 -14 c 0
 203 -14 54 106 54 340 c 0
 54 580 208 704 395 704 c 0
 592 704 693 599 707 463 c 2
 708 453 l 1
 528 453 l 1
 526 463 l 2
 511 537 466 572 393 572 c 0
 307 572 242 500 242 351 c 0
 242 177 314 118 394 118 c 0
 464 118 509 161 524 237 c 2
 526 247 l 1
EndSplineSet
Position2: "'cpsp' Capital Spacing in Latin lookup 0 subtable" dx=5 dy=0 dh=10 dv=0
EndChar

StartChar: ccaron
Encoding: 269 269 129
Width: 587
GlyphClass: 2
Flags: MW
HStem: -14 122<272.5 323.5 272.5 365.5> 426 122<271 323.5> 571 125<219 219 219 261 327 368>
VStem: 24 184<215 323.5 215 353> 389 174<330 330>
AnchorPoint: "Anchor-0" 293 0 basechar 0
LayerCount: 2
Fore
SplineSet
219 571 m 1
 157 696 l 1
 261 696 l 1
 295 620 l 1
 327 696 l 1
 430 696 l 1
 368 571 l 1
 219 571 l 1
388 196 m 1
 565 196 l 1
 545 58 438 -14 293 -14 c 0
 140 -14 24 85 24 261 c 0
 24 445 148 548 305 548 c 0
 462 548 558 450 563 330 c 1
 389 330 l 1
 381 400 346 426 301 426 c 0xf8
 241 426 208 375 208 272 c 0
 208 158 242 108 303 108 c 0
 344 108 378 138 388 196 c 1
EndSplineSet
EndChar

StartChar: Dcaron
Encoding: 270 270 20
Width: 749
GlyphClass: 2
Flags: MW
HStem: 0 140<260 316 316 329 260 341> 550 140<260 316 260 260> 735 125<311 311 311 353 419 460>
VStem: 80 180<140 550 140 690 140 690> 533 188<289.5 412.5>
LayerCount: 2
Fore
SplineSet
311 735 m 1
 249 860 l 1
 353 860 l 1
 387 784 l 1
 419 860 l 1
 522 860 l 1
 460 735 l 1
 311 735 l 1
429 686 m 0
 589 668 721 570 721 354 c 0
 721 138 589 22 429 4 c 0
 394 0 378 0 341 0 c 2
 80 0 l 1
 80 690 l 1
 341 690 l 2
 378 690 394 690 429 686 c 0
381 142 m 0
 471 150 533 228 533 351 c 0
 533 474 471 540 381 548 c 0
 358 550 342 550 316 550 c 2
 260 550 l 1
 260 140 l 1
 316 140 l 2
 342 140 358 140 381 142 c 0
EndSplineSet
Position2: "'cpsp' Capital Spacing in Latin lookup 0 subtable" dx=5 dy=0 dh=10 dv=0
EndChar

StartChar: dcaron
Encoding: 271 271 134
Width: 661
GlyphClass: 2
Flags: MW
HStem: -14 122<186.5 354> 0 108<289.5 615 289.5 435> 426 122<291 299 208.5 353> 556 179<722 735 435 638>
VStem: 24 184<214 318.5 214 350> 435 180<0 78 78 78 260 283 283 336.5 465 735 0 735>
LayerCount: 2
Fore
SplineSet
435 735 m 1x9c
 615 735 l 1
 615 0 l 1
 435 0 l 1
 435 78 l 1x5c
 395 19 l 1
 365 -3 313 -14 259 -14 c 0
 114 -14 24 97 24 255 c 0
 24 445 140 548 277 548 c 0
 321 548 373 538 400 522 c 1
 435 465 l 1xbc
 435 735 l 1x9c
836 735 m 1
 836 725 l 1
 735 556 l 1
 638 556 l 1
 722 735 l 1
 836 735 l 1
321 108 m 0xbc
 387 108 435 148 435 260 c 2
 435 283 l 2
 435 390 380 426 326 426 c 0
 256 426 208 373 208 264 c 0
 208 164 258 108 321 108 c 0xbc
EndSplineSet
EndChar

StartChar: dcroat
Encoding: 273 273 135
Width: 669
GlyphClass: 2
Flags: MW
HStem: -14 122<186.5 354> 0 108<289.5 615 289.5 435> 426 122<291 299 208.5 353> 575 96<315 435 315 435 615 655> 575 160<315 615 315 615 435 655 435 615>
VStem: 24 184<214 318.5 214 350> 435 180<0 78 78 78 260 283 283 336.5 465 575 0 575 671 735 0 735>
LayerCount: 2
Fore
SplineSet
655 575 m 1x8e
 615 575 l 1
 615 0 l 1
 435 0 l 1
 435 78 l 1x4e
 395 19 l 1
 365 -3 313 -14 259 -14 c 0
 114 -14 24 97 24 255 c 0
 24 445 140 548 277 548 c 0
 321 548 373 538 400 522 c 1
 435 465 l 1xae
 435 575 l 1
 315 575 l 1x8e
 315 671 l 1
 435 671 l 1x96
 435 735 l 1
 615 735 l 1x8e
 615 671 l 1
 655 671 l 1x96
 655 575 l 1x8e
321 108 m 0xae
 387 108 435 148 435 260 c 2
 435 283 l 2
 435 390 380 426 326 426 c 0
 256 426 208 373 208 264 c 0
 208 164 258 108 321 108 c 0xae
EndSplineSet
EndChar

StartChar: Emacron
Encoding: 274 274 29
Width: 639
GlyphClass: 2
Flags: MW
HStem: 0 140<260 609 260 609> 276 140<260 579 260 579> 550 140<260 599 260 260> 760 96<190 490 190 490>
VStem: 80 180<140 276 416 550> 190 300<760 856 760 856>
AnchorPoint: "Anchor-0" 328 0 basechar 0
LayerCount: 2
Fore
SplineSet
490 760 m 1xf4
 190 760 l 1
 190 856 l 1
 490 856 l 1
 490 760 l 1xf4
609 140 m 1
 609 0 l 1
 80 0 l 1
 80 690 l 1
 599 690 l 1
 599 550 l 1
 260 550 l 1
 260 416 l 1
 579 416 l 1
 579 276 l 1
 260 276 l 1
 260 140 l 1xf8
 609 140 l 1
EndSplineSet
Position2: "'cpsp' Capital Spacing in Latin lookup 0 subtable" dx=5 dy=0 dh=10 dv=0
EndChar

StartChar: Edotaccent
Encoding: 278 278 27
Width: 639
GlyphClass: 2
Flags: MW
HStem: 0 140<260 609 260 609> 276 140<260 579 260 579> 550 140<260 599 260 260> 725 176<312 368>
VStem: 80 180<140 276 416 550> 247 186<786 840>
AnchorPoint: "Anchor-0" 328 0 basechar 0
LayerCount: 2
Fore
SplineSet
340 725 m 0xf4
 284 725 247 759 247 813 c 0
 247 867 284 901 340 901 c 0
 396 901 433 867 433 813 c 0
 433 759 396 725 340 725 c 0xf4
609 140 m 1
 609 0 l 1
 80 0 l 1
 80 690 l 1
 599 690 l 1
 599 550 l 1
 260 550 l 1
 260 416 l 1
 579 416 l 1
 579 276 l 1
 260 276 l 1
 260 140 l 1xe8
 609 140 l 1
EndSplineSet
Position2: "'cpsp' Capital Spacing in Latin lookup 0 subtable" dx=5 dy=0 dh=10 dv=0
EndChar

StartChar: edotaccent
Encoding: 279 279 141
Width: 601
GlyphClass: 2
Flags: MW
HStem: -14 122<275.5 326.5 275.5 367.5> 222 110<208 389 208 574 202 389> 426 122<276.5 324> 575 176<274 330>
VStem: 24 178<222 222 222 343> 209 186<636 690>
AnchorPoint: "Anchor-0" 300 0 basechar 0
LayerCount: 2
Fore
SplineSet
302 575 m 0
 246 575 209 609 209 663 c 0
 209 717 246 751 302 751 c 0
 358 751 395 717 395 663 c 0
 395 609 358 575 302 575 c 0
577 274 m 0
 577 258 576 240 574 222 c 1
 202 222 l 1
 211 133 250 108 301 108 c 0
 352 108 383 134 390 175 c 1
 567 175 l 1
 536 54 436 -14 299 -14 c 0
 146 -14 24 77 24 265 c 0
 24 421 131 548 309 548 c 0xe8
 487 548 577 412 577 274 c 0
300 426 m 0xe4
 253 426 220 398 208 332 c 1
 389 332 l 1
 379 395 348 426 300 426 c 0xe4
EndSplineSet
EndChar

StartChar: Eogonek
Encoding: 280 280 30
Width: 639
GlyphClass: 2
Flags: MW
HStem: -223 102<431 562> 0 140<260 428 546.5 559 559 609> 276 140<260 579 260 579> 550 140<260 599 260 260>
VStem: 80 180<140 276 416 550> 350 249<-169 -109>
AnchorPoint: "Anchor-0" 328 0 basechar 0
LayerCount: 2
Fore
SplineSet
609 0 m 1
 559 0 l 2
 534 0 514 -32 514 -70 c 0
 514 -108 535 -121 555 -121 c 0
 569 -121 583 -115 599 -100 c 1
 599 -173 l 1
 570 -202 528 -223 464 -223 c 0
 398 -223 350 -201 350 -137 c 0
 350 -81 386 -27 428 0 c 1
 80 0 l 1
 80 690 l 1
 599 690 l 1
 599 550 l 1
 260 550 l 1
 260 416 l 1
 579 416 l 1
 579 276 l 1
 260 276 l 1
 260 140 l 1
 609 140 l 1
 609 0 l 1
EndSplineSet
Position2: "'cpsp' Capital Spacing in Latin lookup 0 subtable" dx=5 dy=0 dh=10 dv=0
EndChar

StartChar: eogonek
Encoding: 281 281 144
Width: 601
GlyphClass: 2
Flags: MW
HStem: -223 102<272 403> -11 21G -4 21G 222 110<208 389 208 574 202 389> 426 122<276.5 324>
VStem: 24 178<222 222 222 343> 191 249<-169 -112.5>
AnchorPoint: "Anchor-0" 300 0 basechar 0
LayerCount: 2
Fore
SplineSet
577 274 m 0x3c
 577 258 576 240 574 222 c 1
 202 222 l 1
 211 133 250 108 301 108 c 0x3c
 352 108 383 134 390 175 c 1
 567 175 l 1
 544 86 484 26 399 0 c 0
 395 -1 390 -3 385 -4 c 1
 368 -14 355 -40 355 -70 c 0
 355 -108 376 -121 396 -121 c 0
 410 -121 424 -115 440 -100 c 1
 440 -173 l 1
 411 -202 369 -223 305 -223 c 0
 239 -223 191 -201 191 -137 c 0xba
 191 -88 219 -40 254 -11 c 1x5c
 123 5 24 96 24 265 c 0
 24 421 131 548 309 548 c 0
 487 548 577 412 577 274 c 0x3c
300 426 m 0
 253 426 220 398 208 332 c 1
 389 332 l 1
 379 395 348 426 300 426 c 0
EndSplineSet
EndChar

StartChar: Ecaron
Encoding: 282 282 24
Width: 639
GlyphClass: 2
Flags: MW
HStem: 0 140<260 609 260 609> 276 140<260 579 260 579> 550 140<260 599 260 260> 735 125<266 266 266 308 374 415>
VStem: 80 180<140 276 416 550>
AnchorPoint: "Anchor-0" 328 0 basechar 0
LayerCount: 2
Fore
SplineSet
266 735 m 1
 204 860 l 1
 308 860 l 1
 342 784 l 1
 374 860 l 1
 477 860 l 1
 415 735 l 1
 266 735 l 1
609 140 m 1
 609 0 l 1
 80 0 l 1
 80 690 l 1
 599 690 l 1
 599 550 l 1
 260 550 l 1
 260 416 l 1
 579 416 l 1
 579 276 l 1
 260 276 l 1
 260 140 l 1
 609 140 l 1
EndSplineSet
Position2: "'cpsp' Capital Spacing in Latin lookup 0 subtable" dx=5 dy=0 dh=10 dv=0
EndChar

StartChar: Gbreve
Encoding: 286 286 33
Width: 759
GlyphClass: 2
Flags: MW
HStem: -14 132<359.5 403.5> 0 21G<573 713 573 573> 228 140<409 543 409 713> 572 132<359 439.5> 728 132<253 423.5>
VStem: 54 188<264 425.5 264 460> 253 90<810.5 860> 409 304<228 368 0 368> 433 90<810.5 860>
AnchorPoint: "Anchor-0" 398 0 basechar 0
LayerCount: 2
Fore
SplineSet
388 728 m 0xbe80
 316 728 253 761 253 860 c 1
 343 860 l 1
 345 829 359 813 388 813 c 0
 417 813 431 829 433 860 c 1
 523 860 l 1
 523 761 459 728 388 728 c 0xbe80
409 368 m 1xb5
 713 368 l 1
 713 0 l 1
 573 0 l 1x75
 556 106 l 1
 526 30 l 1
 487 -3 440 -14 367 -14 c 0
 183 -14 54 108 54 340 c 0
 54 580 216 704 405 704 c 0
 602 704 703 599 717 463 c 2
 718 453 l 1
 538 453 l 1
 536 463 l 2
 521 537 476 572 403 572 c 0
 315 572 242 500 242 351 c 0
 242 177 317 118 402 118 c 0
 472 118 518 152 543 228 c 1
 409 228 l 1
 409 368 l 1xb5
EndSplineSet
Position2: "'cpsp' Capital Spacing in Latin lookup 0 subtable" dx=5 dy=0 dh=10 dv=0
EndChar

StartChar: gbreve
Encoding: 287 287 147
Width: 669
GlyphClass: 2
Flags: MW
HStem: -220 132<284 345.5 284 397.5> 6 122<289.5 296> 426 108<291 615> 426 122<291 299 208.5 353> 568 85<315.5 344.5 315.5 365.5> 568 128<195 365.5>
VStem: 24 184<226 330.5 226 358> 37 174<-33 -33> 435 180<83 136 98 136 280 283 283 336.5 465 534>
LayerCount: 2
Fore
SplineSet
330 568 m 0xe680
 258 568 195 597 195 696 c 1
 285 696 l 1xe680
 287 669 301 653 330 653 c 0xea80
 359 653 373 669 375 696 c 1
 465 696 l 1
 465 597 401 568 330 568 c 0xe680
615 534 m 1
 615 136 l 2
 615 103 615 62 614 33 c 0
 608 -142 488 -220 307 -220 c 0
 147 -220 50 -155 37 -33 c 2
 36 -23 l 1
 210 -23 l 1
 211 -33 l 2xe580
 215 -68 256 -88 312 -88 c 0
 379 -88 428 -59 433 13 c 0
 434 29 435 54 435 83 c 2
 435 98 l 1
 395 39 l 1
 365 17 323 6 269 6 c 0
 124 6 24 105 24 263 c 0
 24 453 140 548 277 548 c 0
 321 548 373 538 400 522 c 1
 435 465 l 1xd680
 435 534 l 1
 615 534 l 1
321 128 m 0
 387 128 435 168 435 280 c 2
 435 283 l 2
 435 390 380 426 326 426 c 0
 256 426 208 385 208 276 c 0xd680
 208 176 258 128 321 128 c 0
EndSplineSet
EndChar

StartChar: Gdotaccent
Encoding: 288 288 35
Width: 759
GlyphClass: 2
Flags: MW
HStem: -14 132<359.5 403.5> 0 21G<573 713 573 573> 228 140<409 543 409 713> 572 132<359 439.5> 725 176<360 416>
VStem: 54 188<264 425.5 264 460> 295 186<786 840> 409 304<228 368 0 368>
AnchorPoint: "Anchor-0" 398 0 basechar 0
LayerCount: 2
Fore
SplineSet
388 725 m 0xbe
 332 725 295 759 295 813 c 0
 295 867 332 901 388 901 c 0
 444 901 481 867 481 813 c 0
 481 759 444 725 388 725 c 0xbe
409 368 m 1xb5
 713 368 l 1
 713 0 l 1
 573 0 l 1x75
 556 106 l 1
 526 30 l 1
 487 -3 440 -14 367 -14 c 0
 183 -14 54 108 54 340 c 0
 54 580 216 704 405 704 c 0
 602 704 703 599 717 463 c 2
 718 453 l 1
 538 453 l 1
 536 463 l 2
 521 537 476 572 403 572 c 0
 315 572 242 500 242 351 c 0
 242 177 317 118 402 118 c 0
 472 118 518 152 543 228 c 1
 409 228 l 1
 409 368 l 1xb5
EndSplineSet
Position2: "'cpsp' Capital Spacing in Latin lookup 0 subtable" dx=5 dy=0 dh=10 dv=0
EndChar

StartChar: Gcommaaccent
Encoding: 290 290 34
Width: 759
GlyphClass: 2
Flags: MW
HStem: -216 179<358 371 274 472> -14 132<359.5 403.5> 0 21G<573 713 573 573> 228 140<409 543 409 713> 572 132<359 439.5>
VStem: 54 188<264 425.5 264 460> 409 304<228 368 0 368>
AnchorPoint: "Anchor-0" 398 0 basechar 0
LayerCount: 2
Fore
SplineSet
409 368 m 1x5e
 713 368 l 1
 713 0 l 1
 573 0 l 1xbe
 556 106 l 1
 526 30 l 1
 487 -3 440 -14 367 -14 c 0
 183 -14 54 108 54 340 c 0
 54 580 216 704 405 704 c 0
 602 704 703 599 717 463 c 2
 718 453 l 1
 538 453 l 1
 536 463 l 2
 521 537 476 572 403 572 c 0
 315 572 242 500 242 351 c 0
 242 177 317 118 402 118 c 0
 472 118 518 152 543 228 c 1
 409 228 l 1
 409 368 l 1x5e
358 -37 m 1
 472 -37 l 1
 472 -47 l 1
 371 -216 l 1
 274 -216 l 1
 358 -37 l 1
EndSplineSet
Position2: "'cpsp' Capital Spacing in Latin lookup 0 subtable" dx=5 dy=0 dh=10 dv=0
EndChar

StartChar: Hbar
Encoding: 294 294 37
Width: 770
GlyphClass: 2
Flags: MW
HStem: 0 21G<80 260 80 80 536 716 536 536> 268 140<260 536 260 536> 482 96<40 80 40 80 260 536 716 756> 482 208<40 260 40 260 80 260 80 536>
VStem: 80 180<0 268 0 408 408 482 578 690> 536 180<0 268 268 268 408 482 0 482 578 690>
LayerCount: 2
Fore
SplineSet
756 482 m 1xdc
 716 482 l 1
 716 0 l 1
 536 0 l 1
 536 268 l 1
 260 268 l 1
 260 0 l 1
 80 0 l 1
 80 482 l 1
 40 482 l 1xdc
 40 578 l 1
 80 578 l 1xec
 80 690 l 1
 260 690 l 1xdc
 260 578 l 1
 536 578 l 1xec
 536 690 l 1
 716 690 l 1xdc
 716 578 l 1
 756 578 l 1xec
 756 482 l 1xdc
536 482 m 1
 260 482 l 1
 260 408 l 1
 536 408 l 1
 536 482 l 1
EndSplineSet
Position2: "'cpsp' Capital Spacing in Latin lookup 0 subtable" dx=5 dy=0 dh=10 dv=0
EndChar

StartChar: hbar
Encoding: 295 295 151
Width: 656
GlyphClass: 2
Flags: MW
HStem: 0 21G<66 246 66 66 428 608 428 428> 426 122<312.5 469> 575 96<14 66 14 66 246 354> 575 165<14 246 14 246 66 246 66 354>
VStem: 66 180<0 252 451 575 671 740> 428 180<0 272 272 280.5>
LayerCount: 2
Fore
SplineSet
603 403 m 0x9c
 607 376 608 345 608 302 c 2
 608 0 l 1
 428 0 l 1
 428 272 l 2
 428 289 428 318 426 345 c 0
 422 396 394 426 340 426 c 0xdc
 285 426 246 373 246 252 c 2
 246 0 l 1
 66 0 l 1
 66 575 l 1
 14 575 l 1x9c
 14 671 l 1
 66 671 l 1xac
 66 740 l 1
 246 740 l 1x9c
 246 671 l 1
 354 671 l 1xac
 354 575 l 1
 246 575 l 1x9c
 246 451 l 1
 294 517 l 1
 327 537 365 548 414 548 c 0xdc
 524 548 589 496 603 403 c 0x9c
EndSplineSet
EndChar

StartChar: Imacron
Encoding: 298 298 45
Width: 314
GlyphClass: 2
Flags: MW
HStem: 0 21G<80 260 80 80> 670 20G<80 260 260 260> 760 96<20 320 20 320>
VStem: 80 180<0 690>
LayerCount: 2
Fore
SplineSet
320 760 m 1
 20 760 l 1
 20 856 l 1
 320 856 l 1
 320 760 l 1
260 0 m 1
 80 0 l 1
 80 690 l 1
 260 690 l 1
 260 0 l 1
EndSplineSet
Position2: "'cpsp' Capital Spacing in Latin lookup 0 subtable" dx=5 dy=0 dh=10 dv=0
EndChar

StartChar: imacron
Encoding: 299 299 159
Width: 288
GlyphClass: 2
Flags: MW
HStem: 0 21G<54 234 54 54> 514 20G<54 234 234 234> 586 96<-6 294 -6 294>
VStem: 54 180<0 534>
LayerCount: 2
Fore
SplineSet
294 586 m 1
 -6 586 l 1
 -6 682 l 1
 294 682 l 1
 294 586 l 1
234 0 m 1
 54 0 l 1
 54 534 l 1
 234 534 l 1
 234 0 l 1
EndSplineSet
EndChar

StartChar: Iogonek
Encoding: 302 302 46
Width: 314
GlyphClass: 2
Flags: MW
HStem: -223 102<75 206> 0 21G<190.5 203 203 260> 670 20G<80 260 260 260>
VStem: 80 180<5 690>
LayerCount: 2
Fore
SplineSet
260 0 m 1
 203 0 l 2
 178 0 158 -32 158 -70 c 0
 158 -108 179 -121 199 -121 c 0
 213 -121 227 -115 243 -100 c 1
 243 -173 l 1
 214 -202 172 -223 108 -223 c 0
 42 -223 -6 -201 -6 -137 c 0
 -6 -77 35 -20 80 5 c 1
 80 690 l 1
 260 690 l 1
 260 0 l 1
EndSplineSet
Position2: "'cpsp' Capital Spacing in Latin lookup 0 subtable" dx=5 dy=0 dh=10 dv=0
EndChar

StartChar: iogonek
Encoding: 303 303 160
Width: 288
GlyphClass: 2
Flags: MW
HStem: -223 102<49 180> 0 21G<164.5 177 177 234> 514 20G<54 234 234 234> 575 176<116 172>
VStem: 51 186<636 690> 54 180<5 534 0 534>
LayerCount: 2
Fore
SplineSet
144 575 m 0xf8
 88 575 51 609 51 663 c 0
 51 717 88 751 144 751 c 0
 200 751 237 717 237 663 c 0
 237 609 200 575 144 575 c 0xf8
54 534 m 1xf4
 234 534 l 1
 234 0 l 1
 177 0 l 2
 152 0 132 -32 132 -70 c 0
 132 -108 153 -121 173 -121 c 0
 187 -121 201 -115 217 -100 c 1
 217 -173 l 1
 188 -202 146 -223 82 -223 c 0
 16 -223 -32 -201 -32 -137 c 0
 -32 -77 9 -20 54 5 c 1
 54 534 l 1xf4
EndSplineSet
EndChar

StartChar: Idotaccent
Encoding: 304 304 43
Width: 314
GlyphClass: 2
Flags: MW
HStem: 0 21G<80 260 80 80> 670 20G<80 260 260 260> 725 176<142 198>
VStem: 80 180<0 690>
LayerCount: 2
Fore
SplineSet
170 901 m 0
 226 901 263 867 263 813 c 0
 263 759 226 725 170 725 c 0
 114 725 77 759 77 813 c 0
 77 867 114 901 170 901 c 0
260 0 m 1
 80 0 l 1
 80 690 l 1
 260 690 l 1
 260 0 l 1
EndSplineSet
Position2: "'cpsp' Capital Spacing in Latin lookup 0 subtable" dx=5 dy=0 dh=10 dv=0
EndChar

StartChar: dotlessi
Encoding: 305 305 153
Width: 288
GlyphClass: 2
Flags: MW
HStem: 0 21G<54 234 54 54> 514 20G<54 234 234 234>
VStem: 54 180<0 534>
LayerCount: 2
Fore
SplineSet
234 0 m 1
 54 0 l 1
 54 534 l 1
 234 534 l 1
 234 0 l 1
EndSplineSet
EndChar

StartChar: IJ
Encoding: 306 306 39
Width: 952
GlyphClass: 2
Flags: MW
HStem: -14 132<611.5 662 611.5 721.5> 0 21G<80 260 80 80> 0 264<80 542> 670 20G<80 260 260 260 720 900 900 900>
VStem: 80 180<0 690> 363 180 720 180<283 299 299 690>
LayerCount: 2
Fore
SplineSet
260 0 m 1x5e
 80 0 l 1
 80 690 l 1
 260 690 l 1
 260 0 l 1x5e
900 690 m 1
 900 299 l 2
 900 267 900 245 897 194 c 0
 890 73 811 -14 632 -14 c 0x9e
 445 -14 368 84 363 234 c 2
 362 264 l 1
 542 264 l 1x3e
 544 234 l 2
 550 144 586 118 637 118 c 0
 687 118 713 150 718 205 c 0x9e
 720 228 720 250 720 271 c 2
 720 690 l 1
 900 690 l 1
EndSplineSet
Position2: "'cpsp' Capital Spacing in Latin lookup 0 subtable" dx=5 dy=0 dh=10 dv=0
EndChar

StartChar: ij
Encoding: 307 307 158
Width: 570
GlyphClass: 2
Flags: MW
HStem: -210 125<238 375.5> 0 21G<54 234 54 54> 514 20G<54 234 234 234 340 520 520 520> 575 176<116 172 398 462>
VStem: 51 186<636 690> 54 180<0 534> 337 186<632 694> 340 180<15 16 16 534>
LayerCount: 2
Fore
SplineSet
144 751 m 0xfa
 200 751 237 717 237 663 c 0
 237 609 200 575 144 575 c 0
 88 575 51 609 51 663 c 0
 51 717 88 751 144 751 c 0xfa
430 751 m 0
 494 751 523 725 523 663 c 0
 523 601 494 575 430 575 c 0
 366 575 337 601 337 663 c 0
 337 725 366 751 430 751 c 0
234 0 m 1xf5
 54 0 l 1
 54 534 l 1
 234 534 l 1
 234 0 l 1xf5
520 534 m 1
 520 16 l 2
 520 -4 519 -30 518 -48 c 0
 511 -148 453 -210 298 -210 c 0
 277 -210 256 -209 238 -206 c 1
 238 -85 l 1
 303 -91 333 -80 338 -33 c 0
 339 -19 340 0 340 15 c 2
 340 534 l 1
 520 534 l 1
EndSplineSet
EndChar

StartChar: Kcommaaccent
Encoding: 310 310 49
Width: 743
GlyphClass: 2
Flags: MW
HStem: -216 179<325 338 241 439> 0 21G<80 260 80 80 504 729 504 504> 670 20G<80 260 260 260 523 738 738 738>
VStem: 80 180<0 212 0 385 385 690>
AnchorPoint: "Anchor-0" 365 0 basechar 0
LayerCount: 2
Fore
SplineSet
440 365 m 1
 729 0 l 1
 504 0 l 1
 309 266 l 1
 260 212 l 1
 260 0 l 1
 80 0 l 1
 80 690 l 1
 260 690 l 1
 260 385 l 1
 523 690 l 1
 738 690 l 1
 440 365 l 1
325 -37 m 1
 439 -37 l 1
 439 -47 l 1
 338 -216 l 1
 241 -216 l 1
 325 -37 l 1
EndSplineSet
Position2: "'cpsp' Capital Spacing in Latin lookup 0 subtable" dx=5 dy=0 dh=10 dv=0
EndChar

StartChar: kcommaaccent
Encoding: 311 311 163
Width: 632
GlyphClass: 2
Flags: MW
HStem: -216 179<282 295 198 396> 0 21G<54 234 54 54 415 636 415 415> 514 20G<422 633 633 633> 715 20G<54 234 234 234>
VStem: 54 180<0 156 0 310 310 735>
AnchorPoint: "Anchor-0" 322 0 basechar 0
LayerCount: 2
Fore
SplineSet
636 0 m 1
 415 0 l 1
 272 198 l 1
 234 156 l 1
 234 0 l 1
 54 0 l 1
 54 735 l 1
 234 735 l 1
 234 310 l 1
 422 534 l 1
 633 534 l 1
 407 289 l 1
 636 0 l 1
282 -37 m 1
 396 -37 l 1
 396 -47 l 1
 295 -216 l 1
 198 -216 l 1
 282 -37 l 1
EndSplineSet
EndChar

StartChar: Lacute
Encoding: 313 313 51
Width: 628
GlyphClass: 2
Flags: MW
HStem: 0 152<260 609 260 609> 670 20G<80 260 260 260> 735 125<207 212 116 367>
VStem: 80 180<152 690 152 690 152 690>
AnchorPoint: "Anchor-0" 339 0 basechar 0
LayerCount: 2
Fore
SplineSet
212 735 m 1
 116 735 l 1
 207 860 l 1
 367 860 l 1
 212 735 l 1
609 152 m 1
 609 0 l 1
 80 0 l 1
 80 690 l 1
 260 690 l 1
 260 152 l 1
 609 152 l 1
EndSplineSet
Position2: "'cpsp' Capital Spacing in Latin lookup 0 subtable" dx=5 dy=0 dh=10 dv=0
EndChar

StartChar: lacute
Encoding: 314 314 165
Width: 305
GlyphClass: 2
Flags: MW
HStem: -10 127<144.5 291> -5 21G<291 291> 715 20G<50 230 230 230> 779 125<170 175 79 330>
VStem: 50 180<189 192 192 735>
AnchorPoint: "Anchor-0" 162 0 basechar 0
LayerCount: 2
Fore
SplineSet
175 779 m 1x78
 79 779 l 1
 170 904 l 1
 330 904 l 1
 175 779 l 1x78
230 735 m 1
 230 192 l 2
 230 167 230 156 232 143 c 0
 235 122 244 115 291 117 c 1
 291 -5 l 1
 258 -8 226 -10 186 -10 c 0xb8
 103 -10 56 23 52 94 c 0
 50 122 50 149 50 189 c 2
 50 735 l 1
 230 735 l 1
EndSplineSet
EndChar

StartChar: Lcommaaccent
Encoding: 315 315 53
Width: 628
GlyphClass: 2
Flags: MW
HStem: -216 179<299 312 215 413> 0 152<260 609 260 609> 670 20G<80 260 260 260>
VStem: 80 180<152 690 152 690 152 690>
AnchorPoint: "Anchor-0" 339 0 basechar 0
LayerCount: 2
Fore
SplineSet
609 152 m 1
 609 0 l 1
 80 0 l 1
 80 690 l 1
 260 690 l 1
 260 152 l 1
 609 152 l 1
299 -37 m 1
 413 -37 l 1
 413 -47 l 1
 312 -216 l 1
 215 -216 l 1
 299 -37 l 1
EndSplineSet
Position2: "'cpsp' Capital Spacing in Latin lookup 0 subtable" dx=5 dy=0 dh=10 dv=0
EndChar

StartChar: lcommaaccent
Encoding: 316 316 167
Width: 305
GlyphClass: 2
Flags: MW
HStem: -216 179<122 135 38 236> -10 127<144.5 291> -5 21G<291 291> 715 20G<50 230 230 230>
VStem: 50 180<189 192 192 735>
AnchorPoint: "Anchor-0" 162 0 basechar 0
LayerCount: 2
Fore
SplineSet
230 735 m 1xb8
 230 192 l 2
 230 167 230 156 232 143 c 0
 235 122 244 115 291 117 c 1
 291 -5 l 1
 258 -8 226 -10 186 -10 c 0xd8
 103 -10 56 23 52 94 c 0
 50 122 50 149 50 189 c 2
 50 735 l 1
 230 735 l 1xb8
236 -47 m 1xb8
 135 -216 l 1
 38 -216 l 1
 122 -37 l 1
 236 -37 l 1
 236 -47 l 1xb8
EndSplineSet
EndChar

StartChar: lcaron
Encoding: 318 318 166
Width: 305
GlyphClass: 2
Flags: MW
HStem: -10 127<144.5 291> -5 21G<291 291> 715 20G<50 230 230 230>
VStem: 50 180<189 192 192 735>
AnchorPoint: "Anchor-0" 162 0 basechar 0
LayerCount: 2
Fore
SplineSet
230 735 m 1x70
 230 192 l 2
 230 167 230 156 232 143 c 0
 235 122 244 115 291 117 c 1
 291 -5 l 1
 258 -8 226 -10 186 -10 c 0xb0
 103 -10 56 23 52 94 c 0
 50 122 50 149 50 189 c 2
 50 735 l 1
 230 735 l 1x70
EndSplineSet
EndChar

StartChar: Ldot
Encoding: 319 319 54
Width: 628
GlyphClass: 2
Flags: MW
HStem: 0 152<260 609 260 609> 300 200<421.5 478.5> 670 20G<80 260 260 260>
VStem: 80 180<152 690 152 690 152 690> 350 200<371.5 428.5>
AnchorPoint: "Anchor-0" 339 0 basechar 0
LayerCount: 2
Fore
SplineSet
609 152 m 1
 609 0 l 1
 80 0 l 1
 80 690 l 1
 260 690 l 1
 260 152 l 1
 609 152 l 1
450 300 m 0
 393 300 350 343 350 400 c 0
 350 457 393 500 450 500 c 0
 507 500 550 457 550 400 c 0
 550 343 507 300 450 300 c 0
EndSplineSet
Ligature2: "Ligature Substitution lookup 5 subtable" L periodcentered
Position2: "'cpsp' Capital Spacing in Latin lookup 0 subtable" dx=5 dy=0 dh=10 dv=0
EndChar

StartChar: ldot
Encoding: 320 320 168
Width: 480
GlyphClass: 2
Flags: MW
HStem: -10 127<144.5 291> -5 21G<291 291> 312 176<353 407> 715 20G<50 230 230 230>
VStem: 50 180<189 192 192 735> 287 186<374 426>
AnchorPoint: "Anchor-0" 162 0 basechar 0
LayerCount: 2
Fore
SplineSet
230 735 m 1x78
 230 192 l 2
 230 167 230 156 232 143 c 0
 235 122 244 115 291 117 c 1
 291 -5 l 1
 258 -8 226 -10 186 -10 c 0xbc
 103 -10 56 23 52 94 c 0
 50 122 50 149 50 189 c 2
 50 735 l 1
 230 735 l 1x78
380 488 m 0
 434 488 473 452 473 400 c 0
 473 348 434 312 380 312 c 0
 326 312 287 348 287 400 c 0
 287 452 326 488 380 488 c 0
EndSplineSet
Ligature2: "Ligature Substitution lookup 5 subtable" l periodcentered
EndChar

StartChar: Lslash
Encoding: 321 321 55
Width: 668
GlyphClass: 2
Flags: MW
HStem: 0 152<300 649 300 649> 518 20G<386 386> 670 20G<120 300 300 300>
VStem: 120 180<152 285 285 285 493 690>
AnchorPoint: "Anchor-0" 379 0 basechar 0
LayerCount: 2
Fore
SplineSet
649 152 m 1
 649 0 l 1
 120 0 l 1
 120 285 l 1
 26 235 l 1
 26 348 l 1
 120 398 l 1
 120 690 l 1
 300 690 l 1
 300 493 l 1
 386 538 l 1
 386 425 l 1
 300 380 l 1
 300 152 l 1
 649 152 l 1
EndSplineSet
Position2: "'cpsp' Capital Spacing in Latin lookup 0 subtable" dx=5 dy=0 dh=10 dv=0
EndChar

StartChar: lslash
Encoding: 322 322 169
Width: 337
GlyphClass: 2
Flags: MW
HStem: -10 127<166.5 313> 715 20G<72 252 252 252>
VStem: 72 180<189 192 192 206 206 206 439 735>
AnchorPoint: "Anchor-0" 184 0 basechar 0
LayerCount: 2
Fore
SplineSet
254 143 m 0
 257 122 266 115 313 117 c 1
 313 -5 l 1
 280 -8 248 -10 208 -10 c 0
 125 -10 78 23 74 94 c 0
 72 122 72 149 72 189 c 2
 72 206 l 1
 12 168 l 1
 12 287 l 1
 72 325 l 1
 72 735 l 1
 252 735 l 1
 252 439 l 1
 312 477 l 1
 312 358 l 1
 252 320 l 1
 252 192 l 2
 252 167 252 156 254 143 c 0
EndSplineSet
EndChar

StartChar: Ncommaaccent
Encoding: 325 325 60
Width: 794
GlyphClass: 2
Flags: MW
HStem: -216 179<365 378 281 479> 0 21G<80 260 80 80 505 740 505 505> 670 20G<80 304 304 304 560 740 740 740>
VStem: 80 180<0 285 0 690> 560 180<395 690>
AnchorPoint: "Anchor-0" 405 0 basechar 0
LayerCount: 2
Fore
SplineSet
740 0 m 1
 505 0 l 1
 254 456 l 1
 260 386 260 325 260 285 c 2
 260 0 l 1
 80 0 l 1
 80 690 l 1
 304 690 l 1
 566 214 l 1
 561 284 560 355 560 395 c 2
 560 690 l 1
 740 690 l 1
 740 0 l 1
479 -47 m 1
 378 -216 l 1
 281 -216 l 1
 365 -37 l 1
 479 -37 l 1
 479 -47 l 1
EndSplineSet
Position2: "'cpsp' Capital Spacing in Latin lookup 0 subtable" dx=5 dy=0 dh=10 dv=0
EndChar

StartChar: ncommaaccent
Encoding: 326 326 174
Width: 644
GlyphClass: 2
Flags: MW
HStem: -216 179<281 294 197 395> 0 21G<54 234 54 54 416 596 416 416> 426 108<54 355> 426 122<300.5 457>
VStem: 54 180<0 252 451 534> 416 180<0 272 272 280.5>
AnchorPoint: "Anchor-0" 321 0 basechar 0
LayerCount: 2
Fore
SplineSet
591 403 m 0xec
 595 376 596 345 596 302 c 2
 596 0 l 1
 416 0 l 1
 416 272 l 2
 416 289 416 318 414 345 c 0
 410 396 382 426 328 426 c 0
 273 426 234 373 234 252 c 2
 234 0 l 1
 54 0 l 1
 54 534 l 1
 234 534 l 1
 234 451 l 1xec
 282 517 l 1
 315 537 353 548 402 548 c 0xdc
 512 548 577 496 591 403 c 0xec
281 -37 m 1
 395 -37 l 1
 395 -47 l 1
 294 -216 l 1
 197 -216 l 1
 281 -37 l 1
EndSplineSet
EndChar

StartChar: Ncaron
Encoding: 327 327 59
Width: 794
GlyphClass: 2
Flags: MW
HStem: 0 21G<80 260 80 80 505 740 505 505> 670 20G<80 304 304 304 560 740 740 740> 735 125<331 331 331 373 439 480>
VStem: 80 180<0 285 0 690> 560 180<395 690 0 690>
AnchorPoint: "Anchor-0" 405 0 basechar 0
LayerCount: 2
Fore
SplineSet
331 735 m 1
 269 860 l 1
 373 860 l 1
 407 784 l 1
 439 860 l 1
 542 860 l 1
 480 735 l 1
 331 735 l 1
740 690 m 1
 740 0 l 1
 505 0 l 1
 254 456 l 1
 260 386 260 325 260 285 c 2
 260 0 l 1
 80 0 l 1
 80 690 l 1
 304 690 l 1
 566 214 l 1
 561 284 560 355 560 395 c 2
 560 690 l 1
 740 690 l 1
EndSplineSet
Position2: "'cpsp' Capital Spacing in Latin lookup 0 subtable" dx=5 dy=0 dh=10 dv=0
EndChar

StartChar: ncaron
Encoding: 328 328 173
Width: 644
GlyphClass: 2
Flags: MW
HStem: 0 21G<54 234 54 54 416 596 416 416> 426 108<54 355> 426 122<300.5 457> 571 125<247 247 247 289 355 396>
VStem: 54 180<0 252 451 534> 416 180<0 272 272 280.5>
AnchorPoint: "Anchor-0" 321 0 basechar 0
LayerCount: 2
Fore
SplineSet
247 571 m 1xdc
 185 696 l 1
 289 696 l 1
 323 620 l 1
 355 696 l 1
 458 696 l 1
 396 571 l 1
 247 571 l 1xdc
591 403 m 0
 595 376 596 345 596 302 c 2
 596 0 l 1
 416 0 l 1
 416 272 l 2
 416 289 416 318 414 345 c 0
 410 396 382 426 328 426 c 0
 273 426 234 373 234 252 c 2
 234 0 l 1
 54 0 l 1
 54 534 l 1
 234 534 l 1
 234 451 l 1xdc
 282 517 l 1
 315 537 353 548 402 548 c 0xbc
 512 548 577 496 591 403 c 0
EndSplineSet
EndChar

StartChar: Eng
Encoding: 330 330 61
Width: 794
GlyphClass: 2
Flags: MW
HStem: -223 132<485 572.5> 0 21G<80 260 80 80> 670 20G<80 304 304 304 560 740 740 740>
VStem: 80 180<0 285 0 690> 560 180<-33 -20 -20 -20 435 690>
LayerCount: 2
Fore
SplineSet
740 690 m 1
 740 -57 l 2
 740 -75 740 -84 739 -98 c 0
 730 -186 660 -223 485 -223 c 1
 485 -91 l 1
 545 -85 560 -66 560 -33 c 2
 560 -20 l 1
 254 456 l 1
 260 386 260 325 260 285 c 2
 260 0 l 1
 80 0 l 1
 80 690 l 1
 304 690 l 1
 566 254 l 1
 561 324 560 395 560 435 c 2
 560 690 l 1
 740 690 l 1
EndSplineSet
Position2: "'cpsp' Capital Spacing in Latin lookup 0 subtable" dx=5 dy=0 dh=10 dv=0
EndChar

StartChar: eng
Encoding: 331 331 175
Width: 644
GlyphClass: 2
Flags: MW
HStem: -210 132<341 363.5 341 439> 0 21G<54 234 54 54> 426 108<54 355> 426 122<300.5 457>
VStem: 54 180<0 252 451 534> 416 180<-3 272 272 280.5>
LayerCount: 2
Fore
SplineSet
591 403 m 0xec
 595 376 596 345 596 302 c 2
 596 -34 l 2
 596 -52 596 -61 595 -75 c 0
 586 -163 537 -210 341 -210 c 1
 341 -78 l 1
 386 -78 411 -69 415 -35 c 0
 416 -26 416 -13 416 -3 c 2
 416 272 l 2
 416 289 416 318 414 345 c 0
 410 396 382 426 328 426 c 0
 273 426 234 373 234 252 c 2
 234 0 l 1
 54 0 l 1
 54 534 l 1
 234 534 l 1
 234 451 l 1xec
 282 517 l 1
 315 537 353 548 402 548 c 0xdc
 512 548 577 496 591 403 c 0xec
EndSplineSet
EndChar

StartChar: Omacron
Encoding: 332 332 69
Width: 788
GlyphClass: 2
Flags: MW
HStem: -14 132<355 459 355 514.5> 572 132<355 459> 760 96<257 557 257 557>
VStem: 54 184<272 418.5 272 456> 257 300<760 856 760 856> 576 184<272 418.5>
LayerCount: 2
Fore
SplineSet
557 760 m 1
 257 760 l 1
 257 856 l 1
 557 856 l 1
 557 760 l 1
407 704 m 0xf4
 622 704 760 567 760 345 c 0
 760 124 622 -14 407 -14 c 0
 192 -14 54 124 54 345 c 0
 54 567 192 704 407 704 c 0xf4
407 118 m 0
 511 118 576 199 576 345 c 0
 576 492 511 572 407 572 c 0
 303 572 238 492 238 345 c 0
 238 199 303 118 407 118 c 0
EndSplineSet
Position2: "'cpsp' Capital Spacing in Latin lookup 0 subtable" dx=5 dy=0 dh=10 dv=0
EndChar

StartChar: Ohungarumlaut
Encoding: 336 336 68
Width: 788
GlyphClass: 2
Flags: MW
HStem: -14 132<355 459 355 514.5> 572 132<355 459> 736 125<321 326 230 481 431 481 522 527 431 431>
VStem: 54 184<272 418.5 272 456> 576 184<272 418.5>
LayerCount: 2
Fore
SplineSet
326 736 m 1
 230 736 l 1
 321 861 l 1
 481 861 l 1
 326 736 l 1
431 736 m 1
 522 861 l 1
 682 861 l 1
 527 736 l 1
 431 736 l 1
407 704 m 0
 622 704 760 567 760 345 c 0
 760 124 622 -14 407 -14 c 0
 192 -14 54 124 54 345 c 0
 54 567 192 704 407 704 c 0
407 118 m 0
 511 118 576 199 576 345 c 0
 576 492 511 572 407 572 c 0
 303 572 238 492 238 345 c 0
 238 199 303 118 407 118 c 0
EndSplineSet
Position2: "'cpsp' Capital Spacing in Latin lookup 0 subtable" dx=5 dy=0 dh=10 dv=0
EndChar

StartChar: ohungarumlaut
Encoding: 337 337 182
Width: 622
GlyphClass: 2
Flags: MW
HStem: -14 122<279 343 279 398.5> 426 122<279 343> 571 125<230 235 139 390 330 390 421 426 330 330>
VStem: 24 184<214 320.5 214 353> 414 184<214 320.5>
LayerCount: 2
Fore
SplineSet
235 571 m 1
 139 571 l 1
 230 696 l 1
 390 696 l 1
 235 571 l 1
330 571 m 1
 421 696 l 1
 581 696 l 1
 426 571 l 1
 330 571 l 1
311 548 m 0xf8
 486 548 598 439 598 267 c 0
 598 96 486 -14 311 -14 c 0
 136 -14 24 96 24 267 c 0
 24 439 136 548 311 548 c 0xf8
311 108 m 0
 375 108 414 161 414 267 c 0
 414 374 375 426 311 426 c 0
 247 426 208 374 208 267 c 0
 208 161 247 108 311 108 c 0
EndSplineSet
EndChar

StartChar: OE
Encoding: 338 338 72
Width: 1135
GlyphClass: 2
Flags: MW
HStem: -14 132<355 411.5> 0 140<756 1105 756 1105> 276 140<756 1075 756 1075> 550 140<756 1095 756 756> 572 132<355 410.5 279.5 459>
VStem: 54 184<272 418.5 272 456> 576 180<0 276 103 276 272 276 416 418.5>
LayerCount: 2
Fore
SplineSet
1105 140 m 1x76
 1105 0 l 1
 576 0 l 1x76
 576 103 l 1
 544 36 l 1
 493 -4 456 -14 367 -14 c 0
 192 -14 54 124 54 345 c 0
 54 567 192 704 367 704 c 0
 454 704 494 694 544 656 c 1xae
 576 588 l 1
 576 690 l 1
 1095 690 l 1
 1095 550 l 1
 756 550 l 1
 756 416 l 1
 1075 416 l 1
 1075 276 l 1
 756 276 l 1
 756 140 l 1
 1105 140 l 1x76
407 118 m 0xae
 511 118 576 199 576 345 c 0
 576 492 511 572 407 572 c 0
 303 572 238 492 238 345 c 0
 238 199 303 118 407 118 c 0xae
EndSplineSet
Position2: "'cpsp' Capital Spacing in Latin lookup 0 subtable" dx=5 dy=0 dh=10 dv=0
EndChar

StartChar: oe
Encoding: 339 339 186
Width: 991
GlyphClass: 2
Flags: MW
HStem: -14 122<279 343 279 349 665.5 716.5> 222 110<598 779 598 964 592 779> 426 122<279 343 667 714.5>
VStem: 24 184<214 320.5 214 353> 414 178<222 222 222 320.5>
LayerCount: 2
Fore
SplineSet
967 274 m 0
 967 258 966 240 964 222 c 1
 592 222 l 1
 601 133 640 108 691 108 c 0
 742 108 773 134 780 175 c 1
 957 175 l 1
 926 54 826 -14 694 -14 c 0
 620 -14 550 11 503 79 c 1
 457 13 387 -14 311 -14 c 0
 136 -14 24 96 24 267 c 0
 24 439 136 548 311 548 c 0
 389 548 461 518 508 447 c 1
 554 517 625 548 708 548 c 0
 877 548 967 412 967 274 c 0
311 108 m 0
 375 108 414 161 414 267 c 0
 414 374 375 426 311 426 c 0
 247 426 208 374 208 267 c 0
 208 161 247 108 311 108 c 0
598 332 m 1
 779 332 l 1
 770 394 739 426 690 426 c 0
 644 426 611 397 598 332 c 1
EndSplineSet
EndChar

StartChar: racute
Encoding: 341 341 191
Width: 420
GlyphClass: 2
Flags: MW
HStem: 0 21G<54 234 54 54> 514 20G<54 234 234 234> 525 20G<418 418> 528 20G<360 385.5> 571 125<250 255 159 410>
VStem: 54 180<0 196 426 534>
AnchorPoint: "Anchor-0" 144 0 basechar 0
LayerCount: 2
Fore
SplineSet
255 571 m 1xcc
 159 571 l 1
 250 696 l 1
 410 696 l 1
 255 571 l 1xcc
377 548 m 0x9c
 394 548 405 547 418 545 c 1xac
 418 398 l 1
 283 407 234 357 234 196 c 2
 234 0 l 1
 54 0 l 1
 54 534 l 1
 234 534 l 1xcc
 234 426 l 1
 272 501 l 1
 301 533 343 548 377 548 c 0x9c
EndSplineSet
EndChar

StartChar: rcommaaccent
Encoding: 343 343 193
Width: 420
GlyphClass: 2
Flags: MW
HStem: -216 179<104 117 20 218> 0 21G<54 234 54 54> 514 20G<54 234 234 234> 525 20G<418 418> 528 20G<360 385.5>
VStem: 54 180<0 196 426 534>
AnchorPoint: "Anchor-0" 144 0 basechar 0
LayerCount: 2
Fore
SplineSet
377 548 m 0xcc
 394 548 405 547 418 545 c 1xd4
 418 398 l 1
 283 407 234 357 234 196 c 2
 234 0 l 1
 54 0 l 1
 54 534 l 1
 234 534 l 1xe4
 234 426 l 1
 272 501 l 1
 301 533 343 548 377 548 c 0xcc
104 -37 m 1
 218 -37 l 1
 218 -47 l 1
 117 -216 l 1
 20 -216 l 1
 104 -37 l 1
EndSplineSet
EndChar

StartChar: Rcaron
Encoding: 344 344 78
Width: 682
GlyphClass: 2
Flags: MW
HStem: 0 21G<80 260 80 80 474 670 474 474> 262 130<260 300 260 325> 550 140<260 330 260 260> 735 125<286 286 286 328 394 435>
VStem: 80 180<0 262 392 550> 461 188<458.5 500>
AnchorPoint: "Anchor-0" 353 0 basechar 0
LayerCount: 2
Fore
SplineSet
286 735 m 1
 224 860 l 1
 328 860 l 1
 362 784 l 1
 394 860 l 1
 497 860 l 1
 435 735 l 1
 286 735 l 1
618 168 m 0
 627 90 643 41 670 0 c 1
 474 0 l 1
 458 49 448 89 442 138 c 0
 433 214 403 258 357 261 c 0
 337 262 320 262 300 262 c 2
 260 262 l 1
 260 0 l 1
 80 0 l 1
 80 690 l 1
 354 690 l 2
 397 690 425 689 462 685 c 0
 562 673 649 624 649 502 c 0
 649 415 602 357 510 330 c 1
 582 304 608 251 618 168 c 0
260 392 m 1
 325 392 l 2
 344 392 360 392 373 393 c 0
 419 397 461 413 461 471 c 0
 461 529 424 545 378 549 c 0
 365 550 349 550 330 550 c 2
 260 550 l 1
 260 392 l 1
EndSplineSet
Position2: "'cpsp' Capital Spacing in Latin lookup 0 subtable" dx=5 dy=0 dh=10 dv=0
EndChar

StartChar: rcaron
Encoding: 345 345 192
Width: 420
GlyphClass: 2
Flags: MW
HStem: 0 21G<54 234 54 54> 514 20G<54 234 234 234> 525 20G<418 418> 528 20G<360 385.5> 571 125<139 139 139 181 247 288>
VStem: 54 180<0 196 426 534>
AnchorPoint: "Anchor-0" 144 0 basechar 0
LayerCount: 2
Fore
SplineSet
139 571 m 1xcc
 77 696 l 1
 181 696 l 1
 215 620 l 1
 247 696 l 1
 350 696 l 1
 288 571 l 1
 139 571 l 1xcc
377 548 m 0x9c
 394 548 405 547 418 545 c 1xac
 418 398 l 1
 283 407 234 357 234 196 c 2
 234 0 l 1
 54 0 l 1
 54 534 l 1
 234 534 l 1xcc
 234 426 l 1
 272 501 l 1
 301 533 343 548 377 548 c 0x9c
EndSplineSet
EndChar

StartChar: Scedilla
Encoding: 350 350 83
Width: 626
GlyphClass: 2
Flags: MW
HStem: -210 69<251.5 279.5 251.5 303> -9 21G<259 259> 572 132<297.5 347.5>
VStem: 61 188<488 531 488 562.5> 318 108<-123 -104> 421 188<163 200>
AnchorPoint: "Anchor-0" 312 0 basechar 0
LayerCount: 2
Fore
SplineSet
609 194 m 0xf4
 609 58 481 -12 345 -14 c 1
 331 -42 l 1
 394 -49 426 -74 426 -119 c 0
 426 -188 349 -210 257 -210 c 0
 237 -210 219 -209 200 -204 c 1
 200 -134 l 1
 225 -140 245 -141 258 -141 c 0
 301 -141 318 -132 318 -114 c 0
 318 -94 296 -83 221 -88 c 1
 259 -9 l 1xf8
 128 10 43 81 34 211 c 1
 214 211 l 1
 226 146 279 118 333 118 c 0
 383 118 421 144 421 182 c 0
 421 218 395 249 310 270 c 0
 153 309 61 358 61 496 c 0
 61 629 185 704 322 704 c 0
 504 704 580 605 595 477 c 1
 415 477 l 1
 407 534 377 572 318 572 c 0
 277 572 249 552 249 510 c 0
 249 466 281 439 395 412 c 0
 547 376 609 300 609 194 c 0xf4
EndSplineSet
Substitution2: "'locl' Localized Forms in Latin lookup 2 subtable" Scommaaccent
Substitution2: "'locl' Localized Forms in Latin lookup 1 subtable" Scommaaccent
Substitution2: "'aalt' Access All Alternates in Latin lookup 0 subtable" Scommaaccent
Position2: "'cpsp' Capital Spacing in Latin lookup 0 subtable" dx=5 dy=0 dh=10 dv=0
EndChar

StartChar: scedilla
Encoding: 351 351 197
Width: 528
GlyphClass: 2
Flags: MW
HStem: -210 69<208.5 236.5 208.5 260> -88 254<178 178> -10 21G<216 216> 378 170<321 340.5 203 498 321 321> 436 112<250.5 279>
VStem: 40 180<382 408.5 382 429> 275 108<-123 -104> 332 180<125 156>
AnchorPoint: "Anchor-0" 269 0 basechar 0
LayerCount: 2
Fore
SplineSet
512 153 m 0xb5
 512 47 419 -7 302 -13 c 1
 288 -42 l 1
 351 -49 383 -74 383 -119 c 0
 383 -188 306 -210 214 -210 c 0
 194 -210 176 -209 157 -204 c 1
 157 -134 l 1
 182 -140 202 -141 215 -141 c 0
 258 -141 275 -132 275 -114 c 0
 275 -94 253 -83 178 -88 c 1xd6
 216 -10 l 1xb6
 104 5 30 63 18 166 c 1
 195 166 l 1
 205 125 237 98 275 98 c 0
 307 98 332 111 332 139 c 0
 332 173 298 192 203 214 c 0
 101 238 40 285 40 376 c 0
 40 482 132 548 274 548 c 0
 407 548 484 475 498 378 c 1
 321 378 l 1xd5
 313 415 295 436 263 436 c 0
 238 436 220 420 220 397 c 0xad
 220 367 244 347 346 322 c 0
 443 298 512 256 512 153 c 0xb5
EndSplineSet
Substitution2: "'locl' Localized Forms in Latin lookup 2 subtable" scommaaccent
Substitution2: "'locl' Localized Forms in Latin lookup 1 subtable" scommaaccent
Substitution2: "'aalt' Access All Alternates in Latin lookup 0 subtable" scommaaccent
EndChar

StartChar: scaron
Encoding: 353 353 196
Width: 528
GlyphClass: 2
Flags: MW
HStem: -14 112<256 291 256 340.5> -14 180<18 340.5> 378 170<321 340.5 203 498 321 321> 436 112<250.5 279> 571 125<195 195 195 237 303 344>
VStem: 40 180<382 408.5 382 429> 332 180<125 156>
AnchorPoint: "Anchor-0" 269 0 basechar 0
LayerCount: 2
Fore
SplineSet
195 571 m 1x8e
 133 696 l 1
 237 696 l 1
 271 620 l 1
 303 696 l 1
 406 696 l 1
 344 571 l 1
 195 571 l 1x8e
346 322 m 0
 443 298 512 256 512 153 c 0
 512 39 405 -14 276 -14 c 0x8e
 131 -14 32 46 18 166 c 1
 195 166 l 1x4e
 205 125 237 98 275 98 c 0
 307 98 332 111 332 139 c 0
 332 173 298 192 203 214 c 0
 101 238 40 285 40 376 c 0
 40 482 132 548 274 548 c 0
 407 548 484 475 498 378 c 1
 321 378 l 1xae
 313 415 295 436 263 436 c 0
 238 436 220 420 220 397 c 0x9e
 220 367 244 347 346 322 c 0
EndSplineSet
EndChar

StartChar: Tcedilla
Encoding: 354 354 88
Width: 632
GlyphClass: 2
Flags: MW
HStem: -210 69<267.5 295.5 267.5 319> 0 21G<238 280 238 238 367 418 367 367> 550 140<14 238 14 642 418 418 418 642>
VStem: 238 180<0 550 0 550> 334 108<-123 -104>
AnchorPoint: "Anchor-0" 328 0 basechar 0
LayerCount: 2
Fore
SplineSet
367 0 m 1xf0
 347 -42 l 1
 410 -49 442 -74 442 -119 c 0
 442 -188 365 -210 273 -210 c 0
 253 -210 235 -209 216 -204 c 1
 216 -134 l 1
 241 -140 261 -141 274 -141 c 0
 317 -141 334 -132 334 -114 c 0
 334 -94 312 -83 237 -88 c 1
 280 0 l 1xe8
 238 0 l 1
 238 550 l 1
 14 550 l 1
 14 690 l 1
 642 690 l 1
 642 550 l 1
 418 550 l 1
 418 0 l 1
 367 0 l 1xf0
EndSplineSet
Substitution2: "'locl' Localized Forms in Latin lookup 2 subtable" uni021A
Substitution2: "'locl' Localized Forms in Latin lookup 1 subtable" uni021A
Substitution2: "'aalt' Access All Alternates in Latin lookup 0 subtable" uni021A
Position2: "'cpsp' Capital Spacing in Latin lookup 0 subtable" dx=5 dy=0 dh=10 dv=0
EndChar

StartChar: tcedilla
Encoding: 355 355 203
Width: 400
GlyphClass: 2
Flags: MW
HStem: -210 69<165.5 193.5 165.5 217> -14 21G<259 271 259 259> -14 121<259 377 259 377> -3 21G<176 176> 418 112<5 90 5 90 270 388>
VStem: 90 180<212 221 221 418 530 668> 232 108<-123 -104>
AnchorPoint: "Anchor-0" 226 0 basechar 0
LayerCount: 2
Fore
SplineSet
270 418 m 1x9c
 270 221 l 2
 270 203 270 183 271 169 c 0
 275 115 292 103 377 107 c 1xac
 377 -5 l 1
 342 -11 309 -14 271 -14 c 2
 259 -14 l 1
 245 -42 l 1xca
 308 -49 340 -74 340 -119 c 0
 340 -188 263 -210 171 -210 c 0
 151 -210 133 -209 114 -204 c 1
 114 -134 l 1
 139 -140 159 -141 172 -141 c 0
 215 -141 232 -132 232 -114 c 0
 232 -94 210 -83 135 -88 c 1
 176 -3 l 1x9a
 117 14 96 51 92 109 c 0
 90 140 90 165 90 195 c 2
 90 418 l 1
 5 418 l 1
 5 530 l 1
 90 530 l 1
 90 668 l 1
 270 668 l 1
 270 530 l 1
 388 530 l 1
 388 418 l 1
 270 418 l 1x9c
EndSplineSet
Substitution2: "'locl' Localized Forms in Latin lookup 2 subtable" uni021B
Substitution2: "'locl' Localized Forms in Latin lookup 1 subtable" uni021B
Substitution2: "'aalt' Access All Alternates in Latin lookup 0 subtable" uni021B
EndChar

StartChar: Tcaron
Encoding: 356 356 87
Width: 632
GlyphClass: 2
Flags: MW
HStem: 0 21G<238 418 238 238> 550 140<14 238 14 642 418 642 418 418> 735 125<254 254 254 296 362 403>
VStem: 238 180<0 550 0 550>
AnchorPoint: "Anchor-0" 328 0 basechar 0
LayerCount: 2
Fore
SplineSet
254 735 m 1
 192 860 l 1
 296 860 l 1
 330 784 l 1
 362 860 l 1
 465 860 l 1
 403 735 l 1
 254 735 l 1
642 550 m 1
 418 550 l 1
 418 0 l 1
 238 0 l 1
 238 550 l 1
 14 550 l 1
 14 690 l 1
 642 690 l 1
 642 550 l 1
EndSplineSet
Position2: "'cpsp' Capital Spacing in Latin lookup 0 subtable" dx=5 dy=0 dh=10 dv=0
EndChar

StartChar: Tbar
Encoding: 358 358 86
Width: 632
GlyphClass: 2
Flags: MW
HStem: 0 21G<238 418 238 238> 293 96<148 238 148 238 418 508> 550 140<14 238 14 642 418 642 418 418>
VStem: 238 180<0 293 0 293 389 550>
AnchorPoint: "Anchor-0" 328 0 basechar 0
LayerCount: 2
Fore
SplineSet
418 550 m 1
 418 389 l 1
 508 389 l 1
 508 293 l 1
 418 293 l 1
 418 0 l 1
 238 0 l 1
 238 293 l 1
 148 293 l 1
 148 389 l 1
 238 389 l 1
 238 550 l 1
 14 550 l 1
 14 690 l 1
 642 690 l 1
 642 550 l 1
 418 550 l 1
EndSplineSet
Position2: "'cpsp' Capital Spacing in Latin lookup 0 subtable" dx=5 dy=0 dh=10 dv=0
EndChar

StartChar: tbar
Encoding: 359 359 201
Width: 400
GlyphClass: 2
Flags: MW
HStem: -14 121<204.5 377> -5 21G<377 377> 248 96<36 90 36 90 270 336> 418 112<5 90 5 90 270 388>
VStem: 90 180<212 221 221 248 212 248 344 418 530 668>
AnchorPoint: "Anchor-0" 226 0 basechar 0
LayerCount: 2
Fore
SplineSet
270 418 m 1x78
 270 344 l 1
 336 344 l 1
 336 248 l 1
 270 248 l 1
 270 221 l 2
 270 203 270 183 271 169 c 0
 275 115 292 103 377 107 c 1
 377 -5 l 1
 342 -11 309 -14 271 -14 c 0xb8
 138 -14 98 27 92 109 c 0
 90 140 90 165 90 195 c 2
 90 248 l 1
 36 248 l 1
 36 344 l 1
 90 344 l 1
 90 418 l 1
 5 418 l 1
 5 530 l 1
 90 530 l 1
 90 668 l 1
 270 668 l 1
 270 530 l 1
 388 530 l 1
 388 418 l 1
 270 418 l 1x78
EndSplineSet
EndChar

StartChar: uring
Encoding: 367 367 213
Width: 640
GlyphClass: 2
Flags: MW
HStem: -14 122<183 343.5> 0 108<286.5 586 286.5 406> 514 20G<44 224 224 224 406 586 586 586> 567 66<304.5 325.5 304.5 350> 715 66<304.5 325.5>
VStem: 44 180<253.5 262 262 534> 196 83<661 687 661 706> 351 83<661 687> 406 180<0 90 90 90 232 534 0 534>
LayerCount: 2
Fore
SplineSet
315 567 m 0x7b
 245 567 196 610 196 674 c 0
 196 738 245 781 315 781 c 0
 385 781 434 738 434 674 c 0
 434 610 385 567 315 567 c 0x7b
315 715 m 0
 294 715 279 700 279 674 c 0
 279 648 294 633 315 633 c 0
 336 633 351 648 351 674 c 0
 351 700 336 715 315 715 c 0
586 534 m 1x7c80
 586 0 l 1
 406 0 l 1
 406 90 l 1x7c80
 358 17 l 1
 325 -3 287 -14 238 -14 c 0xbc80
 128 -14 61 48 49 121 c 0
 45 148 44 179 44 222 c 2
 44 534 l 1
 224 534 l 1
 224 262 l 2
 224 245 225 216 228 189 c 0
 234 138 258 108 315 108 c 0
 372 108 406 161 406 232 c 2
 406 534 l 1
 586 534 l 1x7c80
EndSplineSet
EndChar

StartChar: Uhungarumlaut
Encoding: 368 368 95
Width: 718
GlyphClass: 2
Flags: MW
HStem: -14 132<334.5 413.5 334.5 480.5> 670 20G<68 248 248 248 500 680 680 680> 736 125<288 293 197 448 398 398 398 448 489 494>
VStem: 68 180<303 690> 500 180<285.5 303 303 690>
LayerCount: 2
Fore
SplineSet
293 736 m 1
 197 736 l 1
 288 861 l 1
 448 861 l 1
 293 736 l 1
494 736 m 1
 398 736 l 1
 489 861 l 1
 649 861 l 1
 494 736 l 1
680 690 m 1
 680 303 l 2
 680 268 680 247 677 206 c 0
 669 90 587 -14 374 -14 c 0
 161 -14 79 90 71 206 c 0
 68 247 68 268 68 303 c 2
 68 690 l 1
 248 690 l 1
 248 270 l 2
 248 251 248 241 249 229 c 0
 254 157 295 118 374 118 c 0
 453 118 494 157 499 229 c 0
 500 241 500 251 500 270 c 2
 500 690 l 1
 680 690 l 1
EndSplineSet
Position2: "'cpsp' Capital Spacing in Latin lookup 0 subtable" dx=5 dy=0 dh=10 dv=0
EndChar

StartChar: uhungarumlaut
Encoding: 369 369 210
Width: 640
GlyphClass: 2
Flags: MW
HStem: -14 122<183 343.5> 0 108<286.5 586 286.5 406> 514 20G<44 224 224 224 406 586 586 586> 571 125<234 239 143 394 334 394 425 430 334 334>
VStem: 44 180<253.5 262 262 534> 406 180<0 90 90 90 232 534 0 534>
LayerCount: 2
Fore
SplineSet
239 571 m 1x7c
 143 571 l 1
 234 696 l 1
 394 696 l 1
 239 571 l 1x7c
334 571 m 1
 425 696 l 1
 585 696 l 1
 430 571 l 1
 334 571 l 1
586 534 m 1
 586 0 l 1
 406 0 l 1
 406 90 l 1x7c
 358 17 l 1
 325 -3 287 -14 238 -14 c 0xbc
 128 -14 61 48 49 121 c 0
 45 148 44 179 44 222 c 2
 44 534 l 1
 224 534 l 1
 224 262 l 2
 224 245 225 216 228 189 c 0
 234 138 258 108 315 108 c 0
 372 108 406 161 406 232 c 2
 406 534 l 1
 586 534 l 1
EndSplineSet
EndChar

StartChar: Uogonek
Encoding: 370 370 97
Width: 718
GlyphClass: 2
Flags: MW
HStem: -223 102<368 499> -13 131 -3 21G 670 20G<68 248 248 248 500 680 680 680>
VStem: 68 180<303 690> 287 249<-169 -113> 500 180<285.5 303 303 690>
LayerCount: 2
Fore
SplineSet
680 690 m 1x3a
 680 303 l 2
 680 268 680 247 677 206 c 0x3a
 671 115 619 32 496 0 c 0
 491 -1 487 -2 483 -3 c 0x3c
 464 -12 451 -39 451 -70 c 0
 451 -108 472 -121 492 -121 c 0
 506 -121 520 -115 536 -100 c 1
 536 -173 l 1
 507 -202 465 -223 401 -223 c 0
 335 -223 287 -201 287 -137 c 0
 287 -89 313 -43 347 -13 c 1xdc
 154 -5 79 95 71 206 c 0
 68 247 68 268 68 303 c 2
 68 690 l 1
 248 690 l 1
 248 270 l 2
 248 251 248 241 249 229 c 0
 254 157 295 118 374 118 c 0x5a
 453 118 494 157 499 229 c 0
 500 241 500 251 500 270 c 2
 500 690 l 1
 680 690 l 1x3a
EndSplineSet
Position2: "'cpsp' Capital Spacing in Latin lookup 0 subtable" dx=5 dy=0 dh=10 dv=0
EndChar

StartChar: uogonek
Encoding: 371 371 212
Width: 640
GlyphClass: 2
Flags: MW
HStem: -223 102<401 532> -14 21G<183 262.5> -14 122<183 343.5> 0 21G<516.5 529 529 586> 514 20G<44 224 224 224 406 586 586 586>
VStem: 44 180<253.5 262 262 534> 406 180<5 90 90 90 232 534>
LayerCount: 2
Fore
SplineSet
586 0 m 1x1e
 529 0 l 2x1e
 504 0 484 -32 484 -70 c 0
 484 -108 505 -121 525 -121 c 0
 539 -121 553 -115 569 -100 c 1
 569 -173 l 1
 540 -202 498 -223 434 -223 c 0
 368 -223 320 -201 320 -137 c 0
 320 -77 361 -20 406 5 c 1
 406 90 l 1xce
 358 17 l 1
 325 -3 287 -14 238 -14 c 0
 128 -14 61 48 49 121 c 0
 45 148 44 179 44 222 c 2
 44 534 l 1
 224 534 l 1
 224 262 l 2
 224 245 225 216 228 189 c 0
 234 138 258 108 315 108 c 0x2e
 372 108 406 161 406 232 c 2
 406 534 l 1
 586 534 l 1
 586 0 l 1x1e
EndSplineSet
EndChar

StartChar: Wcircumflex
Encoding: 372 372 102
Width: 1016
GlyphClass: 2
Flags: MW
HStem: 0 21G<192 433 192 192 613 853 613 613> 0 138<745 745 745 853 613 745> 670 20G<26 217 217 217 845 1029 1029 1029> 735 125<454 495 392 603 561 561 561 603 454 665>
VStem: 26 1003<690 690>
LayerCount: 2
Fore
SplineSet
495 735 m 1xb8
 392 735 l 1
 454 860 l 1
 603 860 l 1
 665 735 l 1
 561 735 l 1
 527 811 l 1
 495 735 l 1xb8
1029 690 m 1
 853 0 l 1
 613 0 l 1
 526 537 l 1
 433 0 l 1
 192 0 l 1
 26 690 l 1
 217 690 l 1
 309 140 l 1
 400 680 l 1
 658 680 l 1
 745 138 l 1x78
 845 690 l 1
 1029 690 l 1
EndSplineSet
Position2: "'cpsp' Capital Spacing in Latin lookup 0 subtable" dx=5 dy=0 dh=10 dv=0
EndChar

StartChar: wcircumflex
Encoding: 373 373 217
Width: 868
GlyphClass: 2
Flags: MW
HStem: 0 21G<169 370 169 169 506 707 506 506> 0 151<614 614 614 707 506 614> 514 20G<0 198 198 198 682 876 876 876> 571 125<364 405 302 513 471 471 471 513 364 575> 647 49<437 437>
VStem: 0 876<534 534>
LayerCount: 2
Fore
SplineSet
405 571 m 1xb4
 302 571 l 1
 364 696 l 1
 513 696 l 1
 575 571 l 1
 471 571 l 1x74
 437 647 l 1xac
 405 571 l 1xb4
876 534 m 1
 707 0 l 1
 506 0 l 1
 438 360 l 1
 370 0 l 1
 169 0 l 1
 0 534 l 1
 198 534 l 1
 268 152 l 1
 332 530 l 1
 546 530 l 1
 614 151 l 1
 682 534 l 1
 876 534 l 1
EndSplineSet
EndChar

StartChar: ycircumflex
Encoding: 375 375 223
Width: 608
GlyphClass: 2
Flags: MW
HStem: -210 119<138.5 147 117 216.5> 514 20G<0 200 200 200 419 616 616 616> 571 125<225 266 163 374 332 332 332 374 225 436> 647 49<298 298>
VStem: 0 616<534 534>
LayerCount: 2
Fore
SplineSet
266 571 m 1xe8
 163 571 l 1
 225 696 l 1
 374 696 l 1
 436 571 l 1
 332 571 l 1xe8
 298 647 l 1xd8
 266 571 l 1xe8
616 534 m 1
 405 0 l 2
 338 -169 280 -210 153 -210 c 0
 124 -210 103 -209 77 -205 c 1
 77 -89 l 1
 92 -91 108 -91 126 -91 c 0
 168 -91 197 -77 214 -39 c 2
 221 -24 l 1
 0 534 l 1
 200 534 l 1
 310 143 l 1
 419 534 l 1
 616 534 l 1
EndSplineSet
EndChar

StartChar: Ydieresis
Encoding: 376 376 109
Width: 663
GlyphClass: 2
Flags: MW
HStem: 0 21G<257 437 257 257> 670 20G<14 216 216 216 483 680 680 680> 722 146<224.5 269.5 424.5 469.5>
VStem: 172 150<772.5 817.5> 257 180<0 264 0 264> 372 150<772.5 817.5>
LayerCount: 2
Fore
SplineSet
247 722 m 0xf4
 202 722 172 750 172 795 c 0
 172 840 202 868 247 868 c 0
 292 868 322 840 322 795 c 0
 322 750 292 722 247 722 c 0xf4
447 722 m 0
 402 722 372 750 372 795 c 0
 372 840 402 868 447 868 c 0
 492 868 522 840 522 795 c 0
 522 750 492 722 447 722 c 0
437 264 m 1xe8
 437 0 l 1
 257 0 l 1
 257 264 l 1
 14 690 l 1
 216 690 l 1
 352 417 l 1
 483 690 l 1
 680 690 l 1
 437 264 l 1xe8
EndSplineSet
Position2: "'cpsp' Capital Spacing in Latin lookup 0 subtable" dx=5 dy=0 dh=10 dv=0
EndChar

StartChar: Zacute
Encoding: 377 377 112
Width: 648
GlyphClass: 2
Flags: MW
HStem: 0 140<276 618 276 618> 550 140<81 394 81 614> 735 125<378 383 287 538>
VStem: 53 565<0 136 136 136>
LayerCount: 2
Fore
SplineSet
383 735 m 1
 287 735 l 1
 378 860 l 1
 538 860 l 1
 383 735 l 1
618 140 m 1
 618 0 l 1
 53 0 l 1
 53 136 l 1
 394 550 l 1
 81 550 l 1
 81 690 l 1
 614 690 l 1
 614 551 l 1
 276 140 l 1
 618 140 l 1
EndSplineSet
Position2: "'cpsp' Capital Spacing in Latin lookup 0 subtable" dx=5 dy=0 dh=10 dv=0
EndChar

StartChar: Zdotaccent
Encoding: 379 379 114
Width: 648
GlyphClass: 2
Flags: MW
HStem: 0 140<276 618 276 618> 550 140<81 394 81 614> 725 176<313 369>
VStem: 248 186<786 840>
LayerCount: 2
Fore
SplineSet
341 725 m 0
 285 725 248 759 248 813 c 0
 248 867 285 901 341 901 c 0
 397 901 434 867 434 813 c 0
 434 759 397 725 341 725 c 0
618 140 m 1
 618 0 l 1
 53 0 l 1
 53 136 l 1
 394 550 l 1
 81 550 l 1
 81 690 l 1
 614 690 l 1
 614 551 l 1
 276 140 l 1
 618 140 l 1
EndSplineSet
Position2: "'cpsp' Capital Spacing in Latin lookup 0 subtable" dx=5 dy=0 dh=10 dv=0
EndChar

StartChar: zdotaccent
Encoding: 380 380 229
Width: 526
GlyphClass: 2
Flags: MW
HStem: 0 112<227 497 227 497> 418 112<49 304 49 494> 575 176<248 304>
VStem: 183 186<636 690>
LayerCount: 2
Fore
SplineSet
276 575 m 0
 220 575 183 609 183 663 c 0
 183 717 220 751 276 751 c 0
 332 751 369 717 369 663 c 0
 369 609 332 575 276 575 c 0
497 112 m 1
 497 0 l 1
 34 0 l 1
 34 105 l 1
 304 418 l 1
 49 418 l 1
 49 530 l 1
 494 530 l 1
 494 420 l 1
 227 112 l 1
 497 112 l 1
EndSplineSet
EndChar

StartChar: Zcaron
Encoding: 381 381 113
Width: 648
GlyphClass: 2
Flags: MW
HStem: 0 140<276 618 276 618> 550 140<81 394 81 614> 735 125<267 267 267 309 375 416>
VStem: 53 565<0 136 136 136>
LayerCount: 2
Fore
SplineSet
267 735 m 1
 205 860 l 1
 309 860 l 1
 343 784 l 1
 375 860 l 1
 478 860 l 1
 416 735 l 1
 267 735 l 1
618 140 m 1
 618 0 l 1
 53 0 l 1
 53 136 l 1
 394 550 l 1
 81 550 l 1
 81 690 l 1
 614 690 l 1
 614 551 l 1
 276 140 l 1
 618 140 l 1
EndSplineSet
Position2: "'cpsp' Capital Spacing in Latin lookup 0 subtable" dx=5 dy=0 dh=10 dv=0
EndChar

StartChar: zcaron
Encoding: 382 382 228
Width: 526
GlyphClass: 2
Flags: MW
HStem: 0 112<227 497 227 497> 418 112<49 304 49 494> 571 125<202 202 202 244 310 351>
VStem: 34 463<0 105 105 105>
LayerCount: 2
Fore
SplineSet
202 571 m 1
 140 696 l 1
 244 696 l 1
 278 620 l 1
 310 696 l 1
 413 696 l 1
 351 571 l 1
 202 571 l 1
497 112 m 1
 497 0 l 1
 34 0 l 1
 34 105 l 1
 304 418 l 1
 49 418 l 1
 49 530 l 1
 494 530 l 1
 494 420 l 1
 227 112 l 1
 497 112 l 1
EndSplineSet
EndChar

StartChar: Scommaaccent
Encoding: 536 536 84
Width: 626
GlyphClass: 2
Flags: MW
HStem: -216 179<272 285 188 386> -14 132<306 358 306 407.5> 572 132<297.5 347.5>
VStem: 61 188<488 531 488 562.5> 421 188<163 200>
AnchorPoint: "Anchor-0" 312 0 basechar 0
LayerCount: 2
Fore
SplineSet
322 704 m 0
 504 704 580 605 595 477 c 1
 415 477 l 1
 407 534 377 572 318 572 c 0
 277 572 249 552 249 510 c 0
 249 466 281 439 395 412 c 0
 547 376 609 300 609 194 c 0
 609 56 477 -14 338 -14 c 0
 163 -14 45 56 34 211 c 1
 214 211 l 1
 226 146 279 118 333 118 c 0
 383 118 421 144 421 182 c 0
 421 218 395 249 310 270 c 0
 153 309 61 358 61 496 c 0
 61 629 185 704 322 704 c 0
386 -47 m 1xf8
 285 -216 l 1
 188 -216 l 1
 272 -37 l 1
 386 -37 l 1
 386 -47 l 1xf8
EndSplineSet
Position2: "'cpsp' Capital Spacing in Latin lookup 0 subtable" dx=5 dy=0 dh=10 dv=0
EndChar

StartChar: scommaaccent
Encoding: 537 537 198
Width: 528
GlyphClass: 2
Flags: MW
HStem: -216 179<229 242 145 343> -14 112<256 291 256 340.5> -14 180<18 340.5> 378 170<321 340.5 203 498 321 321> 436 112<250.5 279>
VStem: 40 180<382 408.5 382 429> 332 180<125 156>
AnchorPoint: "Anchor-0" 269 0 basechar 0
LayerCount: 2
Fore
SplineSet
274 548 m 0x56
 407 548 484 475 498 378 c 1
 321 378 l 1x56
 313 415 295 436 263 436 c 0
 238 436 220 420 220 397 c 0
 220 367 244 347 346 322 c 0
 443 298 512 256 512 153 c 0
 512 39 405 -14 276 -14 c 0x4e
 131 -14 32 46 18 166 c 1
 195 166 l 1x36
 205 125 237 98 275 98 c 0
 307 98 332 111 332 139 c 0
 332 173 298 192 203 214 c 0
 101 238 40 285 40 376 c 0
 40 482 132 548 274 548 c 0x56
343 -47 m 1xd6
 242 -216 l 1
 145 -216 l 1
 229 -37 l 1
 343 -37 l 1
 343 -47 l 1xd6
EndSplineSet
EndChar

StartChar: uni021A
Encoding: 538 538 89
Width: 632
GlyphClass: 2
Flags: MW
HStem: -216 179<288 301 204 402> 0 21G<238 418 238 238> 550 140<14 238 14 642 418 642 418 418>
VStem: 238 180<0 550 0 550>
AnchorPoint: "Anchor-0" 328 0 basechar 0
LayerCount: 2
Fore
SplineSet
642 550 m 1
 418 550 l 1
 418 0 l 1
 238 0 l 1
 238 550 l 1
 14 550 l 1
 14 690 l 1
 642 690 l 1
 642 550 l 1
288 -37 m 1
 402 -37 l 1
 402 -47 l 1
 301 -216 l 1
 204 -216 l 1
 288 -37 l 1
EndSplineSet
Position2: "'cpsp' Capital Spacing in Latin lookup 0 subtable" dx=5 dy=0 dh=10 dv=0
EndChar

StartChar: uni021B
Encoding: 539 539 204
Width: 400
GlyphClass: 2
Flags: MW
HStem: -216 179<186 199 102 300> -14 121<204.5 377> -5 21G<377 377> 418 112<5 90 5 90 270 388>
VStem: 90 180<212 221 221 418 530 668>
AnchorPoint: "Anchor-0" 226 0 basechar 0
LayerCount: 2
Fore
SplineSet
270 418 m 1x38
 270 221 l 2
 270 203 270 183 271 169 c 0
 275 115 292 103 377 107 c 1
 377 -5 l 1
 342 -11 309 -14 271 -14 c 0x58
 138 -14 98 27 92 109 c 0
 90 140 90 165 90 195 c 2
 90 418 l 1
 5 418 l 1
 5 530 l 1
 90 530 l 1
 90 668 l 1
 270 668 l 1
 270 530 l 1
 388 530 l 1
 388 418 l 1
 270 418 l 1x38
186 -37 m 1xb8
 300 -37 l 1
 300 -47 l 1
 199 -216 l 1
 102 -216 l 1
 186 -37 l 1xb8
EndSplineSet
EndChar

StartChar: circumflex
Encoding: 710 710 328
Width: 300
Flags: MW
HStem: 571 125<76 117 14 225 183 225 76 287 183 183> 647 49<149 149>
VStem: 14 273<571 571>
LayerCount: 2
Fore
SplineSet
183 571 m 1xa0
 149 647 l 1x60
 117 571 l 1
 14 571 l 1
 76 696 l 1
 225 696 l 1
 287 571 l 1
 183 571 l 1xa0
EndSplineSet
EndChar

StartChar: caron
Encoding: 711 711 326
Width: 300
Flags: MW
HStem: 571 125<76 118 184 225 76 76>
VStem: 14 273<696 696>
LayerCount: 2
Fore
SplineSet
287 696 m 1
 225 571 l 1
 76 571 l 1
 14 696 l 1
 118 696 l 1
 152 620 l 1
 184 696 l 1
 287 696 l 1
EndSplineSet
EndChar

StartChar: breve
Encoding: 728 728 325
Width: 300
Flags: MW
HStem: 568 85<135.5 164.5 135.5 185.5> 568 128<15 185.5>
VStem: 15 270<646.5 696>
LayerCount: 2
Fore
SplineSet
195 696 m 1x60
 285 696 l 1
 285 597 221 568 150 568 c 0
 78 568 15 597 15 696 c 1
 105 696 l 1x60
 107 669 121 653 150 653 c 0xa0
 179 653 193 669 195 696 c 1x60
EndSplineSet
EndChar

StartChar: dotaccent
Encoding: 729 729 330
Width: 300
Flags: MW
HStem: 575 176<122 178>
VStem: 57 186<636 690>
LayerCount: 2
Fore
SplineSet
150 751 m 0
 206 751 243 717 243 663 c 0
 243 609 206 575 150 575 c 0
 94 575 57 609 57 663 c 0
 57 717 94 751 150 751 c 0
EndSplineSet
EndChar

StartChar: ring
Encoding: 730 730 335
Width: 300
Flags: MW
HStem: 567 66<139.5 160.5 139.5 185> 715 66<139.5 160.5>
VStem: 31 83<661 687 661 706> 186 83<661 687>
LayerCount: 2
Fore
SplineSet
150 781 m 0
 220 781 269 738 269 674 c 0
 269 610 220 567 150 567 c 0
 80 567 31 610 31 674 c 0
 31 738 80 781 150 781 c 0
150 715 m 0
 129 715 114 700 114 674 c 0
 114 648 129 633 150 633 c 0
 171 633 186 648 186 674 c 0
 186 700 171 715 150 715 c 0
EndSplineSet
EndChar

StartChar: ogonek
Encoding: 731 731 334
Width: 300
Flags: MW
HStem: -223 223<145 273> 0 21G<260.5 273>
VStem: 64 249<-169 -107>
LayerCount: 2
Fore
SplineSet
150 5 m 1xa0
 273 0 l 1x60
 248 0 228 -32 228 -70 c 0
 228 -108 249 -121 269 -121 c 0
 283 -121 297 -115 313 -100 c 1
 313 -173 l 1
 284 -202 242 -223 178 -223 c 0
 112 -223 64 -201 64 -137 c 0
 64 -77 105 -20 150 5 c 1xa0
EndSplineSet
EndChar

StartChar: tilde
Encoding: 732 732 336
Width: 300
Flags: MW
HStem: 571 103<199 255> 571 134<218 255> 574 134<45 82 -14 90.5>
VStem: -14 96<574 585 574 620.5> 218 96<694 705>
LayerCount: 2
Fore
SplineSet
76 708 m 0x38
 105 708 122 705 158 689 c 0
 182 678 195 674 203 674 c 0x98
 214 674 218 683 218 705 c 1
 314 705 l 1
 314 612 286 571 224 571 c 0x58
 195 571 179 574 142 590 c 0
 118 600 105 605 97 605 c 0
 86 605 82 596 82 574 c 1
 -14 574 l 1
 -14 667 14 708 76 708 c 0x38
EndSplineSet
EndChar

StartChar: hungarumlaut
Encoding: 733 733 332
Width: 300
Flags: MW
HStem: 571 125<69 74 -22 229 169 169 169 229 260 265>
VStem: -22 442<571 696>
LayerCount: 2
Fore
SplineSet
74 571 m 1
 -22 571 l 1
 69 696 l 1
 229 696 l 1
 74 571 l 1
265 571 m 1
 169 571 l 1
 260 696 l 1
 420 696 l 1
 265 571 l 1
EndSplineSet
EndChar

StartChar: uni0326
Encoding: 806 806 337
Width: 0
GlyphClass: 4
Flags: MW
HStem: -216 179<110 123 26 224>
VStem: 26 198<-216 -47>
AnchorPoint: "Anchor-0" 150 0 mark 0
LayerCount: 2
Fore
SplineSet
224 -47 m 1
 123 -216 l 1
 26 -216 l 1
 110 -37 l 1
 224 -37 l 1
 224 -47 l 1
EndSplineSet
EndChar

StartChar: wgrave
Encoding: 7809 7809 219
Width: 868
GlyphClass: 2
Flags: MW
HStem: 0 21G<169 370 169 169 506 707 506 506> 0 151<614 614 614 707 506 614> 514 20G<0 198 198 198 682 876 876 876> 571 125<411 411 411 416 256 507>
VStem: 0 876<534 534>
LayerCount: 2
Fore
SplineSet
411 571 m 1xb8
 256 696 l 1
 416 696 l 1
 507 571 l 1
 411 571 l 1xb8
876 534 m 1
 707 0 l 1
 506 0 l 1
 438 360 l 1
 370 0 l 1
 169 0 l 1
 0 534 l 1
 198 534 l 1
 268 152 l 1
 332 530 l 1
 546 530 l 1
 614 151 l 1x78
 682 534 l 1
 876 534 l 1
EndSplineSet
EndChar

StartChar: wacute
Encoding: 7811 7811 216
Width: 868
GlyphClass: 2
Flags: MW
HStem: 0 21G<169 370 169 169 506 707 506 506> 0 151<614 614 614 707 506 614> 514 20G<0 198 198 198 682 876 876 876> 571 125<475 480 384 635>
VStem: 0 876<534 534>
LayerCount: 2
Fore
SplineSet
480 571 m 1xb8
 384 571 l 1
 475 696 l 1
 635 696 l 1
 480 571 l 1xb8
876 534 m 1
 707 0 l 1
 506 0 l 1
 438 360 l 1
 370 0 l 1
 169 0 l 1
 0 534 l 1
 198 534 l 1
 268 152 l 1
 332 530 l 1
 546 530 l 1
 614 151 l 1x78
 682 534 l 1
 876 534 l 1
EndSplineSet
EndChar

StartChar: Wdieresis
Encoding: 7812 7812 103
Width: 1016
GlyphClass: 2
Flags: MW
HStem: 0 21G<192 433 192 192 613 853 613 613> 0 138<745 745 745 853 613 745> 670 20G<26 217 217 217 845 1029 1029 1029> 722 146<405.5 450.5 605.5 650.5>
VStem: 353 150<772.5 817.5> 553 150<772.5 817.5>
LayerCount: 2
Fore
SplineSet
428 722 m 0xbc
 383 722 353 750 353 795 c 0
 353 840 383 868 428 868 c 0
 473 868 503 840 503 795 c 0
 503 750 473 722 428 722 c 0xbc
628 722 m 0
 583 722 553 750 553 795 c 0
 553 840 583 868 628 868 c 0
 673 868 703 840 703 795 c 0
 703 750 673 722 628 722 c 0
1029 690 m 1
 853 0 l 1
 613 0 l 1
 526 537 l 1
 433 0 l 1
 192 0 l 1
 26 690 l 1
 217 690 l 1
 309 140 l 1
 400 680 l 1
 658 680 l 1
 745 138 l 1x7c
 845 690 l 1
 1029 690 l 1
EndSplineSet
Position2: "'cpsp' Capital Spacing in Latin lookup 0 subtable" dx=5 dy=0 dh=10 dv=0
EndChar

StartChar: wdieresis
Encoding: 7813 7813 218
Width: 868
GlyphClass: 2
Flags: MW
HStem: 0 21G<169 370 169 169 506 707 506 506> 0 151<614 614 614 707 506 614> 514 20G<0 198 198 198 682 876 876 876> 569 146<315.5 360.5 515.5 560.5>
VStem: 263 150<619.5 664.5> 463 150<619.5 664.5>
LayerCount: 2
Fore
SplineSet
338 569 m 0xbc
 293 569 263 597 263 642 c 0
 263 687 293 715 338 715 c 0
 383 715 413 687 413 642 c 0
 413 597 383 569 338 569 c 0xbc
538 569 m 0
 493 569 463 597 463 642 c 0
 463 687 493 715 538 715 c 0
 583 715 613 687 613 642 c 0
 613 597 583 569 538 569 c 0
876 534 m 1
 707 0 l 1
 506 0 l 1
 438 360 l 1
 370 0 l 1
 169 0 l 1
 0 534 l 1
 198 534 l 1
 268 152 l 1
 332 530 l 1
 546 530 l 1
 614 151 l 1x7c
 682 534 l 1
 876 534 l 1
EndSplineSet
EndChar

StartChar: Ygrave
Encoding: 7922 7922 110
Width: 663
GlyphClass: 2
Flags: MW
HStem: 0 21G<257 437 257 257> 670 20G<14 216 216 216 483 680 680 680> 735 125<312 312 312 317 157 408>
VStem: 257 180<0 264 0 264>
LayerCount: 2
Fore
SplineSet
312 735 m 1
 157 860 l 1
 317 860 l 1
 408 735 l 1
 312 735 l 1
437 264 m 1
 437 0 l 1
 257 0 l 1
 257 264 l 1
 14 690 l 1
 216 690 l 1
 352 417 l 1
 483 690 l 1
 680 690 l 1
 437 264 l 1
EndSplineSet
Position2: "'cpsp' Capital Spacing in Latin lookup 0 subtable" dx=5 dy=0 dh=10 dv=0
EndChar

StartChar: ygrave
Encoding: 7923 7923 225
Width: 608
GlyphClass: 2
Flags: MW
HStem: -210 119<138.5 147 117 216.5> 514 20G<0 200 200 200 419 616 616 616> 571 125<272 272 272 277 117 368>
VStem: 0 616<534 534>
LayerCount: 2
Fore
SplineSet
272 571 m 1
 117 696 l 1
 277 696 l 1
 368 571 l 1
 272 571 l 1
616 534 m 1
 405 0 l 2
 338 -169 280 -210 153 -210 c 0
 124 -210 103 -209 77 -205 c 1
 77 -89 l 1
 92 -91 108 -91 126 -91 c 0
 168 -91 197 -77 214 -39 c 2
 221 -24 l 1
 0 534 l 1
 200 534 l 1
 310 143 l 1
 419 534 l 1
 616 534 l 1
EndSplineSet
EndChar

StartChar: endash
Encoding: 8211 8211 268
Width: 500
Flags: MW
HStem: 242 96<90 410 90 410>
VStem: 90 320<242 338 242 338>
LayerCount: 2
Fore
SplineSet
410 242 m 1
 90 242 l 1
 90 338 l 1
 410 338 l 1
 410 242 l 1
EndSplineSet
EndChar

StartChar: emdash
Encoding: 8212 8212 267
Width: 1000
Flags: MW
HStem: 242 96<90 910 90 910>
VStem: 90 820<242 338 242 338>
LayerCount: 2
Fore
SplineSet
910 242 m 1
 90 242 l 1
 90 338 l 1
 910 338 l 1
 910 242 l 1
EndSplineSet
EndChar

StartChar: quoteleft
Encoding: 8216 8216 277
Width: 322
Flags: MW
HStem: 439 296<167 225 58 305>
VStem: 58 247
LayerCount: 2
Fore
SplineSet
58 449 m 1
 167 735 l 1
 305 735 l 1
 225 439 l 1
 58 439 l 1
 58 449 l 1
EndSplineSet
EndChar

StartChar: quoteright
Encoding: 8217 8217 278
Width: 322
Flags: MW
HStem: 439 296<97 155 17 264> 715 20G<97 264 264 264>
VStem: 17 247
LayerCount: 2
Fore
SplineSet
264 725 m 1x60
 155 439 l 1
 17 439 l 1xa0
 97 735 l 1
 264 735 l 1
 264 725 l 1x60
EndSplineSet
EndChar

StartChar: quotedblleft
Encoding: 8220 8220 275
Width: 562
Flags: MW
HStem: 439 296<167 225 58 305 298 298 298 305 407 465>
VStem: 58 487<439 735 449 735>
LayerCount: 2
Fore
SplineSet
58 449 m 1
 167 735 l 1
 305 735 l 1
 225 439 l 1
 58 439 l 1
 58 449 l 1
298 449 m 1
 407 735 l 1
 545 735 l 1
 465 439 l 1
 298 439 l 1
 298 449 l 1
EndSplineSet
EndChar

StartChar: quotedblright
Encoding: 8221 8221 276
Width: 562
Flags: MW
HStem: 439 296<97 155 17 264 257 257 257 264 337 395>
VStem: 17 487<439 725>
LayerCount: 2
Fore
SplineSet
264 725 m 1
 155 439 l 1
 17 439 l 1
 97 735 l 1
 264 735 l 1
 264 725 l 1
504 725 m 1
 395 439 l 1
 257 439 l 1
 337 735 l 1
 504 735 l 1
 504 725 l 1
EndSplineSet
EndChar

StartChar: quotedblbase
Encoding: 8222 8222 274
Width: 506
Flags: MW
HStem: -124 296<54 112 -26 221 214 214 214 221 294 352>
VStem: -26 487<-124 162>
LayerCount: 2
Fore
SplineSet
221 162 m 1
 112 -124 l 1
 -26 -124 l 1
 54 172 l 1
 221 172 l 1
 221 162 l 1
461 162 m 1
 352 -124 l 1
 214 -124 l 1
 294 172 l 1
 461 172 l 1
 461 162 l 1
EndSplineSet
EndChar

StartChar: dagger
Encoding: 8224 8224 317
Width: 570
Flags: MW
HStem: 340 146 670 20G<204 366 366 366>
VStem: 209.5 151
LayerCount: 2
Fore
SplineSet
534 338 m 1
 355 342 l 1
 366 -160 l 1
 204 -160 l 1
 215 342 l 1
 36 338 l 1
 36 488 l 1
 214 484 l 1
 204 690 l 1
 366 690 l 1
 356 484 l 1
 534 488 l 1
 534 338 l 1
EndSplineSet
EndChar

StartChar: daggerdbl
Encoding: 8225 8225 318
Width: 570
Flags: MW
HStem: 44 146 340 146 670 20G<204 366 366 366>
VStem: 209 152 216 138<188 342 188 342>
LayerCount: 2
Fore
SplineSet
354 342 m 1xe8
 354 188 l 1xe8
 534 192 l 1
 534 42 l 1
 356 46 l 1
 366 -160 l 1
 204 -160 l 1
 214 46 l 1xf0
 36 42 l 1
 36 192 l 1
 216 188 l 1
 216 342 l 1xe8
 36 338 l 1
 36 488 l 1
 214 484 l 1
 204 690 l 1
 366 690 l 1
 356 484 l 1xf0
 534 488 l 1
 534 338 l 1
 354 342 l 1xe8
EndSplineSet
EndChar

StartChar: bullet
Encoding: 8226 8226 245
Width: 392
Flags: MW
HStem: 175 260<157 235>
VStem: 66 260<266 344>
LayerCount: 2
Fore
SplineSet
196 435 m 0
 274 435 326 383 326 305 c 0
 326 227 274 175 196 175 c 0
 118 175 66 227 66 305 c 0
 66 383 118 435 196 435 c 0
EndSplineSet
EndChar

StartChar: ellipsis
Encoding: 8230 8230 248
Width: 826
Flags: MW
HStem: -14 200<110.5 169.5 390.5 449.5 670.5 729.5>
VStem: 40 200<56.5 115.5> 320 200<56.5 115.5> 600 200<56.5 115.5>
LayerCount: 2
Fore
SplineSet
140 186 m 0
 199 186 240 145 240 86 c 0
 240 27 199 -14 140 -14 c 0
 81 -14 40 27 40 86 c 0
 40 145 81 186 140 186 c 0
420 186 m 0
 479 186 520 145 520 86 c 0
 520 27 479 -14 420 -14 c 0
 361 -14 320 27 320 86 c 0
 320 145 361 186 420 186 c 0
700 186 m 0
 759 186 800 145 800 86 c 0
 800 27 759 -14 700 -14 c 0
 641 -14 600 27 600 86 c 0
 600 145 641 186 700 186 c 0
EndSplineSet
EndChar

StartChar: perthousand
Encoding: 8240 8240 304
Width: 1132
Flags: MW
HStem: -14 84<573 609 573 641 923 959> 0 21G<111 234 111 111> 240 84<573 609 923 959> 366 84<173 209 173 241> 620 84<173 209> 670 20G<558 681 681 681>
VStem: 31 108<508 562.5 508 589> 243 108<508 562.5> 431 108<128 182.5 128 209> 643 108<128 182.5> 781 108<128 182.5 128 209> 993 108<128 182.5>
LayerCount: 2
Fore
SplineSet
351 535 m 0xbbd0
 351 428 291 366 191 366 c 0
 91 366 31 428 31 535 c 0
 31 643 91 704 191 704 c 0
 291 704 351 643 351 535 c 0xbbd0
681 690 m 1x4440
 234 0 l 1
 111 0 l 1
 558 690 l 1
 681 690 l 1x4440
139 535 m 0xbbd0
 139 481 155 450 191 450 c 0
 227 450 243 481 243 535 c 0
 243 590 227 620 191 620 c 0
 155 620 139 590 139 535 c 0xbbd0
591 324 m 0
 691 324 751 263 751 155 c 0
 751 48 691 -14 591 -14 c 0
 491 -14 431 48 431 155 c 0
 431 263 491 324 591 324 c 0
941 324 m 0
 1041 324 1101 263 1101 155 c 0
 1101 48 1041 -14 941 -14 c 0
 841 -14 781 48 781 155 c 0xa030
 781 263 841 324 941 324 c 0
591 70 m 0
 627 70 643 101 643 155 c 0
 643 210 627 240 591 240 c 0
 555 240 539 210 539 155 c 0
 539 101 555 70 591 70 c 0
941 70 m 0xa030
 977 70 993 101 993 155 c 0
 993 210 977 240 941 240 c 0
 905 240 889 210 889 155 c 0
 889 101 905 70 941 70 c 0xa030
EndSplineSet
EndChar

StartChar: guilsinglleft
Encoding: 8249 8249 272
Width: 457
Flags: MW
HStem: 82 332<284 413 284 413>
VStem: 147 266<82 248>
LayerCount: 2
Fore
SplineSet
413 414 m 1
 276 248 l 1
 413 82 l 1
 284 82 l 1
 147 248 l 1
 284 414 l 1
 413 414 l 1
EndSplineSet
EndChar

StartChar: guilsinglright
Encoding: 8250 8250 273
Width: 424
Flags: MW
HStem: 82 332<44 173 44 173>
VStem: 44 266<82 248 248 414>
LayerCount: 2
Fore
SplineSet
310 248 m 1
 173 82 l 1
 44 82 l 1
 181 248 l 1
 44 414 l 1
 173 414 l 1
 310 248 l 1
EndSplineSet
EndChar

StartChar: fraction
Encoding: 8260 8260 242
Width: 370
Flags: MW
HStem: 0 21G<-100 23 -100 -100> 670 20G<347 470 470 470>
VStem: -100 570
LayerCount: 2
Fore
SplineSet
23 0 m 1
 -100 0 l 1
 347 690 l 1
 470 690 l 1
 23 0 l 1
EndSplineSet
EndChar

StartChar: Euro
Encoding: 8364 8364 284
Width: 662
Flags: MW
HStem: -14 132<413.5 449.5> 224 96<57 113 57 123 37 113 313 492 313 313> 370 96<88 114 68 127 315 522> 572 132<407 465>
VStem: 113 188<320 342 342 346 346 347>
LayerCount: 2
Fore
SplineSet
492 224 m 1
 313 224 l 1
 334 141 381 118 446 118 c 0
 501 118 549 131 593 157 c 1
 593 28 l 1
 544 0 499 -14 400 -14 c 0
 257 -14 154 54 123 224 c 1
 37 224 l 1
 57 320 l 1
 113 320 l 1
 113 342 l 2
 113 352 113 361 114 370 c 1
 68 370 l 1
 88 466 l 1
 127 466 l 1
 166 629 285 704 429 704 c 0
 529 704 594 679 632 642 c 1
 570 531 l 1
 527 561 492 572 438 572 c 0
 376 572 335 536 315 466 c 1
 543 466 l 1
 522 370 l 1
 301 370 l 1
 301 346 l 2
 301 337 301 328 301 320 c 1
 511 320 l 1
 492 224 l 1
EndSplineSet
EndChar

StartChar: trademark
Encoding: 8482 8482 323
Width: 537
Flags: MW
HStem: 456 203<94 341 94 341 250 341 250 310 434 434 434 494> 615 45<22 94 22 226 154 226 154 154>
VStem: 94 60<456 615 456 615> 250 59.5 435 59
LayerCount: 2
Fore
SplineSet
226 660 m 1x78
 226 615 l 1
 154 615 l 1
 154 456 l 1
 94 456 l 1
 94 615 l 1
 22 615 l 1
 22 660 l 1
 226 660 l 1x78
494 659 m 1xb8
 494 456 l 1
 434 456 l 1
 436 598 l 1
 404 460 l 1
 342 460 l 1xb8
 309 597 l 1
 310 456 l 1
 250 456 l 1
 250 659 l 1
 341 659 l 1x78
 374 517 l 1
 407 659 l 1
 494 659 l 1xb8
EndSplineSet
EndChar

StartChar: partialdiff
Encoding: 8706 8706 302
Width: 662
Flags: MW
HStem: -14 132<297.5 362.5 297.5 412> 383 132<302.5 333 227.5 355.5> 626 132<269.5 327.5>
VStem: 42 188<209.5 292.5 209.5 338> 431 184
LayerCount: 2
Fore
SplineSet
312 758 m 0
 513 758 615 611 615 353 c 0
 615 104 503 -14 321 -14 c 0
 165 -14 42 68 42 247 c 0
 42 429 156 515 299 515 c 0
 367 515 403 495 424 468 c 1
 413 578 371 626 284 626 c 0
 239 626 199 613 159 587 c 1
 105 702 l 1
 172 742 227 758 312 758 c 0
328 118 m 0
 397 118 430 174 431 333 c 1
 411 372 375 383 336 383 c 0
 269 383 230 333 230 252 c 0
 230 167 267 118 328 118 c 0
EndSplineSet
EndChar

StartChar: emptyset
Encoding: 8709 8709 290
Width: 838
Flags: MW
HStem: -53 97<388 500 388 529> -4 21G<11 11> 666 96<338 455> 723 20G<758 758>
VStem: 13 108<318.5 444.5 318.5 470.5> 717 108<265.5 386>
LayerCount: 2
Fore
SplineSet
827 674 m 1x5c
 748 595 l 1
 796 528 825 446 825 355 c 0
 825 124 639 -53 419 -53 c 0
 330 -53 247 -24 179 26 c 1
 80 -73 l 1xac
 11 -4 l 1
 108 93 l 1
 49 163 13 254 13 355 c 0
 13 586 199 762 419 762 c 0
 518 762 610 726 681 666 c 1x6c
 758 743 l 1
 827 674 l 1x5c
121 355 m 0
 121 282 143 217 181 166 c 1
 610 595 l 1
 558 640 491 666 419 666 c 0
 257 666 121 534 121 355 c 0
717 355 m 0
 717 417 700 473 673 520 c 1
 250 97 l 1
 298 63 357 44 419 44 c 0
 581 44 717 176 717 355 c 0
EndSplineSet
EndChar

StartChar: product
Encoding: 8719 8719 307
Width: 662
Flags: MW
HStem: 550 140<37 94 37 625 274 388 274 274 568 625 568 568>
VStem: 94 180<-110 550 -110 550> 388 180<-110 550 -110 550>
LayerCount: 2
Fore
SplineSet
625 550 m 1
 568 550 l 1
 568 -110 l 1
 388 -110 l 1
 388 550 l 1
 274 550 l 1
 274 -110 l 1
 94 -110 l 1
 94 550 l 1
 37 550 l 1
 37 690 l 1
 625 690 l 1
 625 550 l 1
EndSplineSet
EndChar

StartChar: summation
Encoding: 8721 8721 309
Width: 662
Flags: MW
HStem: -110 140<280 611 280 611> 550 140<308 605 308 308>
VStem: 52 559<-110 2 2 2>
LayerCount: 2
Fore
SplineSet
611 30 m 1
 611 -110 l 1
 52 -110 l 1
 52 2 l 1
 297 301 l 1
 82 578 l 1
 82 690 l 1
 605 690 l 1
 605 550 l 1
 308 550 l 1
 505 300 l 1
 280 30 l 1
 611 30 l 1
EndSplineSet
EndChar

StartChar: minus
Encoding: 8722 8722 299
Width: 662
Flags: MW
HStem: 269 96<106 556 106 556>
VStem: 106 450<269 365 269 365>
LayerCount: 2
Fore
SplineSet
556 269 m 1
 106 269 l 1
 106 365 l 1
 556 365 l 1
 556 269 l 1
EndSplineSet
EndChar

StartChar: radical
Encoding: 8730 8730 308
Width: 662
Flags: MW
HStem: 222 88<47 129 47 210>
VStem: 47 569<222 780 310 780>
LayerCount: 2
Fore
SplineSet
616 780 m 1
 390 -160 l 1
 256 -160 l 1
 129 222 l 1
 47 222 l 1
 47 310 l 1
 210 310 l 1
 321 -51 l 1
 510 780 l 1
 616 780 l 1
EndSplineSet
EndChar

StartChar: infinity
Encoding: 8734 8734 294
Width: 1022
Flags: MW
HStem: -14 122<273 328 273 331 694 749> 422 122<273 328 694 749>
VStem: 24 184<217 313.5 217 351> 814 184<217 313.5>
LayerCount: 2
Fore
SplineSet
741 544 m 0
 886 544 998 437 998 265 c 0
 998 94 886 -14 731 -14 c 0
 631 -14 556 13 502 99 c 1
 451 13 381 -14 281 -14 c 0
 136 -14 24 94 24 265 c 0
 24 437 136 544 291 544 c 0
 391 544 469 517 523 431 c 1
 574 517 641 544 741 544 c 0
302 108 m 0
 354 108 390 151 401 265 c 1
 385 381 354 422 302 422 c 0
 244 422 208 362 208 265 c 0
 208 169 244 108 302 108 c 0
720 108 m 0
 778 108 814 169 814 265 c 0
 814 362 778 422 720 422 c 0
 668 422 636 379 625 265 c 1
 641 149 668 108 720 108 c 0
EndSplineSet
EndChar

StartChar: integral
Encoding: 8747 8747 295
Width: 661
Flags: MW
HStem: -160 96<263.5 288 256.5 335> 658 96<373 397.5 326 404.5>
VStem: 211 108<555.5 610.5 555.5 628.5> 342 108<-16.5 38.5>
LayerCount: 2
Fore
SplineSet
378 754 m 0
 417 754 446 749 472 732 c 1
 457 642 l 1
 436 654 417 658 392 658 c 0
 354 658 319 637 319 584 c 0xe0
 319 527 325 475 385 304 c 0
 437 155 450 89 450 15 c 0
 450 -84 387 -160 283 -160 c 0
 244 -160 215 -155 189 -138 c 1
 204 -48 l 1
 225 -60 244 -64 269 -64 c 0
 307 -64 342 -43 342 10 c 0xf0
 342 67 336 119 276 290 c 0
 224 439 211 505 211 579 c 0
 211 678 274 754 378 754 c 0
EndSplineSet
EndChar

StartChar: approxequal
Encoding: 8776 8776 287
Width: 662
Flags: MW
HStem: 115 105<424.5 453 424.5 465.5> 191 105<208 236.5> 315 105<424.5 453 424.5 465.5> 391 105<208 236.5>
VStem: 80 501<203 208 203 408>
LayerCount: 2
Fore
SplineSet
222 496 m 0x58
 263 496 289 484 344 455 c 0
 397 427 413 420 436 420 c 0
 470 420 496 435 523 466 c 1
 581 403 l 1
 540 335 492 315 439 315 c 0x68
 398 315 372 327 317 356 c 0
 264 384 248 391 225 391 c 0
 191 391 165 376 138 345 c 1
 80 408 l 1
 121 476 169 496 222 496 c 0x58
222 296 m 0
 263 296 289 284 344 255 c 0
 397 227 413 220 436 220 c 0
 470 220 496 235 523 266 c 1
 581 203 l 1
 540 135 492 115 439 115 c 0x98
 398 115 372 127 317 156 c 0
 264 184 248 191 225 191 c 0
 191 191 165 176 138 145 c 1
 80 208 l 1
 121 276 169 296 222 296 c 0
EndSplineSet
EndChar

StartChar: notequal
Encoding: 8800 8800 301
Width: 662
Flags: MW
HStem: 173 88<86 208 86 251 356 576 86 313> 373 88<86 306 86 349 454 576 86 411>
VStem: 86 490<173 261 173 261 373 461 173 461>
LayerCount: 2
Fore
SplineSet
411 373 m 1
 356 261 l 1
 576 261 l 1
 576 173 l 1
 313 173 l 1
 258 62 l 1
 153 62 l 1
 208 173 l 1
 86 173 l 1
 86 261 l 1
 251 261 l 1
 306 373 l 1
 86 373 l 1
 86 461 l 1
 349 461 l 1
 404 572 l 1
 509 572 l 1
 454 461 l 1
 576 461 l 1
 576 373 l 1
 411 373 l 1
EndSplineSet
EndChar

StartChar: lessequal
Encoding: 8804 8804 297
Width: 662
Flags: MW
HStem: 0 96<120 560 120 560>
VStem: 120 440<0 96 0 96 0 388 0 388>
LayerCount: 2
Fore
SplineSet
560 410 m 1
 220 320 l 1
 560 224 l 1
 560 120 l 1
 120 252 l 1
 120 388 l 1
 560 520 l 1
 560 410 l 1
120 96 m 1
 560 96 l 1
 560 0 l 1
 120 0 l 1
 120 96 l 1
EndSplineSet
EndChar

StartChar: greaterequal
Encoding: 8805 8805 293
Width: 662
Flags: MW
HStem: 0 96<102 532 102 532>
VStem: 102 430<0 96 0 96 0 230 0 230 0 520 0 520>
LayerCount: 2
Fore
SplineSet
532 388 m 1
 532 252 l 1
 102 120 l 1
 102 230 l 1
 433 320 l 1
 102 416 l 1
 102 520 l 1
 532 388 l 1
102 96 m 1
 532 96 l 1
 532 0 l 1
 102 0 l 1
 102 96 l 1
EndSplineSet
EndChar

StartChar: lozenge
Encoding: 9674 9674 310
Width: 554
Flags: MW
HStem: 0 21G<201 353 201 201> 0 114<277 277 277 353 201 277> 576 114<277 277> 670 20G<201 353 353 353>
VStem: 44 466<345 345>
LayerCount: 2
Fore
SplineSet
510 345 m 1x98
 353 0 l 1
 201 0 l 1
 44 345 l 1
 201 690 l 1
 353 690 l 1
 510 345 l 1x98
378 345 m 1
 277 576 l 1
 176 345 l 1
 277 114 l 1x68
 378 345 l 1
EndSplineSet
EndChar

StartChar: fi
Encoding: 64257 64257 230
Width: 666
GlyphClass: 3
Flags: MW
HStem: 0 21G<76 256 76 76 432 612 432 432> 418 112<19 76 19 76 256 432> 629 117<432 432>
VStem: 76 180<0 418 0 418 530 534 0 542> 432 180<0 418 418 418 0 629 0 746>
LayerCount: 2
Fore
SplineSet
612 530 m 1
 612 0 l 1
 432 0 l 1
 432 418 l 1
 256 418 l 1
 256 0 l 1
 76 0 l 1
 76 418 l 1
 19 418 l 1
 19 530 l 1
 76 530 l 1
 76 534 l 2
 76 550 76 574 77 592 c 0
 85 692 147 754 342 754 c 0
 383 754 404 751 432 746 c 1
 432 629 l 1
 297 637 262 621 257 574 c 0
 256 560 256 547 256 534 c 2
 256 530 l 1
 612 530 l 1
EndSplineSet
Ligature2: "'liga' Standard Ligatures in Latin lookup 4 subtable" f i
EndChar

StartChar: fl
Encoding: 64258 64258 231
Width: 677
GlyphClass: 3
Flags: MW
HStem: -10 21G<511.5 568> -10 117<511.5 663> 0 21G<66 246 66 66> 418 112<19 66 19 66 246 355> 632 122<324 374.5>
VStem: 66 180<0 418 0 418 530 534 0 542> 422 180<189 192 192 625 625 625>
LayerCount: 2
Fore
SplineSet
604 143 m 0x5e
 608 112 623 105 663 107 c 1x5e
 663 -4 l 1
 625 -8 588 -10 548 -10 c 0x9e
 475 -10 428 23 424 94 c 0
 422 122 422 149 422 189 c 2
 422 625 l 1
 402 631 387 632 362 632 c 0
 286 632 251 613 247 574 c 0
 246 560 246 547 246 534 c 2
 246 530 l 1
 355 530 l 1
 355 418 l 1
 246 418 l 1
 246 0 l 1
 66 0 l 1x3e
 66 418 l 1
 19 418 l 1
 19 530 l 1
 66 530 l 1
 66 534 l 2
 66 550 66 564 67 582 c 0
 75 682 147 754 362 754 c 0
 463 754 544 742 602 723 c 1
 602 192 l 2
 602 167 602 156 604 143 c 0x5e
EndSplineSet
Ligature2: "'liga' Standard Ligatures in Latin lookup 4 subtable" f l
EndChar
